<?xml version="1.0" encoding="UTF-8" standalone="no"?>
<!-- Created with Inkscape (http://www.inkscape.org/) -->

<svg
   xmlns:dc="http://purl.org/dc/elements/1.1/"
   xmlns:cc="http://creativecommons.org/ns#"
   xmlns:rdf="http://www.w3.org/1999/02/22-rdf-syntax-ns#"
   xmlns:svg="http://www.w3.org/2000/svg"
   xmlns="http://www.w3.org/2000/svg"
   xmlns:xlink="http://www.w3.org/1999/xlink"
   xmlns:sodipodi="http://sodipodi.sourceforge.net/DTD/sodipodi-0.dtd"
   xmlns:inkscape="http://www.inkscape.org/namespaces/inkscape"
   width="854"
   height="480"
   id="svg2"
   version="1.1"
   inkscape:version="0.48.2 r9819"
   sodipodi:docname="mushrooms.svg"
   inkscape:export-filename="/home/jakub/Projects/KidPuzzle/qml/KidPuzzle/mushrooms.png"
   inkscape:export-xdpi="90"
   inkscape:export-ydpi="90">
  <defs
     id="defs4">
    <linearGradient
       id="linearGradient4082">
      <stop
         style="stop-color:#ffffff;stop-opacity:1;"
         offset="0"
         id="stop4084" />
      <stop
         style="stop-color:#a7a9a3;stop-opacity:1;"
         offset="1"
         id="stop4086" />
    </linearGradient>
    <linearGradient
       id="linearGradient4071">
      <stop
         style="stop-color:#8f8b8b;stop-opacity:1;"
         offset="0"
         id="stop4073" />
      <stop
         style="stop-color:#000000;stop-opacity:0.95384616;"
         offset="1"
         id="stop4075" />
    </linearGradient>
    <filter
       inkscape:collect="always"
       id="filter4044">
      <feGaussianBlur
         inkscape:collect="always"
         stdDeviation="15.084375"
         id="feGaussianBlur4046" />
    </filter>
    <radialGradient
       inkscape:collect="always"
       xlink:href="#linearGradient4071"
       id="radialGradient4077"
       cx="227.22032"
       cy="1435.7439"
       fx="227.22032"
       fy="1435.7439"
       r="64"
       gradientUnits="userSpaceOnUse"
       gradientTransform="matrix(1.0112226,0.01122266,-0.01109743,0.99993842,13.541572,-574.7846)" />
    <linearGradient
       inkscape:collect="always"
       xlink:href="#linearGradient4082"
       id="linearGradient4088"
       x1="231.27353"
       y1="1401.2389"
       x2="233.45647"
       y2="1495.3297"
       gradientUnits="userSpaceOnUse" />
  </defs>
  <sodipodi:namedview
     id="base"
     pagecolor="#ffffff"
     bordercolor="#666666"
     borderopacity="1.0"
     inkscape:pageopacity="0.0"
     inkscape:pageshadow="2"
     inkscape:zoom="1.3922717"
     inkscape:cx="427"
     inkscape:cy="-277.14045"
     inkscape:document-units="px"
     inkscape:current-layer="layer1"
     showgrid="false"
     inkscape:window-width="1704"
     inkscape:window-height="964"
     inkscape:window-x="203"
     inkscape:window-y="31"
     inkscape:window-maximized="0" />
  <metadata
     id="metadata7">
    <rdf:RDF>
      <cc:Work
         rdf:about="">
        <dc:format>image/svg+xml</dc:format>
        <dc:type
           rdf:resource="http://purl.org/dc/dcmitype/StillImage" />
        <dc:title></dc:title>
      </cc:Work>
    </rdf:RDF>
  </metadata>
  <g
     inkscape:label="Layer 1"
     inkscape:groupmode="layer"
     id="layer1"
     transform="translate(0,-572.36218)">
    <rect
       style="color:#000000;fill:#ffffff;fill-opacity:1;fill-rule:nonzero;stroke:none;stroke-width:0.96460729999999995;marker:none;visibility:visible;display:inline;overflow:visible;enable-background:accumulate"
       id="rect4048"
       width="859.22113"
       height="480.42471"
       x="-1.0265485"
       y="-0.42472467"
       transform="translate(0,572.36218)" />
    <path
       id="path4018"
       transform="translate(0,572.36218)"
       d="M 127.5 -0.59375 L 127.5 479.40625 L 854.25 479.40625 L 854.25 -0.59375 L 127.5 -0.59375 z M 283.84375 28.3125 C 329.62474 28.3125 366.46875 65.187763 366.46875 110.96875 C 366.46875 156.74974 329.62474 193.59375 283.84375 193.59375 C 238.06276 193.59375 201.21875 156.74974 201.21875 110.96875 C 201.21875 65.187763 238.06276 28.3125 283.84375 28.3125 z M 476.46875 81.90625 L 635.6875 81.90625 L 635.6875 241.125 L 476.46875 241.125 L 476.46875 81.90625 z M 344.78125 222.84375 L 373.875 301.625 L 455.25 322.3125 L 389.3125 374.3125 L 394.78125 458.09375 L 324.96875 411.46875 L 246.96875 442.5625 L 269.75 361.75 L 216.0625 297.1875 L 299.96875 293.84375 L 344.78125 222.84375 z M 675.84375 244.40625 L 796.65625 270.09375 L 809.5625 392.90625 L 696.75 443.15625 L 614.09375 351.375 L 675.84375 244.40625 z "
       style="color:#000000;fill:#050000;fill-opacity:1;fill-rule:nonzero;stroke:none;stroke-width:0.96460729999999995;marker:none;visibility:visible;display:inline;overflow:visible;enable-background:accumulate;filter:url(#filter4044)" />
    <rect
       style="color:#000000;fill:#f1f1f2;fill-opacity:1;fill-rule:nonzero;stroke:none;stroke-width:0.9646073;marker:none;visibility:visible;display:inline;overflow:visible;enable-background:accumulate"
       id="rect2985"
       width="128.07834"
       height="480.58752"
       x="0"
       y="0"
       transform="translate(0,572.36218)"
       ry="0" />
    <path
       style="color:#000000;fill:#2b2d2f;fill-opacity:1;fill-rule:nonzero;stroke:none;stroke-width:0.96460729999999995;marker:none;visibility:visible;display:inline;overflow:visible;enable-background:accumulate"
       d="M 127.5 -0.59375 L 127.5 479.40625 L 854.25 479.40625 L 854.25 -0.59375 L 127.5 -0.59375 z M 283.84375 28.3125 C 329.62474 28.3125 366.46875 65.187763 366.46875 110.96875 C 366.46875 156.74974 329.62474 193.59375 283.84375 193.59375 C 238.06276 193.59375 201.21875 156.74974 201.21875 110.96875 C 201.21875 65.187763 238.06276 28.3125 283.84375 28.3125 z M 476.46875 81.90625 L 635.6875 81.90625 L 635.6875 241.125 L 476.46875 241.125 L 476.46875 81.90625 z M 344.78125 222.84375 L 373.875 301.625 L 455.25 322.3125 L 389.3125 374.3125 L 394.78125 458.09375 L 324.96875 411.46875 L 246.96875 442.5625 L 269.75 361.75 L 216.0625 297.1875 L 299.96875 293.84375 L 344.78125 222.84375 z M 675.84375 244.40625 L 796.65625 270.09375 L 809.5625 392.90625 L 696.75 443.15625 L 614.09375 351.375 L 675.84375 244.40625 z "
       transform="translate(0,572.36218)"
       id="rect2987" />
    <path
       inkscape:transform-center-y="-8.12332"
       inkscape:transform-center-x="-4.0840328"
       transform="translate(375.71677,971.68957)"
       d="m -222.16227,345.17862 -69.82633,-46.62527 -77.99439,31.08868 22.76574,-80.81678 -53.66868,-64.57015 83.89633,-3.32225 44.82532,-70.99522 29.08504,78.76352 81.37226,20.69268 -65.92079,52.00078 z"
       inkscape:randomized="0"
       inkscape:rounded="0"
       inkscape:flatsided="false"
       sodipodi:arg2="1.6755161"
       sodipodi:arg1="1.0471976"
       sodipodi:r2="63.218224"
       sodipodi:r1="126.43645"
       sodipodi:cy="235.68144"
       sodipodi:cx="-285.38049"
       sodipodi:sides="5"
       id="path3791"
       style="color:#000000;fill:#1fc22f;fill-opacity:1;fill-rule:nonzero;stroke:none;stroke-width:0.9646073;marker:none;visibility:visible;display:inline;overflow:visible;enable-background:accumulate"
       sodipodi:type="star" />
    <path
       inkscape:transform-center-y="3.393538"
       inkscape:transform-center-x="6.7498956"
       transform="translate(978.30075,688.36217)"
       d="m -145.12188,554.08733 -112.82741,50.234 -82.64096,-91.78209 61.75249,-106.95844 120.80609,25.67813 z"
       inkscape:randomized="0"
       inkscape:rounded="0"
       inkscape:flatsided="true"
       sodipodi:arg2="1.1519173"
       sodipodi:arg1="0.52359878"
       sodipodi:r2="84.99501"
       sodipodi:r1="105.05961"
       sodipodi:cy="501.55753"
       sodipodi:cx="-236.10617"
       sodipodi:sides="5"
       id="path3793"
       style="color:#000000;fill:#f1ff2f;fill-opacity:1;fill-rule:nonzero;stroke:none;stroke-width:0.9646073;marker:none;visibility:visible;display:inline;overflow:visible;enable-background:accumulate"
       sodipodi:type="star" />
    <rect
       style="color:#000000;fill:#0e4bff;fill-opacity:1;fill-rule:nonzero;stroke:none;stroke-width:0.9646073;marker:none;visibility:visible;display:inline;overflow:visible;enable-background:accumulate"
       id="rect3795"
       width="165.27432"
       height="165.27432"
       x="220.70793"
       y="1118.0613"
       ry="82.637161" />
    <rect
       y="1116.2257"
       x="426.17648"
       height="159.21664"
       width="159.21664"
       id="rect3797"
       style="color:#000000;fill:#ff2d2f;fill-opacity:1;fill-rule:nonzero;stroke:none;stroke-width:0.9646073;marker:none;visibility:visible;display:inline;overflow:visible;enable-background:accumulate" />
    <path
       style="color:#000000;fill:url(#radialGradient4077);fill-opacity:1;fill-rule:nonzero;stroke:none;stroke-width:0.96460729999999995;marker:none;visibility:visible;display:inline;overflow:visible;enable-background:accumulate"
       d="M 223.78125 810.1875 C 188.32525 810.1875 159.78125 838.7315 159.78125 874.1875 C 159.78125 909.6435 188.32525 938.1875 223.78125 938.1875 C 259.23725 938.1875 287.78125 909.6435 287.78125 874.1875 C 287.78125 838.7315 259.23725 810.1875 223.78125 810.1875 z M 219.28125 827.59375 L 219.28125 857.34375 L 262.90625 857.34375 L 262.90625 874.84375 L 262.90625 892.3125 L 219.28125 892.3125 L 219.28125 922.09375 L 181.71875 874.625 L 219.28125 827.59375 z "
       transform="translate(0,572.36218)"
       id="rect4054" />
    <path
       style="fill:url(#linearGradient4088);fill-opacity:1;stroke:none"
       d="m 219.27975,1399.9569 -37.56552,47.037 37.56552,47.463 0,-29.7812 43.625,0 0,-17.4844 0,-17.4844 -43.625,0 z"
       id="path4058"
       inkscape:connector-curvature="0"
       sodipodi:nodetypes="ccccccccc" />
  </g>
</svg>
