<?xml version="1.0" encoding="UTF-8" standalone="no"?>
<!-- Created with Inkscape (http://www.inkscape.org/) -->

<svg
   xmlns:dc="http://purl.org/dc/elements/1.1/"
   xmlns:cc="http://creativecommons.org/ns#"
   xmlns:rdf="http://www.w3.org/1999/02/22-rdf-syntax-ns#"
   xmlns:svg="http://www.w3.org/2000/svg"
   xmlns="http://www.w3.org/2000/svg"
   xmlns:xlink="http://www.w3.org/1999/xlink"
   xmlns:sodipodi="http://sodipodi.sourceforge.net/DTD/sodipodi-0.dtd"
   xmlns:inkscape="http://www.inkscape.org/namespaces/inkscape"
   width="145.20735"
   height="76.283173"
   id="svg2"
   version="1.1"
   inkscape:version="0.48.2 r9819"
   sodipodi:docname="black_blue_fish.svg">
  <defs
     id="defs4">
    <linearGradient
       id="linearGradient4040">
      <stop
         style="stop-color:#cae0ff;stop-opacity:1;"
         offset="0"
         id="stop4042" />
      <stop
         id="stop4044"
         offset="0.39783591"
         style="stop-color:#ffffff;stop-opacity:1;" />
      <stop
         style="stop-color:#b1c8fc;stop-opacity:1;"
         offset="1"
         id="stop4046" />
    </linearGradient>
    <linearGradient
       id="linearGradient4032">
      <stop
         id="stop4034"
         offset="0"
         style="stop-color:#005dcb;stop-opacity:1;" />
      <stop
         style="stop-color:#ccceff;stop-opacity:1;"
         offset="0.4424153"
         id="stop4036" />
      <stop
         id="stop4038"
         offset="1"
         style="stop-color:#005dcb;stop-opacity:1;" />
    </linearGradient>
    <linearGradient
       id="linearGradient4024">
      <stop
         id="stop4026"
         offset="0"
         style="stop-color:#005dcb;stop-opacity:1;" />
      <stop
         style="stop-color:#ccceff;stop-opacity:1;"
         offset="0.32729572"
         id="stop4028" />
      <stop
         id="stop4030"
         offset="1"
         style="stop-color:#005dcb;stop-opacity:1;" />
    </linearGradient>
    <linearGradient
       id="linearGradient4016">
      <stop
         style="stop-color:#cae0ff;stop-opacity:1;"
         offset="0"
         id="stop4018" />
      <stop
         id="stop4020"
         offset="0.37466487"
         style="stop-color:#ffffff;stop-opacity:1;" />
      <stop
         style="stop-color:#b1c8fc;stop-opacity:1;"
         offset="1"
         id="stop4022" />
    </linearGradient>
    <linearGradient
       id="linearGradient3992">
      <stop
         id="stop3994"
         offset="0"
         style="stop-color:#cae0ff;stop-opacity:1;" />
      <stop
         style="stop-color:#ffffff;stop-opacity:1;"
         offset="0.5"
         id="stop3998" />
      <stop
         id="stop3996"
         offset="1"
         style="stop-color:#b1c8fc;stop-opacity:1;" />
    </linearGradient>
    <linearGradient
       id="linearGradient3897">
      <stop
         id="stop3899"
         offset="0"
         style="stop-color:#29222d;stop-opacity:1;" />
      <stop
         id="stop3901"
         offset="1"
         style="stop-color:#666264;stop-opacity:0.94615382;" />
    </linearGradient>
    <linearGradient
       id="linearGradient3810">
      <stop
         style="stop-color:#005dcb;stop-opacity:1;"
         offset="0"
         id="stop3812" />
      <stop
         id="stop3818"
         offset="0.47838613"
         style="stop-color:#ccceff;stop-opacity:1;" />
      <stop
         style="stop-color:#005dcb;stop-opacity:1;"
         offset="1"
         id="stop3814" />
    </linearGradient>
    <linearGradient
       id="linearGradient3778">
      <stop
         id="stop3780"
         offset="0"
         style="stop-color:#000000;stop-opacity:1;" />
      <stop
         style="stop-color:#242424;stop-opacity:1;"
         offset="0.5"
         id="stop3784" />
      <stop
         id="stop3782"
         offset="1"
         style="stop-color:#000000;stop-opacity:1;" />
    </linearGradient>
    <linearGradient
       id="linearGradient3766">
      <stop
         style="stop-color:#ffffff;stop-opacity:1;"
         offset="0"
         id="stop3768" />
      <stop
         style="stop-color:#ffffff;stop-opacity:0.0781893"
         offset="1"
         id="stop3770" />
    </linearGradient>
    <linearGradient
       inkscape:collect="always"
       xlink:href="#linearGradient3810"
       id="linearGradient3816"
       x1="155.15399"
       y1="1084.9939"
       x2="155.87643"
       y2="1125.4464"
       gradientUnits="userSpaceOnUse" />
    <filter
       inkscape:collect="always"
       id="filter3911"
       color-interpolation-filters="sRGB">
      <feGaussianBlur
         inkscape:collect="always"
         stdDeviation="0.15157971"
         id="feGaussianBlur3913" />
    </filter>
    <filter
       inkscape:collect="always"
       id="filter3923"
       color-interpolation-filters="sRGB">
      <feGaussianBlur
         inkscape:collect="always"
         stdDeviation="0.049679759"
         id="feGaussianBlur3925" />
    </filter>
    <filter
       inkscape:collect="always"
       id="filter3939"
       x="-0.45926091"
       width="1.9185218"
       y="-0.58873487"
       height="2.1774697"
       color-interpolation-filters="sRGB">
      <feGaussianBlur
         inkscape:collect="always"
         stdDeviation="1.2308987"
         id="feGaussianBlur3941" />
    </filter>
    <radialGradient
       inkscape:collect="always"
       xlink:href="#linearGradient3897"
       id="radialGradient3948"
       gradientUnits="userSpaceOnUse"
       gradientTransform="matrix(2.7582268,-0.65801904,0.31565781,1.323147,-590.99583,-211.55673)"
       cx="160.0761"
       cy="980.63702"
       fx="160.0761"
       fy="980.63702"
       r="5.3349285" />
    <linearGradient
       inkscape:collect="always"
       xlink:href="#linearGradient3810"
       id="linearGradient3966"
       x1="140.7653"
       y1="1071.6986"
       x2="141.36151"
       y2="1123.762"
       gradientUnits="userSpaceOnUse" />
    <linearGradient
       inkscape:collect="always"
       xlink:href="#linearGradient4032"
       id="linearGradient3974"
       x1="126.28883"
       y1="1072.2157"
       x2="126.4106"
       y2="1108.9507"
       gradientUnits="userSpaceOnUse" />
    <linearGradient
       inkscape:collect="always"
       xlink:href="#linearGradient4024"
       id="linearGradient3982"
       x1="93.029816"
       y1="1060.782"
       x2="93.946365"
       y2="1127.1163"
       gradientUnits="userSpaceOnUse" />
    <linearGradient
       inkscape:collect="always"
       xlink:href="#linearGradient3992"
       id="linearGradient3990"
       x1="141.43698"
       y1="1074.4297"
       x2="140.06863"
       y2="1130.1927"
       gradientUnits="userSpaceOnUse" />
    <linearGradient
       inkscape:collect="always"
       xlink:href="#linearGradient4040"
       id="linearGradient4006"
       x1="126.44885"
       y1="1064.328"
       x2="126.95367"
       y2="1128.8124"
       gradientUnits="userSpaceOnUse" />
    <linearGradient
       inkscape:collect="always"
       xlink:href="#linearGradient4016"
       id="linearGradient4014"
       x1="110.22603"
       y1="1061.5084"
       x2="108.51913"
       y2="1127.0499"
       gradientUnits="userSpaceOnUse" />
    <radialGradient
       inkscape:collect="always"
       xlink:href="#linearGradient3766"
       id="radialGradient4054"
       gradientUnits="userSpaceOnUse"
       gradientTransform="matrix(1.3253127,0.20059292,-0.05485945,0.36245509,27.56849,676.38447)"
       cx="99.73632"
       cy="1093.959"
       fx="99.73632"
       fy="1093.959"
       r="72.286209" />
    <radialGradient
       inkscape:collect="always"
       xlink:href="#linearGradient3766"
       id="radialGradient4191"
       gradientUnits="userSpaceOnUse"
       gradientTransform="matrix(1.3253127,0.20059292,-0.05485945,0.36245509,27.56849,676.38447)"
       cx="99.73632"
       cy="1093.959"
       fx="99.73632"
       fy="1093.959"
       r="72.286209" />
    <linearGradient
       inkscape:collect="always"
       xlink:href="#linearGradient3992"
       id="linearGradient4193"
       gradientUnits="userSpaceOnUse"
       x1="141.43698"
       y1="1074.4297"
       x2="140.06863"
       y2="1130.1927" />
    <radialGradient
       inkscape:collect="always"
       xlink:href="#linearGradient3897"
       id="radialGradient4195"
       gradientUnits="userSpaceOnUse"
       gradientTransform="matrix(2.7582268,-0.65801904,0.31565781,1.323147,-590.99583,-211.55673)"
       cx="160.0761"
       cy="980.63702"
       fx="160.0761"
       fy="980.63702"
       r="5.3349285" />
    <linearGradient
       inkscape:collect="always"
       xlink:href="#linearGradient3810"
       id="linearGradient4197"
       gradientUnits="userSpaceOnUse"
       x1="155.15399"
       y1="1084.9939"
       x2="155.87643"
       y2="1125.4464" />
    <linearGradient
       inkscape:collect="always"
       xlink:href="#linearGradient3810"
       id="linearGradient4199"
       gradientUnits="userSpaceOnUse"
       x1="140.7653"
       y1="1071.6986"
       x2="141.36151"
       y2="1123.762" />
    <linearGradient
       inkscape:collect="always"
       xlink:href="#linearGradient4040"
       id="linearGradient4201"
       gradientUnits="userSpaceOnUse"
       x1="126.44885"
       y1="1064.328"
       x2="126.95367"
       y2="1128.8124" />
    <linearGradient
       inkscape:collect="always"
       xlink:href="#linearGradient4032"
       id="linearGradient4203"
       gradientUnits="userSpaceOnUse"
       x1="126.28883"
       y1="1072.2157"
       x2="126.4106"
       y2="1108.9507" />
    <linearGradient
       inkscape:collect="always"
       xlink:href="#linearGradient4016"
       id="linearGradient4205"
       gradientUnits="userSpaceOnUse"
       x1="110.22603"
       y1="1061.5084"
       x2="108.51913"
       y2="1127.0499" />
    <linearGradient
       inkscape:collect="always"
       xlink:href="#linearGradient4024"
       id="linearGradient4207"
       gradientUnits="userSpaceOnUse"
       x1="93.029816"
       y1="1060.782"
       x2="93.946365"
       y2="1127.1163" />
  </defs>
  <sodipodi:namedview
     id="base"
     pagecolor="#ffffff"
     bordercolor="#666666"
     borderopacity="1.0"
     inkscape:pageopacity="0.0"
     inkscape:pageshadow="2"
     inkscape:zoom="3.8017075"
     inkscape:cx="76.66783"
     inkscape:cy="-0.26304015"
     inkscape:document-units="px"
     inkscape:current-layer="layer1"
     showgrid="false"
     showguides="true"
     inkscape:guide-bbox="true"
     inkscape:window-width="1752"
     inkscape:window-height="999"
     inkscape:window-x="66"
     inkscape:window-y="24"
     inkscape:window-maximized="0"
     fit-margin-top="0"
     fit-margin-left="0"
     fit-margin-right="0"
     fit-margin-bottom="0" />
  <metadata
     id="metadata7">
    <rdf:RDF>
      <cc:Work
         rdf:about="">
        <dc:format>image/svg+xml</dc:format>
        <dc:type
           rdf:resource="http://purl.org/dc/dcmitype/StillImage" />
        <dc:title></dc:title>
      </cc:Work>
    </rdf:RDF>
  </metadata>
  <g
     inkscape:label="Layer 1"
     inkscape:groupmode="layer"
     id="layer1"
     transform="translate(-25.236951,-921.39918)">
    <g
       id="g4148"
       transform="translate(-1.5782382,-133.36113)">
      <path
         sodipodi:nodetypes="cccscsscsszcczzsssscscsscsccczccc"
         inkscape:connector-curvature="0"
         id="path3764"
         d="m 171.24932,1107.801 c 0,-1.8793 -0.93964,-0.9396 -2.11419,-1.8793 -1.17455,-0.9396 -2.11419,-1.6444 -2.11419,-1.6444 0.021,0.021 -3.04834,-4.9276 -4.22838,-8.2218 -1.07749,-3.0079 -8.92658,-14.3295 -11.27568,-17.3833 -2.34909,-3.0539 -3.28873,-3.9935 -10.57094,-7.7521 -7.2822,-3.7585 -28.89392,-12.6851 -41.813954,-14.3295 -12.92005,-1.6443 -29.363743,-2.3491 -38.525229,-1.4094 -9.161487,0.9396 -9.271914,1.7296 -10.916283,6.1929 -1.64437,4.4632 -1.10629,10.4586 -0.594303,14.0093 0.466965,3.2385 1.668839,6.3776 3.523649,7.987 1.85481,1.6094 4.463288,2.8189 4.463288,2.8189 0,0 -0.46982,1.4094 -4.228378,-0.2349 -3.758559,-1.6444 -6.992065,-4.0377 -9.161487,-4.9331 -2.169422,-0.8954 -4.789061,-3.292 -7.047297,-3.5237 -2.258236,-0.2317 -4.310693,1.3543 -5.955063,3.9383 -1.644369,2.584 -2.336053,3.2033 -3.040782,9.311 -0.70473,6.1076 0.624036,10.2181 1.340189,13.6118 0.760954,3.6059 1.547998,5.0867 2.487638,5.5565 0.93964,0.4698 5.637838,1.1745 8.691667,-0.7047 3.053828,-1.8793 6.812387,-3.5237 9.866216,-3.9935 3.053829,-0.4698 4.463288,-0.9397 4.463288,-0.9397 0,0 -0.70473,0.235 -3.523649,3.5237 -2.818919,3.2887 -5.168018,9.8662 -4.933108,12.6851 0.23491,2.819 0.70473,5.403 4.463289,6.8124 3.758558,1.4095 14.094594,2.1142 20.202252,2.584 6.107657,0.4698 48.626357,1.8793 57.318007,0.7048 8.69168,-1.1746 22.78626,-5.403 25.84009,-7.0473 3.05384,-1.6444 13.62478,-6.3426 15.26915,-7.7521 1.64438,-1.4094 2.577,-3.3322 2.81892,-4.4633 0.24192,-1.1311 -0.23491,-1.6443 -0.23491,-1.6443 l -2.3491,1.1745 z"
         style="fill:#020000;fill-opacity:1;stroke:none" />
      <path
         style="opacity:0.39506172;fill:url(#radialGradient4191);fill-opacity:1;stroke:none"
         d="m 171.24933,1107.801 c 0,-1.8793 -0.93964,-0.9396 -2.11419,-1.8793 -1.17455,-0.9396 -2.11419,-1.6444 -2.11419,-1.6444 0.021,0.021 -3.04834,-4.9276 -4.22838,-8.2218 -1.07749,-3.0079 -8.92658,-14.3295 -11.27568,-17.3833 -2.34909,-3.0539 -3.28873,-3.9935 -10.57094,-7.7521 -7.2822,-3.7585 -28.89392,-12.6851 -41.813964,-14.3295 -12.920051,-1.6443 -29.363744,-2.3491 -38.52523,-1.4094 -9.161487,0.9396 -9.271914,1.7296 -10.916283,6.1929 -1.64437,4.4632 -1.10629,10.4586 -0.594303,14.0093 0.466965,3.2385 1.668839,6.3776 3.523649,7.987 1.85481,1.6094 4.463288,2.8189 4.463288,2.8189 0,0 -0.46982,1.4094 -4.228378,-0.2349 -3.758559,-1.6444 -6.992065,-4.0377 -9.161487,-4.9331 -2.169422,-0.8954 -4.789061,-3.292 -7.047297,-3.5237 -2.258236,-0.2317 -4.310693,1.3543 -5.955063,3.9383 -1.644369,2.584 -2.336053,3.2033 -3.040782,9.311 -0.70473,6.1076 0.624036,10.2181 1.340189,13.6118 0.760954,3.6059 1.547998,5.0867 2.487638,5.5565 0.93964,0.4698 5.637838,1.1745 8.691667,-0.7047 3.053828,-1.8793 6.812387,-3.5237 9.866216,-3.9935 3.053829,-0.4698 4.463288,-0.9397 4.463288,-0.9397 0,0 -0.70473,0.235 -3.523649,3.5237 -2.818919,3.2887 -5.168018,9.8662 -4.933108,12.6851 0.23491,2.819 0.70473,5.403 4.463289,6.8124 3.758558,1.4095 14.094594,2.1142 20.202252,2.584 6.107653,0.4698 48.626368,1.8793 57.318018,0.7048 8.69168,-1.1746 22.78626,-5.403 25.84009,-7.0473 3.05384,-1.6444 13.62478,-6.3426 15.26915,-7.7521 1.64438,-1.4094 2.577,-3.3322 2.81892,-4.4633 0.24192,-1.1311 -0.23491,-1.6443 -0.23491,-1.6443 l -2.3491,1.1745 z"
         id="path3786"
         inkscape:connector-curvature="0"
         sodipodi:nodetypes="cccscsscsszcczzsssscscsscsccczccc" />
      <path
         inkscape:connector-curvature="0"
         id="path3790"
         d="m 146.93993,1075.0903 c 0,0 2.90708,4.4928 2.37852,8.457 -0.52856,3.9642 0.79284,6.8713 1.05712,10.3069 0.26428,3.4357 -0.79284,5.2856 0,8.457 0.79284,3.1714 0.79284,7.3999 0.79284,10.3069 0,2.9071 -1.3214,8.457 -1.3214,8.457 0,0 -0.52856,-0.2643 -2.11424,1.0571 -1.58569,1.3214 -4.75705,3.9642 -6.87129,4.4928 -2.11425,0.5286 -5.81417,3.1714 -10.04266,3.1714 -4.22849,0 -1.3214,-1.85 2.90708,-2.3786 4.22849,-0.5285 11.09978,-6.3427 11.09978,-6.3427 0,0 2.11425,0.7929 2.64281,-0.2643 0.52856,-1.0571 -1.05713,-4.2285 0,-8.1927 1.05712,-3.9642 1.05712,-10.5712 1.05712,-15.3282 0,-4.7571 -1.84997,-15.5926 -1.58568,-17.1783 0.26428,-1.5856 0,-5.0213 0,-5.0213 z"
         style="fill:url(#linearGradient4193);fill-opacity:1;stroke:none" />
      <g
         transform="translate(-3.699926,121.30472)"
         id="g3943">
        <rect
           style="color:#000000;fill:url(#radialGradient4195);fill-opacity:1;fill-rule:nonzero;stroke:none;stroke-width:4;marker:none;visibility:visible;display:inline;overflow:visible;filter:url(#filter3911);enable-background:accumulate"
           id="rect3877"
           width="10.669857"
           height="9.5407715"
           x="154.74117"
           y="975.86664"
           ry="4.4881144" />
        <rect
           ry="2.4557607"
           y="986.89075"
           x="88.440895"
           height="4.9115214"
           width="6.4357872"
           id="rect3879"
           style="color:#000000;fill:#deddb8;fill-opacity:1;fill-rule:nonzero;stroke:none;stroke-width:4;marker:none;visibility:visible;display:inline;overflow:visible;filter:url(#filter3939);enable-background:accumulate"
           transform="matrix(0.9975805,-0.06952084,0.06952084,0.9975805,0,0)" />
        <rect
           style="color:#000000;fill:#061731;fill-opacity:1;fill-rule:nonzero;stroke:none;stroke-width:4;marker:none;visibility:visible;display:inline;overflow:visible;filter:url(#filter3923);enable-background:accumulate"
           id="rect3875"
           width="5.0244303"
           height="4.9115214"
           x="157.73323"
           y="978.12482"
           ry="2.4557607" />
      </g>
      <path
         inkscape:connector-curvature="0"
         id="path3800"
         d="m 152.72803,1084.9087 c 1.38468,1.7308 3.37516,4.3271 3.72133,5.0195 0.34617,0.6923 0.25963,1.9904 0.51925,2.6828 0.25963,0.6923 2.59628,2.8559 4.0675,4.3271 1.47123,1.4712 2.16357,1.7309 1.8174,4.0675 -0.34617,2.3366 -1.03851,3.5482 -1.47123,5.0195 -0.43271,1.4712 -0.77888,2.6828 -0.51925,3.3751 0.25962,0.6924 1.55776,0.3462 0.25962,1.7309 -1.29813,1.3847 -3.11553,5.3656 -3.63478,6.7503 -0.51926,1.3847 -0.6058,2.5963 -2.50974,3.7213 -1.90393,1.1251 -8.56771,3.8944 -8.56771,3.8944 0,0 7.18303,-3.2886 8.135,-4.6733 0.95197,-1.3846 2.59628,-6.0579 3.72133,-7.0964 1.12505,-1.0386 2.59628,-2.1636 1.90394,-3.4617 -0.69234,-1.2982 -1.03851,-1.8174 -0.69234,-3.029 0.34617,-1.2116 1.21159,-1.7309 1.55776,-2.8559 0.34617,-1.1251 1.55777,-2.7694 0.77889,-4.0675 -0.77889,-1.2982 -1.64431,-1.4713 -2.59628,-2.8559 -0.95197,-1.3847 -2.16356,-1.9905 -2.59628,-3.8079 -0.43271,-1.8174 -3.89441,-8.7408 -3.89441,-8.7408 z"
         style="fill:url(#linearGradient4197);fill-opacity:1;stroke:none" />
      <path
         inkscape:connector-curvature="0"
         id="path3950"
         d="m 137.37992,1072.7931 c 1.49883,0.281 2.8103,0.4683 2.8103,1.4051 0,0.9368 0.74942,4.0281 1.12412,6.8384 0.37471,2.8103 1.2178,13.0211 1.87354,17.7049 0.65574,4.6839 0.0937,11.5223 0.28103,14.1453 0.18736,2.6229 1.96722,4.4028 0.46839,5.9016 -1.49883,1.4988 -4.12179,2.2482 -4.49649,2.5293 -0.37471,0.281 2.71663,-1.5925 3.46604,-2.5293 0.74942,-0.9368 0.84309,-2.623 0.18735,-5.2459 -0.65573,-2.623 0.46839,-8.3372 0.18736,-11.7096 -0.28103,-3.3724 -1.59251,-8.8056 -1.68619,-12.2717 -0.0937,-3.466 -1.5925,-12.178 -1.77986,-13.2084 -0.18735,-1.0305 0.74942,-1.7799 -0.3747,-1.8736 -1.12413,-0.094 -2.90399,-0.6557 -2.90399,-0.6557 z"
         style="fill:url(#linearGradient4199);fill-opacity:1;stroke:none" />
      <path
         inkscape:connector-curvature="0"
         id="path3952"
         d="m 114.0277,1064.4558 c 3.6534,1.2178 16.67448,6.5574 18.82905,9.7424 2.15457,3.185 5.05855,10.4918 4.68384,14.1452 -0.3747,3.6534 -0.84309,7.5878 -0.0937,8.993 0.74941,1.4051 1.5925,3.2787 0.84309,7.0258 -0.74942,3.747 0.93677,10.5854 -0.74942,14.1452 -1.68618,3.5597 -7.96253,6.8384 -11.52225,7.7751 -3.55972,0.9368 -8.61827,1.8736 -8.61827,1.8736 0,0 11.99064,-3.4661 14.33256,-4.7775 2.34192,-1.3115 5.15223,-3.185 5.33958,-6.089 0.18735,-2.904 -0.0937,-11.0539 0,-12.8338 0.0937,-1.7798 1.40515,-3.9344 0.28103,-5.6206 -1.12412,-1.6862 -1.49883,-1.5925 -1.49883,-3.8407 0,-2.2483 0.37471,-7.6815 0,-10.0234 -0.37471,-2.342 -1.03044,-7.6816 -4.30913,-9.8361 -3.2787,-2.1546 -9.36769,-5.9953 -11.24123,-7.0258 -1.87354,-1.0304 -6.27635,-3.6534 -6.27635,-3.6534 z"
         style="fill:url(#linearGradient4201);fill-opacity:1;stroke:none" />
      <path
         inkscape:connector-curvature="0"
         id="path3954"
         d="m 120.21037,1071.8563 c 2.99766,1.9672 10.49181,8.8056 10.67917,14.8009 0.18735,5.9954 -1.59251,22.0141 -1.59251,22.0141 l -0.84309,0.3747 c 0,0 1.49883,-13.5831 1.31147,-17.0492 -0.18735,-3.466 0.28104,-8.7119 -3.27869,-13.0211 -3.55972,-4.3091 -6.27635,-7.1194 -6.27635,-7.1194 z"
         style="fill:url(#linearGradient4203);fill-opacity:1;stroke:none" />
      <path
         inkscape:connector-curvature="0"
         id="path3956"
         d="m 93.576366,1061.6722 c 4.871196,1.2178 10.960194,2.9039 16.018744,9.3677 5.05855,6.4637 13.95785,14.0515 12.83373,22.8571 -1.12412,8.8056 -2.62295,15.2693 -7.58783,20.1405 -4.96487,4.8712 -15.456678,13.4895 -15.456678,13.4895 0,0 -2.4356,0.9368 -2.06089,0 0.37471,-0.9368 -0.46839,-1.7799 1.68618,-3.5597 2.154568,-1.7799 11.522258,-9.3677 14.613588,-13.6768 3.09134,-4.3092 5.62061,-12.2717 5.05855,-16.5808 -0.56206,-4.3092 -3.37236,-12.4591 -7.02576,-16.7682 -3.6534,-4.3091 -6.37003,-8.712 -9.08666,-10.3981 -2.716628,-1.6862 -8.992974,-4.8712 -8.992974,-4.8712 z"
         style="fill:url(#linearGradient4205);fill-opacity:1;stroke:none" />
      <path
         inkscape:connector-curvature="0"
         id="path3958"
         d="m 76.908707,1059.986 c 6.838412,0.4684 16.674482,4.4028 20.983622,10.4918 4.309131,6.089 10.772831,10.6792 10.585481,20.7963 -0.18735,10.1171 -0.37471,16.3934 -4.49649,20.6089 -4.121781,4.2154 -9.742391,10.6791 -10.491811,12.74 -0.749411,2.0609 -1.405149,1.9672 -1.405149,1.9672 0,0 -0.281031,-2.2482 1.779859,-4.4965 2.06089,-2.2482 7.119441,-7.0257 9.367691,-11.8032 2.24824,-4.7776 5.05855,-8.2436 4.21546,-15.4567 -0.8431,-7.2131 -3.93443,-16.0188 -7.40048,-20.2342 -3.466041,-4.2155 -5.807961,-7.9626 -9.929745,-9.8361 -4.121782,-1.8735 -13.208438,-4.7775 -13.208438,-4.7775 z"
         style="fill:url(#linearGradient4207);fill-opacity:1;stroke:none" />
      <g
         style="opacity:0.83673473"
         transform="translate(-17.971069,125.53321)"
         id="g3865">
        <path
           style="fill:#85bfce;fill-opacity:1;stroke:none"
           d="m 147.11456,982.73111 c 0.47304,3.21665 0.75686,5.29802 -0.66225,7.5686 -1.49082,2.38532 -5.58184,5.67644 -8.70389,5.86566 -3.12204,0.18921 -6.81173,-1.04069 -8.32545,-2.93283 -1.51372,-1.89215 -1.70293,-3.68969 -1.70293,-4.73038 0,-1.04068 0.0946,-2.17597 0.0946,-2.17597 0,0 3.7843,0.47304 7.00095,0.56765 3.21666,0.0946 6.14949,-1.04068 7.94703,-1.89215 1.79754,-0.85147 4.35194,-2.27058 4.35194,-2.27058 z"
           id="path3839"
           inkscape:connector-curvature="0"
           sodipodi:nodetypes="csssscssc" />
        <path
           style="color:#000000;fill:#62a4bc;fill-opacity:1;fill-rule:nonzero;stroke:none;stroke-width:4;marker:none;visibility:visible;display:inline;overflow:visible;enable-background:accumulate"
           id="path3843"
           d="m 146.29044,82.558374 c 0.002,0.324314 -0.0104,0.646351 -0.0571,0.967474 -0.0536,0.331058 -0.11873,0.66015 -0.18746,0.988361 -0.0696,0.354532 -0.16307,0.703713 -0.23637,1.057425 -0.0645,0.317677 -0.15239,0.629386 -0.24405,0.940041 -0.0786,0.28235 -0.14588,0.567414 -0.21483,0.852213 -0.046,0.254884 -0.10464,0.507408 -0.15104,0.762237 -0.0337,0.192731 -0.041,0.388394 -0.0451,0.583564 0,0 -0.99954,0.50706 -0.99954,0.50706 l 0,0 c 0.003,-0.200655 0.008,-0.401905 0.0396,-0.600516 0.0445,-0.258269 0.11397,-0.511186 0.15239,-0.770625 0.0695,-0.28645 0.13763,-0.572958 0.21332,-0.857728 0.0921,-0.308957 0.18544,-0.617569 0.25195,-0.933395 0.0728,-0.353746 0.16563,-0.702862 0.23448,-1.05741 0.0714,-0.326239 0.13306,-0.654638 0.19171,-0.983383 0.0517,-0.313204 0.07,-0.628114 0.0513,-0.9454 0,0 1.00077,-0.509918 1.00077,-0.509918 z"
           inkscape:connector-curvature="0"
           transform="translate(0,902.36218)" />
        <path
           style="color:#000000;fill:#62a4bc;fill-opacity:1;fill-rule:nonzero;stroke:none;stroke-width:4;marker:none;visibility:visible;display:inline;overflow:visible;enable-background:accumulate"
           id="path3845"
           d="m 144.2083,83.043121 c -0.0131,0.445749 -0.0543,0.890088 -0.10323,1.333153 -0.0394,0.494103 -0.12315,0.981207 -0.22314,1.465993 -0.0984,0.433256 -0.22239,0.86003 -0.35439,1.284068 -0.12889,0.372623 -0.26136,0.745759 -0.41412,1.109425 -0.16371,0.398589 -0.37361,0.776079 -0.57052,1.15885 -0.16421,0.316134 -0.29699,0.646959 -0.45569,0.965734 -0.0849,0.199954 -0.19729,0.385969 -0.2903,0.581945 -0.0835,0.197244 -0.15847,0.396508 -0.20204,0.606448 -0.008,0.03691 -0.0162,0.07381 -0.0243,0.110723 0,0 -1.00737,0.485564 -1.00737,0.485564 l 0,0 c 0.008,-0.0355 0.0163,-0.071 0.0245,-0.106506 0.0374,-0.219463 0.10951,-0.425552 0.19296,-0.631489 0.0862,-0.201656 0.20243,-0.386181 0.28945,-0.587167 0.16501,-0.320038 0.31276,-0.64766 0.46819,-0.972598 0.19887,-0.379151 0.40399,-0.757117 0.57193,-1.15099 0.15985,-0.357468 0.27941,-0.732898 0.41865,-1.098636 0.13262,-0.422425 0.26262,-0.845375 0.36405,-1.276728 0.10108,-0.481811 0.19397,-0.96489 0.2284,-1.457115 0.0494,-0.435071 0.0978,-0.873168 0.0878,-1.311542 0,0 0.99923,-0.509132 0.99923,-0.509132 z"
           inkscape:connector-curvature="0"
           transform="translate(0,902.36218)" />
        <path
           style="color:#000000;fill:#62a4bc;fill-opacity:1;fill-rule:nonzero;stroke:none;stroke-width:4;marker:none;visibility:visible;display:inline;overflow:visible;enable-background:accumulate"
           id="path3847"
           d="m 141.93772,84.651447 c -0.001,0.438404 -0.0747,0.87056 -0.14642,1.301531 -0.10264,0.529301 -0.21413,1.057524 -0.35981,1.576822 -0.121,0.412153 -0.27359,0.813258 -0.41974,1.216788 -0.12368,0.314613 -0.23871,0.633182 -0.39005,0.935828 -0.13488,0.262757 -0.29544,0.510142 -0.45515,0.758013 -0.14698,0.224875 -0.28315,0.455699 -0.38956,0.702638 -0.0787,0.215001 -0.21292,0.401581 -0.30425,0.610485 -0.23278,0.712862 -0.10773,0.404468 -1.1584,1.018301 -0.0953,-0.104342 -0.0537,-0.04772 -0.1248,-0.169858 0,0 0.96995,-0.564 0.96995,-0.564 l 0,0 c 0.0413,0.06072 0.026,0.07534 0.047,0.04268 -1.85117,1.126355 -0.98105,0.790587 -0.83918,0.431889 0.0369,-0.09323 0.0596,-0.19374 0.0893,-0.289285 0.0802,-0.216944 0.2161,-0.40048 0.30667,-0.612424 0.0994,-0.255038 0.23288,-0.493386 0.3846,-0.720803 0.15075,-0.251927 0.32835,-0.488092 0.45973,-0.752346 0.16785,-0.291711 0.26948,-0.61528 0.40187,-0.923723 0.14733,-0.403785 0.30452,-0.803653 0.43217,-1.214377 0.15245,-0.514457 0.26008,-1.040034 0.36655,-1.565615 0.0675,-0.421212 0.14715,-0.844825 0.13027,-1.273415 0,0 0.99922,-0.509133 0.99922,-0.509133 z"
           inkscape:connector-curvature="0"
           transform="translate(0,902.36218)" />
        <path
           style="color:#000000;fill:#62a4bc;fill-opacity:1;fill-rule:nonzero;stroke:none;stroke-width:4;marker:none;visibility:visible;display:inline;overflow:visible;enable-background:accumulate"
           id="path3849"
           d="m 139.55915,85.306654 c -0.10886,0.330393 -0.21364,0.662092 -0.30816,0.996892 -0.11947,0.430626 -0.24375,0.859901 -0.36358,1.290422 -0.11614,0.408305 -0.25599,0.809879 -0.39991,1.209171 -0.12507,0.342812 -0.31003,0.657985 -0.47509,0.982048 -0.16951,0.358932 -0.39183,0.68846 -0.61462,1.015682 -0.20673,0.291688 -0.38455,0.602114 -0.56523,0.910214 -0.11719,0.188206 -0.20474,0.39107 -0.32251,0.578782 -0.0651,0.114235 -0.11438,0.236794 -0.169,0.356349 0,0 -1.02775,0.461055 -1.02775,0.461055 l 0,0 c 0.0724,-0.11434 0.115,-0.242071 0.17143,-0.364305 0.11535,-0.19135 0.22328,-0.383359 0.33087,-0.579505 0.18058,-0.31279 0.36763,-0.62289 0.57046,-0.921777 0.22379,-0.320857 0.44642,-0.645631 0.61524,-0.999577 0.16257,-0.324008 0.35119,-0.634981 0.48565,-0.972511 0.14663,-0.396758 0.2849,-0.797355 0.40638,-1.20246 0.11826,-0.430223 0.2447,-0.858185 0.36071,-1.289031 0.0901,-0.332922 0.19797,-0.660456 0.28739,-0.993493 0,0 1.01772,-0.477956 1.01772,-0.477956 z"
           inkscape:connector-curvature="0"
           transform="translate(0,902.36218)" />
        <path
           style="color:#000000;fill:#62a4bc;fill-opacity:1;fill-rule:nonzero;stroke:none;stroke-width:4;marker:none;visibility:visible;display:inline;overflow:visible;enable-background:accumulate"
           id="path3859"
           d="m 137.4584,85.234065 c -0.15004,0.299582 -0.32183,0.586215 -0.49128,0.874871 -0.13361,0.257118 -0.30476,0.490565 -0.46975,0.727692 -0.16042,0.23779 -0.32619,0.471984 -0.49714,0.702316 -0.19458,0.257855 -0.38139,0.521394 -0.57418,0.780502 -0.22575,0.286665 -0.42876,0.59002 -0.64135,0.886296 -0.15539,0.223242 -0.34551,0.41782 -0.52969,0.616783 -0.15094,0.156956 -0.29693,0.318622 -0.43492,0.487106 -0.12592,0.154923 -0.26924,0.294094 -0.39804,0.446629 -0.0206,0.02505 -0.0413,0.0501 -0.0619,0.07514 0,0 -1.03237,0.435758 -1.03237,0.435758 l 0,0 c 0.0217,-0.02333 0.0433,-0.04666 0.065,-0.06999 0.11828,-0.161999 0.26413,-0.298954 0.39692,-0.447909 0.13712,-0.171939 0.28054,-0.337911 0.43439,-0.495292 0.18552,-0.198734 0.38032,-0.389281 0.54275,-0.607903 0.21719,-0.29369 0.41675,-0.600068 0.64065,-0.888861 0.19894,-0.252523 0.37431,-0.5236 0.57099,-0.778255 0.17344,-0.226391 0.33808,-0.459847 0.49555,-0.697562 0.16704,-0.235325 0.34295,-0.46554 0.47963,-0.720618 0.16077,-0.28968 0.35488,-0.561141 0.48055,-0.870152 0,0 1.02421,-0.456552 1.02421,-0.456552 z"
           inkscape:connector-curvature="0"
           transform="translate(0,902.36218)" />
        <path
           style="color:#000000;fill:#62a4bc;fill-opacity:1;fill-rule:nonzero;stroke:none;stroke-width:4;marker:none;visibility:visible;display:inline;overflow:visible;enable-background:accumulate"
           id="path3861"
           d="m 135.45972,86.075295 c -0.31656,0.205028 -0.58997,0.467555 -0.85668,0.732126 -0.27885,0.297937 -0.56901,0.583387 -0.87029,0.858466 -0.26402,0.2538 -0.54731,0.48575 -0.82346,0.725881 -0.22669,0.182636 -0.44677,0.374662 -0.68569,0.541317 -0.53806,0.360674 -1.10789,0.670437 -1.66886,0.99309 -0.18766,0.08316 -0.36353,0.188671 -0.5494,0.276247 -0.23177,0.09655 -0.47499,0.155516 -0.72181,0.197714 0,0 0.8899,-0.671977 0.8899,-0.671977 l 0,0 c 0.24272,-0.0492 0.48269,-0.115816 0.70658,-0.223766 0.18195,-0.09107 0.35938,-0.190979 0.54304,-0.278741 -1.70198,0.988912 -0.61687,0.369389 -0.23761,0.11342 0.24781,-0.156407 0.46428,-0.353474 0.69759,-0.530208 0.27533,-0.242331 0.5622,-0.471098 0.82727,-0.724927 0.30162,-0.275091 0.60004,-0.552304 0.87506,-0.85465 0.26006,-0.265072 0.52591,-0.528379 0.82873,-0.744865 0,0 1.04563,-0.409127 1.04563,-0.409127 z"
           inkscape:connector-curvature="0"
           transform="translate(0,902.36218)" />
        <path
           style="color:#000000;fill:#62a4bc;fill-opacity:1;fill-rule:nonzero;stroke:none;stroke-width:4;marker:none;visibility:visible;display:inline;overflow:visible;enable-background:accumulate"
           id="path3863"
           d="m 133.09454,85.791472 c -0.61593,0.389516 -1.24299,0.762593 -1.88997,1.098569 -0.30452,0.158777 -0.62018,0.297803 -0.94752,0.402049 -0.30335,0.104894 -0.60815,0.20733 -0.91858,0.289811 -0.30184,0.0916 -0.5972,0.202975 -0.89851,0.296877 -0.16834,0.04457 -0.0851,0.02483 -0.24959,0.05966 0,0 0.88837,-0.67651 0.88837,-0.67651 l 0,0 c 0.15899,-0.03925 0.0784,-0.01763 0.24172,-0.06525 0.29923,-0.09706 0.59511,-0.204764 0.89765,-0.29113 0.30778,-0.08975 0.6126,-0.18956 0.91536,-0.294968 0.32079,-0.115012 0.63346,-0.251601 0.93382,-0.413039 0.40868,-0.213981 0.33167,-0.177118 -0.6036,0.365035 -0.0566,0.03281 0.11171,-0.06813 0.16726,-0.10269 0.0529,-0.03291 0.10536,-0.06649 0.15804,-0.09973 0.049,-0.0295 0.0983,-0.05857 0.14709,-0.0885 0.0379,-0.02325 0.0752,-0.04737 0.11282,-0.07106 0,0 1.04564,-0.409127 1.04564,-0.409127 z"
           inkscape:connector-curvature="0"
           transform="translate(0,902.36218)" />
      </g>
      <path
         inkscape:connector-curvature="0"
         id="path4056"
         d="m 61.027066,1060.0331 c 5.892958,0.3996 20.375649,2.0975 23.971352,5.3936 3.595703,3.2961 11.286512,12.6848 13.184244,17.7788 1.897728,5.0939 4.794268,17.4791 1.398328,23.5718 -3.395941,6.0927 -10.587347,16.6801 -13.483885,18.5778 -2.896538,1.8977 -8.789496,2.8965 -8.789496,2.8965 0,0 5.393555,-2.2972 8.589735,-6.4922 3.19618,-4.195 9.788302,-10.6872 10.687227,-16.3804 0.898926,-5.6932 3.595699,-7.3912 1.398329,-15.5814 -2.197374,-8.1902 -8.789495,-19.0772 -13.783527,-21.6741 -4.994032,-2.5969 -12.984482,-4.7943 -16.779946,-5.7931 -3.795464,-0.9988 -6.392361,-2.2973 -6.392361,-2.2973 z"
         style="fill:#ffffff;fill-opacity:1;stroke:none" />
      <path
         sodipodi:nodetypes="ccsscscccsscscscscsc"
         inkscape:connector-curvature="0"
         id="path4058"
         d="m 54.790577,1064.9736 c 3.395942,0.2997 13.228134,2.3508 17.123478,4.2486 3.895345,1.8977 17.079588,11.686 18.677679,18.5778 1.59809,6.8917 2.097493,12.3852 0,16.68 -2.097494,4.2949 -8.389974,16.3805 -14.08317,18.6777 -5.693196,2.2973 -18.378036,1.3983 -20.57541,0.9988 -2.197374,-0.3995 -2.197374,-1.0987 -2.197374,-1.0987 0,0 1.997613,-0.799 7.590928,0 5.593316,0.7991 10.687228,1.4982 15.381618,-1.7978 4.694389,-3.2961 9.189018,-8.9893 11.286511,-14.8822 2.097493,-5.893 3.495822,-11.6861 2.097493,-16.1807 -1.398328,-4.4946 -8.290092,-13.4839 -13.883408,-16.6801 -5.593315,-3.1961 -10.830998,-6.1462 -13.527775,-6.346 -2.696777,-0.1998 -2.996419,0.3995 -5.493435,1.7978 -2.497015,1.3984 -3.895344,1.698 -4.994031,1.698 -1.098687,0 -2.097493,-0.6992 -2.097493,-0.6992 0,0 2.197373,0.899 4.394747,-0.6991 2.197374,-1.5981 3.0963,-2.6968 3.0963,-2.6968 0,0 -0.599284,0 -1.697971,-0.3995 -1.098687,-0.3995 -1.098687,-1.1986 -1.098687,-1.1986 z"
         style="fill:#06abf3;fill-opacity:1;stroke:none" />
      <path
         sodipodi:nodetypes="cssszzzccscsccsssscscsscc"
         inkscape:connector-curvature="0"
         id="path4060"
         d="m 54.537676,1072.7398 c 0,0 -1.697971,-0.9988 3.595702,0.6992 5.293674,1.698 4.835921,0.5517 8.626784,0.9066 1.993967,0.1867 8.121714,1.6863 10.646451,4.6859 2.780465,3.3033 5.926987,7.0188 6.923289,13.2234 0.996303,6.2046 -1.605634,13.763 -5.355409,17.7494 -3.749775,3.9864 -9.280962,7.8057 -15.150769,9.3579 -5.869807,1.5522 -4.439076,0.5451 -7.934898,0.7448 -3.495822,0.1998 -8.090331,0 -8.090331,0 0,0 3.995225,-1.3983 3.995225,-2.7966 0,-1.3984 -2.397135,-2.9965 -2.397135,-2.9965 0,0 2.696777,-0.3995 3.495822,0.6992 0.799045,1.0987 -2.796658,3.0963 0.299642,3.1962 3.0963,0.1 3.54015,1.1529 8.534182,-0.4451 4.994031,-1.5981 11.186631,-5.4935 14.882214,-9.1891 3.695583,-3.6955 6.614834,-11.4318 4.894151,-16.8798 -1.301864,-4.122 -2.403098,-7.4066 -7.104985,-11.6408 -4.109044,-3.7004 -4.977721,-3.6191 -10.271395,-4.1185 -5.293673,-0.4994 -6.192599,-2.2972 -7.091524,0.1 -0.898926,2.3971 1.59809,3.3959 1.69797,4.5945 0.09988,1.1986 -1.69797,2.2973 -1.69797,2.2973 0,0 0.699164,-0.3996 0.599283,-1.4983 -0.09988,-1.0986 -2.397135,-1.9976 -2.497015,-4.1949 -0.09988,-2.1974 0.699164,-3.2961 0.699164,-3.2961 z"
         style="fill:#ffffff;fill-opacity:1;stroke:none" />
      <path
         inkscape:connector-curvature="0"
         id="path4062"
         d="m 59.90429,1083.7664 c -1.133963,0.5132 -1.133963,0.171 1.214959,2.1383 2.348923,1.9671 7.370756,5.8161 7.289759,9.665 -0.081,3.8489 -2.510917,9.1518 -5.345823,10.6058 -2.834907,1.4541 -5.426821,4.3621 -7.775743,4.2766 -2.348922,-0.086 -2.429919,1.0264 -1.943936,1.1119 0.485984,0.086 3.239893,0.4277 5.669813,-0.9408 2.42992,-1.3685 6.884772,-3.9345 8.180729,-6.0727 1.295957,-2.1383 2.672911,-3.5068 2.753909,-6.3294 0.081,-2.8225 -1.619947,-8.2965 -3.968869,-9.9215 -2.348922,-1.6252 -6.074798,-4.5332 -6.074798,-4.5332 z"
         style="fill:#0073e0;fill-opacity:1;stroke:none" />
      <path
         inkscape:connector-curvature="0"
         id="path4064"
         d="m 54.550987,1086.6514 c 1.241313,0.085 1.383963,2.9188 1.597266,6.1239 0.21331,3.205 -0.828119,11.4504 -1.687493,11.3918 -0.85937,-0.059 0.211485,-5.2159 0.399494,-7.9753 0.188001,-2.7593 -0.309267,-9.5404 -0.309267,-9.5404 z"
         style="fill:#0e8ceb;fill-opacity:1;stroke:none" />
      <path
         inkscape:connector-curvature="0"
         id="path4066"
         d="m 49.956477,1085.0385 c 0.488759,0.273 0.902107,0.9302 0.155818,4.3259 -0.746289,3.3958 -1.16135,3.858 -1.164062,6.8244 -0.0027,2.9666 1.460859,6.752 1.043372,7.6058 -0.417476,0.8537 -0.994505,2.1952 -1.284802,1.0465 -0.290287,-1.1487 -1.273806,-4.9418 -1.063907,-8.5034 0.209899,-3.5615 0.293316,-4.3928 0.790359,-7.1417 0.497052,-2.749 1.523223,-4.1575 1.523223,-4.1575 z"
         style="fill:#0e8ceb;fill-opacity:1;stroke:none" />
      <path
         sodipodi:nodetypes="csssssssscc"
         inkscape:connector-curvature="0"
         id="path4068"
         d="m 44.591104,1082.3708 c -4.089667,3.5552 -4.038545,5.7771 -5.214325,8.999 -1.175779,3.2219 -2.453799,4.9439 -1.175779,7.7769 1.278021,2.833 2.607162,6.9437 3.885183,7.6659 1.27802,0.7221 1.993712,1.2776 1.993712,-0.1114 0,-1.3889 -2.453799,-3.3886 -3.629578,-6.7772 -1.17578,-3.3884 -1.2269,-3.3884 -0.255605,-6.3881 0.971296,-2.9997 0.817934,-4.2218 2.402679,-6.3327 1.584746,-2.1108 2.658284,-2.5553 3.016129,-3.4996 0.357846,-0.9444 1.17578,-1.5554 0.204484,-1.7776 -0.41995,0.1056 -0.852675,0.2119 -1.2269,0.4445 z"
         style="fill:#0e8ceb;fill-opacity:1;stroke:none" />
      <path
         sodipodi:nodetypes="cccccccccccccccccccccccccccccccccccscccccccccccccccccccccccscccccccccccc"
         inkscape:connector-curvature="0"
         d="m 29.248158,1086.087 c 0.116468,0.078 0.245993,0.1298 0.375299,0.1814 0.131407,0.053 0.265452,0.103 0.402547,0.1395 0.116688,0.045 0.241096,0.065 0.362869,0.093 0.188063,0.045 0.38062,0.059 0.571791,0.085 0.258623,0.049 0.520356,0.078 0.781301,0.1114 0.242757,0.039 0.485249,0.081 0.729379,0.1106 0.274191,0.029 0.550111,0.031 0.82549,0.035 0.291578,-0.01 0.582189,0.016 0.873155,0.031 0.193901,0 0.385209,0.028 0.577615,0.047 0.112344,0.011 0.22524,0.012 0.338012,0.013 0.104335,-0.011 0.20242,0.014 0.304074,0.031 0.09749,0.02 0.198661,0 0.294321,0.031 0.113631,0.054 0.174829,0.1725 0.217392,0.2853 0.0469,0.1105 0.06779,0.2269 0.08108,0.3453 0.007,0.1243 0.0318,0.2463 0.04427,0.37 0.01413,0.1318 0.0137,0.2643 0.01473,0.3966 2.02e-4,0.1427 -2.4e-5,0.2854 8.71e-4,0.4281 8.49e-4,0.1253 0.0012,0.2507 5.4e-5,0.3761 0.0048,0.1345 -1.85e-4,0.2672 -0.02351,0.3997 -0.03314,0.1312 -0.05445,0.2644 -0.06633,0.399 -0.009,0.1074 -0.0061,0.2151 -0.0113,0.3226 -0.0086,0.1054 -0.0399,0.2061 -0.06658,0.3078 -0.151785,0.4301 -1.16492,0.7744 -1.277904,0.8381 -0.121583,0.022 -0.246232,0.024 -0.36953,0.024 -0.140392,-10e-5 -0.280788,-9e-4 -0.421178,0 -0.15651,-6e-4 -0.313021,-7e-4 -0.469531,0 -0.209252,0 -0.418771,-0.018 -0.626051,-0.045 -0.261103,-0.029 -0.521069,-0.065 -0.782886,-0.087 -0.220634,-0.034 -0.442754,-0.054 -0.665685,-0.063 -0.261552,-0.027 -0.523664,-0.046 -0.78544,-0.071 -0.308346,-0.027 -0.617947,-0.034 -0.92731,-0.038 -0.355049,0 -1.065198,-0.01 -1.065198,-0.01 l -0.679008,-0.7724 0.606459,0.043 c 0,0 0.714151,0.01 1.07115,0.01 0.35957,0 0.719161,0 1.078724,-2e-4 0.311532,0.01 0.623067,0.017 0.933562,0.044 0.264336,0.022 0.528949,0.039 0.793408,0.059 0.222836,0.014 0.443894,0.04 0.665026,0.071 0.26196,0.028 0.523093,0.064 0.785499,0.088 0.20868,0.019 0.417732,0.034 0.627463,0.027 0.157348,-5e-4 0.314698,-5e-4 0.472046,-10e-5 0.140552,-2e-4 0.281147,0 0.421649,0 0.116913,-0.01 0.237449,-0.011 0.344027,-0.065 -0.351715,0.2029 -0.705483,0.4022 -1.055146,0.6086 -0.01342,0.01 0.03092,-0.01 0.04508,-0.012 0.04803,-0.022 0.076,-0.066 0.115413,-0.098 0.04604,-0.085 0.06044,-0.1864 0.08145,-0.2798 0.02219,-0.1045 0.0032,-0.2138 0.01653,-0.3198 0.01063,-0.1394 0.02714,-0.2789 0.0619,-0.4146 0.03071,-0.1237 0.03987,-0.248 0.03379,-0.3754 -0.0011,-0.1255 -6.61e-4,-0.251 4.47e-4,-0.3765 0.0012,-0.1425 0.0015,-0.2851 6.24e-4,-0.4277 -7.8e-4,-0.1285 -0.0031,-0.2571 -0.0114,-0.3854 -0.01156,-0.1238 -0.03534,-0.2458 -0.04568,-0.3694 -0.0084,-0.1087 -0.02361,-0.2161 -0.06804,-0.3168 -0.02425,-0.076 -0.05803,-0.161 -0.147699,-0.1682 -0.0981,0 -0.195894,-0.014 -0.292486,-0.032 -0.09736,-0.016 -0.194387,-0.016 -0.292968,-0.016 -0.113482,0 -0.226813,-0.011 -0.339285,-0.027 -0.185739,-0.025 -0.371643,-0.045 -0.559161,-0.051 -0.286914,-0.019 -0.573822,-0.038 -0.861631,-0.032 -0.281025,0 -0.563016,-0.01 -0.842187,-0.041 -0.243582,-0.033 -0.485822,-0.075 -0.728713,-0.1118 -0.260735,-0.036 -0.521794,-0.068 -0.7818,-0.1091 -0.199412,-0.021 -0.399079,-0.041 -0.594976,-0.085 -0.124357,-0.029 -0.24969,-0.053 -0.369346,-0.1 -0.136466,-0.047 -0.271977,-0.097 -0.40573,-0.1507 -0.137476,-0.056 -0.268726,-0.1252 -0.397915,-0.198 l 1.083105,-0.6935 z"
         id="path4096"
         style="opacity:0.91358026;color:#000000;fill:#0e8ceb;fill-opacity:1;fill-rule:nonzero;stroke:none;stroke-width:4;marker:none;visibility:visible;display:inline;overflow:visible;enable-background:accumulate" />
      <path
         inkscape:connector-curvature="0"
         d="m 35.175676,1094.2487 c -0.31533,-0.012 -0.630984,-0.015 -0.946493,-0.019 -0.529008,0 -1.058046,0 -1.587061,-2e-4 -0.45533,0 -0.910657,0 -1.365988,0 -0.398998,-0.028 -0.797368,-0.063 -1.197011,-0.081 -0.309801,0 -0.618279,-0.03 -0.927511,-0.045 -0.247453,-0.012 -0.495198,-0.013 -0.74287,-0.014 -0.257727,0 -0.515463,0 -0.773195,0 -0.273464,0 -0.546907,-10e-5 -0.820358,0 0,0 1.020337,-0.7413 1.020337,-0.7413 l 0,0 c 0.27176,0 0.543512,0 0.815283,0 0.25974,-8e-4 0.51948,0 0.779221,-9e-4 0.246837,0 0.493729,0.01 0.740117,0.024 0.305491,0.02 0.610807,0.042 0.916836,0.052 0.394697,0.024 0.787823,0.068 1.182992,0.083 0.452548,5e-4 0.905091,0 1.357637,0 0.529229,0 1.058479,0 1.5877,-2e-4 0.333206,0 0.666528,-0.01 0.999578,-0.019 0,0 -1.039214,0.7551 -1.039214,0.7551 z"
         id="path4098"
         style="opacity:0.91358026;color:#000000;fill:#0e8ceb;fill-opacity:1;fill-rule:nonzero;stroke:none;stroke-width:4;marker:none;visibility:visible;display:inline;overflow:visible;enable-background:accumulate" />
      <path
         inkscape:connector-curvature="0"
         d="m 28.401273,1095.6944 c 0.213566,0.01 0.427394,0.01 0.641092,0.01 0.358264,0 0.716541,0.01 1.074817,0.01 0.442289,0.019 0.884442,0.037 1.327106,0.044 0.303262,0 0.605713,0.021 0.908397,0.036 0.220681,0.01 0.44156,0.011 0.662375,0.013 0.309985,0 0.619068,0.021 0.928575,0.034 0.222702,0.01 0.445595,0.011 0.668456,0.01 0.175858,-5e-4 0.351697,0 0.527541,0 0.216318,0.012 0.436477,-0.025 0.648683,0.026 0.153955,0.052 0.221509,0.1933 0.273425,0.336 0.04621,0.1075 0.06461,0.2225 0.0923,0.3351 0.02969,0.1195 0.06188,0.2385 0.09437,0.3573 0.03774,0.1272 0.05033,0.2592 0.05901,0.391 0.01234,0.1071 0.03324,0.2129 0.04462,0.3202 0.01565,0.1076 0.04868,0.2108 0.08486,0.3128 0.01729,0.047 0.04896,0.2044 -0.0063,0.2381 -1.095168,0.67 -0.713931,0.6338 -1.229577,0.6671 -0.2336,0.019 -0.467054,0.01 -0.700284,-0.01 -0.287086,-0.02 -0.573109,-0.054 -0.858799,-0.088 -0.198561,-0.024 -0.398265,-0.036 -0.598187,-0.04 -0.168552,3e-4 -0.337509,-0.011 -0.505407,0.01 -0.08312,0.01 -0.166255,0.019 -0.249466,0.028 0,0 1.024109,-0.7598 1.024109,-0.7598 l 0,0 c 0.08242,-0.01 0.16482,-0.016 0.247467,-0.021 0.172358,-0.01 0.344973,0 0.517314,0 0.196862,0.011 0.392884,0.032 0.588072,0.06 0.283606,0.036 0.568239,0.066 0.853741,0.081 0.232044,0.011 0.468099,0.017 0.696575,-0.032 0.449724,-0.183 -0.03054,0.01 -0.975974,0.5878 -0.01343,0.01 0.0318,-6e-4 0.04702,0 0.03159,-0.01 0.03717,-0.018 0.03706,-0.051 -4.9e-5,-0.015 -0.0049,-0.031 -0.0074,-0.046 -0.03895,-0.1116 -0.08033,-0.2227 -0.103149,-0.3391 -0.0081,-0.1097 -0.02506,-0.218 -0.04424,-0.3263 -0.004,-0.1236 -0.01171,-0.2477 -0.04392,-0.3677 -0.03223,-0.1191 -0.06712,-0.2373 -0.101095,-0.3558 -0.02882,-0.1092 -0.03468,-0.2245 -0.08256,-0.3289 -0.03436,-0.1085 -0.0766,-0.2039 -0.199749,-0.224 -0.206572,-0.028 -0.416341,-0.01 -0.624094,-0.014 -0.179498,0 -0.359032,0.01 -0.538532,0 -0.21697,-0.01 -0.43383,-0.017 -0.650605,-0.028 -0.309906,-0.017 -0.619874,-0.035 -0.930414,-0.026 -0.224658,10e-4 -0.449602,0 -0.673836,-0.014 -0.290701,-0.021 -0.580786,-0.055 -0.872681,-0.055 -0.44424,-0.011 -0.888405,-0.025 -1.332583,-0.037 -0.363825,0 -0.727652,0 -1.091466,0.01 -0.22252,0 -0.44515,0 -0.667554,0.01 0,0 1.040817,-0.7562 1.040817,-0.7562 z"
         id="path4100"
         style="opacity:0.91358026;color:#000000;fill:#0e8ceb;fill-opacity:1;fill-rule:nonzero;stroke:none;stroke-width:4;marker:none;visibility:visible;display:inline;overflow:visible;enable-background:accumulate" />
      <path
         inkscape:connector-curvature="0"
         d="m 29.877678,1099.0613 c -0.320832,0.045 -0.645848,0.049 -0.969184,0.058 -0.324509,0.03 -0.653476,0.03 -0.976201,0.077 -0.142965,0.029 -0.287016,0.044 -0.432608,0.049 -0.0821,0 -0.1635,0 -0.243377,0.016 0,0 1.02853,-0.7667 1.02853,-0.7667 l 0,0 c 0.08168,-2e-4 0.163393,0 0.244938,-0.01 0.139917,-0.011 0.278551,-0.033 0.418261,-0.046 0.316364,-0.02 0.633445,-0.029 0.949923,-0.047 0.338022,-0.015 0.676855,-0.034 1.009365,-0.1011 0,0 -1.029647,0.7678 -1.029647,0.7678 z"
         id="path4102"
         style="opacity:0.91358026;color:#000000;fill:#0e8ceb;fill-opacity:1;fill-rule:nonzero;stroke:none;stroke-width:4;marker:none;visibility:visible;display:inline;overflow:visible;enable-background:accumulate" />
      <path
         inkscape:connector-curvature="0"
         d="m 28.842759,1100.9959 c 0.27267,0.012 0.545474,0.018 0.81783,-10e-5 0.480586,-0.026 0.958806,-0.072 1.436137,-0.1329 0.285542,-0.05 0.575736,-0.072 0.859626,-0.1311 0.01807,0 0.310644,-0.073 0.336793,-0.079 0.232174,-0.056 0.461997,-0.1289 0.697438,-0.1701 0.184266,-0.053 0.373666,-0.079 0.561019,-0.1172 0.176933,-0.039 0.357366,-0.056 0.538071,-0.063 0.165729,-0.032 0.335054,-0.031 0.5015,-0.055 0.192574,-0.021 0.382954,-0.055 0.575479,-0.077 0.151693,-0.011 0.30724,-0.022 0.452597,-0.07 0.101382,-0.042 0.214567,-0.032 0.317489,-0.064 0.113372,-0.024 0.228958,-0.033 0.344453,-0.037 0.141621,-0.013 0.218441,0.013 0.323935,0.1051 0.08171,0.084 0.136089,0.1878 0.191672,0.2897 0.04888,0.089 0.09811,0.1767 0.140022,0.2693 0.05056,0.1098 0.08235,0.2254 0.101868,0.3443 0.01615,0.1027 0.0452,0.2022 0.07265,0.3022 0.01787,0.1024 0.05521,0.1968 0.100714,0.2894 0.04278,0.088 0.08775,0.1755 0.12687,0.2659 0.03801,0.1001 0.09535,0.1886 0.152784,0.2781 0.05138,0.091 0.111154,0.176 0.155013,0.271 0.03606,0.073 0.07614,0.1414 0.135003,0.198 0.06944,0.043 0.135219,0.089 0.185805,0.1537 0.245622,0.5367 -0.810019,0.7572 -1.298495,0.8108 -0.163673,0.013 -0.326161,0.021 -0.488866,0.043 -0.153858,0.018 -0.304531,0.059 -0.451393,0.1072 -0.157692,0.053 -0.319218,0.092 -0.481497,0.128 -0.158012,0.05 -0.319751,0.088 -0.472981,0.1516 -0.167782,0.058 -0.333485,0.1226 -0.498207,0.1893 -0.171541,0.073 -0.341007,0.1478 -0.507772,0.2314 -0.167116,0.072 -0.329467,0.155 -0.486248,0.2473 -0.468694,0.2711 0.54739,-0.3168 0.927084,-0.534 0.02507,-0.014 -0.04922,0.03 -0.0734,0.046 -0.06415,0.042 -0.125485,0.088 -0.188385,0.1318 -0.38403,0.2237 -0.767652,0.4481 -1.152091,0.6711 -0.06226,0.036 -0.06546,0.033 -0.12944,0.068 -0.02229,0.012 -0.08783,0.052 -0.06574,0.039 1.025905,-0.5899 1.359293,-0.8029 0.961831,-0.5505 -0.475556,0.3041 -0.97879,0.5716 -1.466928,0.8499 -0.08269,0.036 -0.157081,0.089 -0.23835,0.1281 -0.08496,0.032 -0.04325,0.014 -0.125156,0.054 -0.119866,0.075 -0.249796,0.1302 -0.372819,0.1988 -0.07658,0.035 -0.03948,0.016 -0.111394,0.056 -0.01817,0.01 -0.07173,0.034 -0.05452,0.024 2.054007,-1.1896 1.298471,-0.7866 0.962031,-0.5437 -0.40382,0.2522 -0.794966,0.4669 -1.232428,0.7122 -0.01481,0.01 -0.03325,0.01 -0.04931,0.013 -0.01473,0.01 -0.0847,0.038 -0.09624,0.043 -0.112019,0.046 -0.224608,0.094 -0.330907,0.1521 2.165007,-1.9018 1.342086,-0.7694 1.008041,-0.5745 -0.379349,0.2213 -0.757801,0.4442 -1.139395,0.6617 -0.01434,0.01 -0.03238,0.01 -0.04734,0.014 -0.08617,0.04 0.01278,0.014 -0.07273,0.033 0,0 1.01322,-0.7972 1.01322,-0.7972 l 0,0 c 0.01551,-0.01 0.206141,-0.1161 0.105197,-0.058 -0.351589,0.204 -0.702215,0.4096 -1.054146,0.613 -0.01517,0.01 0.02918,-0.019 0.04377,-0.029 0.381229,-0.221 0.762458,-0.4421 1.143686,-0.6632 0.111446,-0.05 0.222212,-0.1009 0.334961,-0.1478 0.03386,-0.014 0.06878,-0.026 0.102061,-0.041 0.01413,-0.01 0.05441,-0.03 0.04093,-0.023 -1.89078,1.0967 -1.317506,0.8014 -0.965532,0.5517 0.209622,-0.099 -0.106592,0.056 0.09042,-0.059 0.436499,-0.2548 0.858284,-0.5148 1.306269,-0.739 0.126291,-0.063 0.248953,-0.1325 0.375949,-0.1938 0.122859,-0.057 0.239046,-0.1264 0.361698,-0.1836 -1.898703,1.0993 -1.143342,0.659 -0.717955,0.4143 0.02046,-0.015 0.03939,-0.033 0.06137,-0.046 0.38366,-0.2263 0.769725,-0.4486 1.155163,-0.6718 0.04429,-0.026 0.09012,-0.049 0.134766,-0.074 0.02055,-0.012 0.08174,-0.047 0.0614,-0.035 -0.342514,0.2002 -0.685279,0.4 -1.027919,0.6 0.479991,-0.3404 0.984398,-0.6402 1.510282,-0.9098 0.160705,-0.085 0.323944,-0.1654 0.489528,-0.2411 0.168628,-0.081 0.3416,-0.1519 0.51433,-0.2237 0.166923,-0.065 0.333433,-0.1303 0.502557,-0.1891 0.159019,-0.052 0.319603,-0.099 0.481995,-0.1392 0.160811,-0.041 0.320983,-0.083 0.47882,-0.1349 0.152442,-0.041 0.306399,-0.077 0.46419,-0.09 0.161862,-0.018 0.325594,-0.017 0.486174,-0.047 0.05881,-0.013 0.08693,-0.017 0.142248,-0.037 0.01718,-0.01 0.06583,-0.032 0.05021,-0.022 -0.349913,0.2135 -1.362486,0.4413 -1.02683,0.6766 0.002,0 0.0045,0 0.0068,0 -0.04678,-0.06 -0.12849,-0.086 -0.177392,-0.1449 -0.06264,-0.072 -0.115718,-0.149 -0.154865,-0.2361 -0.03873,-0.09 -0.09819,-0.1687 -0.142435,-0.2561 -0.06115,-0.095 -0.124119,-0.1888 -0.166459,-0.2947 -0.03764,-0.089 -0.08203,-0.1737 -0.121337,-0.2615 -0.04903,-0.1 -0.09736,-0.1998 -0.114136,-0.3111 -0.02659,-0.1054 -0.06015,-0.2086 -0.07907,-0.316 -0.01226,-0.1081 -0.03483,-0.2144 -0.08638,-0.3116 -0.03964,-0.09 -0.08732,-0.1746 -0.132456,-0.2613 -0.04784,-0.086 -0.09125,-0.1773 -0.166435,-0.2433 -0.08307,-0.053 -0.175597,-0.037 -0.270491,-0.03 -0.112725,0.01 -0.22458,0.026 -0.334706,0.053 -0.106028,0.012 -0.208853,0.038 -0.312043,0.065 -0.150436,0.024 -0.301331,0.039 -0.453118,0.052 -0.19239,0.024 -0.383475,0.058 -0.576424,0.078 -0.169749,0.016 -0.339006,0.036 -0.508787,0.051 -0.17536,0.013 -0.349542,0.035 -0.521598,0.072 -0.188771,0.035 -0.375154,0.08 -0.56282,0.1198 -0.226197,0.052 -0.452314,0.1044 -0.677925,0.1589 -0.390108,0.083 -0.784545,0.1342 -1.180334,0.183 -0.484007,0.058 -0.969302,0.1019 -1.455504,0.1379 -0.287642,0.016 -0.575587,0.012 -0.863424,0.024 0,0 1.040816,-0.7562 1.040816,-0.7562 z"
         id="path4106"
         style="opacity:0.91358026;color:#000000;fill:#0e8ceb;fill-opacity:1;fill-rule:nonzero;stroke:none;stroke-width:4;marker:none;visibility:visible;display:inline;overflow:visible;enable-background:accumulate" />
      <path
         inkscape:connector-curvature="0"
         d="m 32.292306,1102.9636 c -0.492396,0.3289 -0.988609,0.6827 -1.559366,0.8542 -0.215362,0.068 -0.438859,0.091 -0.660507,0.1279 -0.221851,0.035 -0.443718,0.07 -0.664503,0.111 -0.146432,0.023 -0.287868,0.067 -0.428393,0.1125 -0.0606,0.014 -0.122338,0.021 -0.184045,0.028 0,0 1.024551,-0.7683 1.024551,-0.7683 l 0,0 c 0.05836,-0.011 0.11673,-0.023 0.172815,-0.043 0.139362,-0.041 0.282667,-0.068 0.426049,-0.091 0.220845,-0.037 0.442266,-0.072 0.663456,-0.1068 0.220219,-0.033 0.438908,-0.074 0.649943,-0.1468 0.03276,-0.012 0.06597,-0.023 0.09827,-0.037 0.02897,-0.012 0.112405,-0.055 0.08541,-0.039 -1.790784,1.0584 -1.212951,0.6885 -0.818735,0.4785 0,0 1.195062,-0.4796 1.195062,-0.4796 z"
         id="path4108"
         style="opacity:0.91358026;color:#000000;fill:#0e8ceb;fill-opacity:1;fill-rule:nonzero;stroke:none;stroke-width:4;marker:none;visibility:visible;display:inline;overflow:visible;enable-background:accumulate" />
      <path
         inkscape:connector-curvature="0"
         d="m 37.507908,1106.5951 c -0.206198,0.065 -0.413552,0.1282 -0.623125,0.1814 -0.242821,0.071 -0.488128,0.1323 -0.726746,0.2172 -0.245827,0.077 -0.492522,0.1473 -0.745045,0.1983 -0.276355,0.057 -0.549414,0.129 -0.824704,0.1908 -0.250181,0.075 -0.511001,0.094 -0.766355,0.1445 -0.25756,0.037 -0.50496,0.117 -0.750268,0.201 -0.251237,0.08 -0.505932,0.1441 -0.761578,0.2074 -0.188555,0.043 -0.379279,0.085 -0.558821,0.1576 -0.05714,0.021 -0.07283,0.024 -0.12515,0.053 -0.01844,0.01 -0.07194,0.044 -0.05359,0.034 1.769807,-1.011 1.31791,-0.765 0.943512,-0.5373 -0.07815,0.056 -0.15171,0.1172 -0.225662,0.1785 -0.06954,0.066 -0.147781,0.1201 -0.22376,0.1775 -3.780211,2.1769 2.568175,-1.485 -1.203567,0.6941 -0.355121,0.2051 1.425031,-0.8127 1.065829,-0.6147 -0.751033,0.4138 -0.781206,0.4331 -1.178796,0.6796 -0.104456,0.036 -0.196748,0.097 -0.300663,0.1331 0,0 1.007312,-0.7953 1.007312,-0.7953 l 0,0 c 0.09719,-0.049 0.198975,-0.089 0.292187,-0.1458 0.348107,-0.1828 -1.359503,0.7909 -1.020274,0.592 0.377644,-0.2213 0.758634,-0.4369 1.136645,-0.6576 0.355276,-0.2074 -1.432088,0.8102 -1.068438,0.6178 0.106678,-0.056 2.815506,-1.6257 0.07058,-0.037 0.151555,-0.08 -0.08501,0.048 0.07079,-0.048 0.01308,-0.01 0.02881,-0.011 0.04222,-0.019 0.04629,-0.026 0.07338,-0.071 0.121758,-0.094 0.07134,-0.066 0.146191,-0.1292 0.222568,-0.1884 0.05408,-0.048 0.03226,-0.033 0.09639,-0.071 0.467153,-0.2714 0.846967,-0.5749 1.33572,-0.7364 0.182925,-0.054 0.368534,-0.098 0.55489,-0.1387 0.253711,-0.06 0.503759,-0.1334 0.751952,-0.2134 0.249227,-0.081 0.502169,-0.1485 0.761746,-0.1876 0.254639,-0.044 0.511241,-0.077 0.760641,-0.1474 0.27455,-0.066 0.549721,-0.1289 0.82545,-0.1896 0.250394,-0.06 0.497,-0.1325 0.741567,-0.2128 0.240806,-0.077 0.485712,-0.1396 0.728645,-0.2092 0.216322,-0.063 0.431877,-0.1277 0.645075,-0.2003 0,0 -1.018931,0.7845 -1.018931,0.7845 z"
         id="path4110"
         style="opacity:0.91358026;color:#000000;fill:#0e8ceb;fill-opacity:1;fill-rule:nonzero;stroke:none;stroke-width:4;marker:none;visibility:visible;display:inline;overflow:visible;enable-background:accumulate" />
      <path
         inkscape:connector-curvature="0"
         d="m 29.56087,1084.2323 c 0.155482,0.01 0.311109,0 0.465909,0.014 0.2228,0.018 0.443462,0.051 0.661601,0.099 0.276535,0.052 0.548862,0.1234 0.824807,0.1784 0.280635,0.063 0.566966,0.095 0.85033,0.1432 0.239148,0.038 0.47754,0.081 0.715588,0.1255 0.148096,0.029 0.298419,0.039 0.448922,0.042 0.155832,-0.01 0.307616,0.032 0.460257,0.057 0.250105,0.04 0.50097,0.069 0.75377,0.084 0.02592,0 0.05183,0 0.07775,0 0,0 -1.039231,0.7404 -1.039231,0.7404 l 0,0 c -0.02296,0 -0.04593,-0.01 -0.06889,-0.01 -0.252988,-0.031 -0.506597,-0.056 -0.75909,-0.09 -0.153679,-0.022 -0.307128,-0.039 -0.462564,-0.038 -0.151573,-0.01 -0.301912,-0.03 -0.450089,-0.064 -0.233195,-0.048 -0.467436,-0.091 -0.702256,-0.1302 -0.284994,-0.045 -0.571114,-0.085 -0.853053,-0.1474 -0.276102,-0.059 -0.550281,-0.1267 -0.828517,-0.175 -0.219349,-0.039 -0.44048,-0.067 -0.663209,-0.078 -0.157563,0 -0.315308,0 -0.47285,0 0,0 1.040817,-0.7562 1.040817,-0.7562 z"
         id="path4112"
         style="opacity:0.91358026;color:#000000;fill:#0e8ceb;fill-opacity:1;fill-rule:nonzero;stroke:none;stroke-width:4;marker:none;visibility:visible;display:inline;overflow:visible;enable-background:accumulate" />
      <path
         inkscape:connector-curvature="0"
         d="m 34.267896,1083.8809 c -0.454596,-0.01 -0.907511,-0.044 -1.361283,-0.071 -0.395347,-0.017 -0.790059,-0.046 -1.185253,-0.066 0,0 1.013048,-0.7247 1.013048,-0.7247 l 0,0 c 0.381915,0.038 0.76401,0.075 1.147635,0.091 0.473057,0.025 0.946727,0.051 1.420262,0.02 0,0 -1.034409,0.7515 -1.034409,0.7515 z"
         id="path4114"
         style="opacity:0.91358026;color:#000000;fill:#0e8ceb;fill-opacity:1;fill-rule:nonzero;stroke:none;stroke-width:4;marker:none;visibility:visible;display:inline;overflow:visible;enable-background:accumulate" />
      <path
         inkscape:connector-curvature="0"
         d="m 35.13611,1082.6556 c -0.249483,-0.075 -0.505661,-0.1206 -0.759241,-0.1786 -0.07495,-0.016 -0.149615,-0.034 -0.224861,-0.049 -0.08071,-0.016 -0.162315,-0.028 -0.242938,-0.044 -0.342329,-0.07 -0.679192,-0.1634 -1.015491,-0.2577 -0.350506,-0.1075 -0.699606,-0.2195 -1.049556,-0.3288 -0.147354,-0.047 -0.299867,-0.063 -0.453522,-0.067 -0.130911,0 -0.261618,-0.018 -0.389367,-0.045 -0.11082,-0.02 -0.0544,-0.01 -0.169153,-0.036 0,0 1.043701,-0.725 1.043701,-0.725 l 0,0 c 0.114233,0.021 0.05768,0.011 0.169648,0.03 0.127946,0.016 0.255567,0.03 0.384683,0.031 0.157135,0.014 0.310318,0.051 0.458295,0.1061 0.333099,0.1247 0.66819,0.2449 1.008465,0.3486 0.491053,0.1396 0.987309,0.2545 1.491888,0.3342 0.271931,0.049 0.544598,0.095 0.81316,0.1601 0,0 -1.065711,0.723 -1.065711,0.723 z"
         id="path4116"
         style="opacity:0.91358026;color:#000000;fill:#0e8ceb;fill-opacity:1;fill-rule:nonzero;stroke:none;stroke-width:4;marker:none;visibility:visible;display:inline;overflow:visible;enable-background:accumulate" />
      <path
         inkscape:connector-curvature="0"
         d="m 37.040119,1080.4363 c 0.236495,0.049 0.470747,0.1087 0.706605,0.1608 0.131201,0.034 0.263817,0.061 0.396893,0.087 0,0 -1.034132,0.7192 -1.034132,0.7192 l 0,0 c -0.13047,-0.03 -0.260226,-0.063 -0.390648,-0.093 -0.240498,-0.053 -0.481198,-0.1098 -0.727141,-0.1319 0,0 1.048423,-0.742 1.048423,-0.742 z"
         id="path4118"
         style="opacity:0.91358026;color:#000000;fill:#0e8ceb;fill-opacity:1;fill-rule:nonzero;stroke:none;stroke-width:4;marker:none;visibility:visible;display:inline;overflow:visible;enable-background:accumulate" />
      <path
         inkscape:connector-curvature="0"
         d="m 34.330198,1077.8059 c 0.290606,0.1407 0.592528,0.2573 0.894047,0.3724 0.499788,0.1735 1.002945,0.3372 1.509819,0.4887 0.482199,0.1304 0.968836,0.2417 1.454664,0.3573 0.346117,0.074 0.690916,0.1548 1.033936,0.242 0.13544,0.026 0.268669,0.06 0.403757,0.086 0.0923,0.025 0.182596,0.051 0.272705,0.083 0,0 -1.063733,0.719 -1.063733,0.719 l 0,0 c -0.08593,-0.03 -0.174944,-0.05 -0.263399,-0.071 -0.130593,-0.033 -0.262735,-0.061 -0.390999,-0.1029 -0.328586,-0.1009 -0.661601,-0.1881 -0.997428,-0.2614 -0.484261,-0.117 -0.968918,-0.2315 -1.447557,-0.3704 -0.511807,-0.1537 -1.020209,-0.3186 -1.52792,-0.4852 -0.315447,-0.1106 -0.625952,-0.2342 -0.942627,-0.341 0,0 1.064735,-0.7166 1.064735,-0.7166 z"
         id="path4120"
         style="opacity:0.91358026;color:#000000;fill:#0e8ceb;fill-opacity:1;fill-rule:nonzero;stroke:none;stroke-width:4;marker:none;visibility:visible;display:inline;overflow:visible;enable-background:accumulate" />
    </g>
  </g>
</svg>
