<?xml version="1.0" encoding="UTF-8" standalone="no"?>
<!-- Created with Inkscape (http://www.inkscape.org/) -->

<svg
   xmlns:dc="http://purl.org/dc/elements/1.1/"
   xmlns:cc="http://creativecommons.org/ns#"
   xmlns:rdf="http://www.w3.org/1999/02/22-rdf-syntax-ns#"
   xmlns:svg="http://www.w3.org/2000/svg"
   xmlns="http://www.w3.org/2000/svg"
   xmlns:xlink="http://www.w3.org/1999/xlink"
   xmlns:sodipodi="http://sodipodi.sourceforge.net/DTD/sodipodi-0.dtd"
   xmlns:inkscape="http://www.inkscape.org/namespaces/inkscape"
   width="64"
   height="48"
   id="svg2"
   version="1.1"
   inkscape:version="0.48.2 r9819"
   inkscape:export-filename="/home/jakub/Projects/KidPuzzleMaemo/KidPuzzle-0.0.1/qml/KidPuzzle/switch-away.png"
   inkscape:export-xdpi="90"
   inkscape:export-ydpi="90"
   sodipodi:docname="controls.svg">
  <defs
     id="defs4">
    <linearGradient
       id="linearGradient3808">
      <stop
         style="stop-color:#000000;stop-opacity:1;"
         offset="0"
         id="stop3810" />
      <stop
         style="stop-color:#919191;stop-opacity:1;"
         offset="1"
         id="stop3812" />
    </linearGradient>
    <linearGradient
       inkscape:collect="always"
       id="linearGradient3765">
      <stop
         style="stop-color:#000000;stop-opacity:1;"
         offset="0"
         id="stop3767" />
      <stop
         style="stop-color:#000000;stop-opacity:0;"
         offset="1"
         id="stop3769" />
    </linearGradient>
    <linearGradient
       inkscape:collect="always"
       xlink:href="#linearGradient3765"
       id="linearGradient3832"
       gradientUnits="userSpaceOnUse"
       gradientTransform="matrix(-1,0,0,1,64.170229,1004.2735)"
       x1="39.935017"
       y1="48.315338"
       x2="39.935017"
       y2="0.40071911" />
    <linearGradient
       inkscape:collect="always"
       xlink:href="#linearGradient3808"
       id="linearGradient3834"
       gradientUnits="userSpaceOnUse"
       x1="24.118761"
       y1="5.7382636"
       x2="24.118761"
       y2="42.474197" />
    <linearGradient
       inkscape:collect="always"
       xlink:href="#linearGradient3808"
       id="linearGradient3836"
       gradientUnits="userSpaceOnUse"
       x1="41.685944"
       y1="1022.5533"
       x2="41.685944"
       y2="1034.8047" />
    <linearGradient
       inkscape:collect="always"
       xlink:href="#linearGradient3765"
       id="linearGradient3843"
       gradientUnits="userSpaceOnUse"
       gradientTransform="translate(-0.266174,1004.1847)"
       x1="39.935017"
       y1="48.315338"
       x2="39.935017"
       y2="0.40071911" />
    <linearGradient
       inkscape:collect="always"
       xlink:href="#linearGradient3808"
       id="linearGradient3851"
       x1="41.54163"
       y1="1008.614"
       x2="41.54163"
       y2="1049.2526"
       gradientUnits="userSpaceOnUse" />
    <linearGradient
       inkscape:collect="always"
       xlink:href="#linearGradient3765"
       id="linearGradient3858"
       gradientUnits="userSpaceOnUse"
       gradientTransform="translate(-0.266174,1004.1847)"
       x1="39.935017"
       y1="48.315338"
       x2="39.935017"
       y2="0.40071911" />
    <linearGradient
       inkscape:collect="always"
       xlink:href="#linearGradient3808"
       id="linearGradient3860"
       gradientUnits="userSpaceOnUse"
       x1="41.54163"
       y1="1008.614"
       x2="41.54163"
       y2="1049.2526" />
    <linearGradient
       inkscape:collect="always"
       xlink:href="#linearGradient3808"
       id="linearGradient3883"
       gradientUnits="userSpaceOnUse"
       x1="41.54163"
       y1="1008.614"
       x2="41.54163"
       y2="1049.2526"
       gradientTransform="translate(77.81146,0.35489834)" />
    <linearGradient
       inkscape:collect="always"
       xlink:href="#linearGradient3765"
       id="linearGradient3887"
       gradientUnits="userSpaceOnUse"
       gradientTransform="translate(77.545286,1004.5396)"
       x1="39.935017"
       y1="48.315338"
       x2="39.935017"
       y2="0.40071911" />
    <filter
       inkscape:collect="always"
       id="filter3909">
      <feGaussianBlur
         inkscape:collect="always"
         stdDeviation="0.82466268"
         id="feGaussianBlur3911" />
    </filter>
    <filter
       inkscape:collect="always"
       id="filter3927">
      <feGaussianBlur
         inkscape:collect="always"
         stdDeviation="0.82466268"
         id="feGaussianBlur3929" />
    </filter>
    <linearGradient
       inkscape:collect="always"
       xlink:href="#linearGradient3765"
       id="linearGradient3166"
       gradientUnits="userSpaceOnUse"
       gradientTransform="matrix(-1,0,0,1,64.170229,1004.2735)"
       x1="39.935017"
       y1="48.315338"
       x2="39.935017"
       y2="0.40071911" />
    <linearGradient
       inkscape:collect="always"
       xlink:href="#linearGradient3808"
       id="linearGradient3168"
       gradientUnits="userSpaceOnUse"
       x1="24.118761"
       y1="5.7382636"
       x2="24.118761"
       y2="42.474197" />
    <linearGradient
       inkscape:collect="always"
       xlink:href="#linearGradient3808"
       id="linearGradient3170"
       gradientUnits="userSpaceOnUse"
       x1="41.685944"
       y1="1022.5533"
       x2="41.685944"
       y2="1034.8047" />
    <linearGradient
       inkscape:collect="always"
       xlink:href="#linearGradient3808"
       id="linearGradient3172"
       gradientUnits="userSpaceOnUse"
       gradientTransform="translate(-10.025878,-1.3308688)"
       x1="41.54163"
       y1="1008.614"
       x2="41.54163"
       y2="1049.2526" />
    <linearGradient
       inkscape:collect="always"
       xlink:href="#linearGradient3765"
       id="linearGradient3211"
       gradientUnits="userSpaceOnUse"
       gradientTransform="matrix(-1,0,0,1,64.347678,1004.0961)"
       x1="39.935017"
       y1="48.315338"
       x2="39.935017"
       y2="0.40071911" />
    <linearGradient
       inkscape:collect="always"
       xlink:href="#linearGradient3808"
       id="linearGradient3995"
       x1="21.935946"
       y1="3.852525"
       x2="21.935946"
       y2="30.884708"
       gradientUnits="userSpaceOnUse"
       gradientTransform="translate(-0.07073917,1002.6645)" />
    <linearGradient
       inkscape:collect="always"
       xlink:href="#linearGradient3808"
       id="linearGradient4001"
       gradientUnits="userSpaceOnUse"
       gradientTransform="translate(13.086777,1012.568)"
       x1="21.935946"
       y1="3.852525"
       x2="21.935946"
       y2="30.884708" />
    <linearGradient
       inkscape:collect="always"
       xlink:href="#linearGradient3808"
       id="linearGradient4048"
       gradientUnits="userSpaceOnUse"
       gradientTransform="translate(64.560523,132.43932)"
       x1="41.54163"
       y1="1008.614"
       x2="41.54163"
       y2="1049.2526" />
    <linearGradient
       inkscape:collect="always"
       xlink:href="#linearGradient3808"
       id="linearGradient4135"
       gradientUnits="userSpaceOnUse"
       x1="41.685944"
       y1="1022.5533"
       x2="41.685944"
       y2="1034.8047"
       gradientTransform="translate(75.89568,132.88534)" />
    <linearGradient
       inkscape:collect="always"
       xlink:href="#linearGradient3808"
       id="linearGradient4139"
       gradientUnits="userSpaceOnUse"
       x1="24.118761"
       y1="5.7382636"
       x2="24.118761"
       y2="42.474197"
       gradientTransform="translate(75.89568,1137.2476)" />
    <linearGradient
       inkscape:collect="always"
       xlink:href="#linearGradient3765"
       id="linearGradient4144"
       gradientUnits="userSpaceOnUse"
       gradientTransform="matrix(-1,0,0,1,148.97906,133.2211)"
       x1="39.935017"
       y1="48.315338"
       x2="39.935017"
       y2="0.40071911" />
    <linearGradient
       inkscape:collect="always"
       xlink:href="#linearGradient3765"
       id="linearGradient4149"
       gradientUnits="userSpaceOnUse"
       gradientTransform="matrix(-1,0,0,1,147.70576,1197.7117)"
       x1="39.935017"
       y1="48.315338"
       x2="39.935017"
       y2="0.40071911" />
    <linearGradient
       inkscape:collect="always"
       xlink:href="#linearGradient3808"
       id="linearGradient4152"
       gradientUnits="userSpaceOnUse"
       x1="41.685944"
       y1="1022.5533"
       x2="41.685944"
       y2="1034.8047"
       gradientTransform="matrix(-1,0,0,1,132.19345,188.06204)" />
    <linearGradient
       inkscape:collect="always"
       xlink:href="#linearGradient3808"
       id="linearGradient4156"
       gradientUnits="userSpaceOnUse"
       x1="24.118761"
       y1="5.7382636"
       x2="24.118761"
       y2="42.474197"
       gradientTransform="matrix(-1,0,0,1,132.19345,1192.4242)" />
    <linearGradient
       inkscape:collect="always"
       xlink:href="#linearGradient3765"
       id="linearGradient4161"
       gradientUnits="userSpaceOnUse"
       gradientTransform="translate(-17.429895,1175.924)"
       x1="39.935017"
       y1="48.315338"
       x2="39.935017"
       y2="0.40071911" />
    <linearGradient
       inkscape:collect="always"
       xlink:href="#linearGradient3808"
       id="linearGradient4164"
       gradientUnits="userSpaceOnUse"
       x1="41.685944"
       y1="1022.5533"
       x2="41.685944"
       y2="1034.8047"
       gradientTransform="translate(2.3955638,69.914972)" />
    <linearGradient
       inkscape:collect="always"
       xlink:href="#linearGradient3808"
       id="linearGradient4168"
       gradientUnits="userSpaceOnUse"
       x1="24.118761"
       y1="5.7382636"
       x2="24.118761"
       y2="42.474197"
       gradientTransform="translate(2.3955638,1074.2772)" />
    <linearGradient
       inkscape:collect="always"
       xlink:href="#linearGradient3765"
       id="linearGradient4173"
       gradientUnits="userSpaceOnUse"
       gradientTransform="matrix(-1,0,0,1,66.565793,1074.1885)"
       x1="39.935017"
       y1="48.315338"
       x2="39.935017"
       y2="0.40071911" />
    <linearGradient
       inkscape:collect="always"
       xlink:href="#linearGradient3808"
       id="linearGradient4185"
       gradientUnits="userSpaceOnUse"
       gradientTransform="translate(75.964472,1198.354)"
       x1="24.118761"
       y1="5.7382636"
       x2="24.118761"
       y2="42.474197" />
    <linearGradient
       inkscape:collect="always"
       xlink:href="#linearGradient3808"
       id="linearGradient4187"
       gradientUnits="userSpaceOnUse"
       gradientTransform="translate(75.964472,193.99177)"
       x1="41.685944"
       y1="1022.5533"
       x2="41.685944"
       y2="1034.8047" />
    <linearGradient
       inkscape:collect="always"
       xlink:href="#linearGradient3808"
       id="linearGradient4210"
       gradientUnits="userSpaceOnUse"
       gradientTransform="matrix(1,0,0,0.97060184,-0.07073917,1004.0012)"
       x1="21.935946"
       y1="3.852525"
       x2="21.935946"
       y2="30.884708" />
    <linearGradient
       inkscape:collect="always"
       xlink:href="#linearGradient3808"
       id="linearGradient4214"
       gradientUnits="userSpaceOnUse"
       gradientTransform="translate(13.086777,1012.568)"
       x1="21.935946"
       y1="3.852525"
       x2="21.935946"
       y2="30.884708" />
    <linearGradient
       inkscape:collect="always"
       xlink:href="#linearGradient3765"
       id="linearGradient4218"
       gradientUnits="userSpaceOnUse"
       gradientTransform="matrix(-1,0,0,1,64.347678,1004.0961)"
       x1="39.935017"
       y1="48.315338"
       x2="39.935017"
       y2="0.40071911" />
    <linearGradient
       inkscape:collect="always"
       xlink:href="#linearGradient3808"
       id="linearGradient4224"
       gradientUnits="userSpaceOnUse"
       gradientTransform="matrix(1,0,0,0.97060184,13.652692,1015.3195)"
       x1="21.935946"
       y1="3.852525"
       x2="21.935946"
       y2="30.884708" />
  </defs>
  <sodipodi:namedview
     id="base"
     pagecolor="#ffffff"
     bordercolor="#666666"
     borderopacity="1.0"
     inkscape:pageopacity="0.0"
     inkscape:pageshadow="2"
     inkscape:zoom="7.0682033"
     inkscape:cx="75.240086"
     inkscape:cy="30.149691"
     inkscape:document-units="px"
     inkscape:current-layer="layer1"
     showgrid="false"
     inkscape:window-width="1712"
     inkscape:window-height="1001"
     inkscape:window-x="66"
     inkscape:window-y="24"
     inkscape:window-maximized="0" />
  <metadata
     id="metadata7">
    <rdf:RDF>
      <cc:Work
         rdf:about="">
        <dc:format>image/svg+xml</dc:format>
        <dc:type
           rdf:resource="http://purl.org/dc/dcmitype/StillImage" />
        <dc:title></dc:title>
      </cc:Work>
    </rdf:RDF>
  </metadata>
  <g
     inkscape:label="Layer 1"
     inkscape:groupmode="layer"
     id="layer1"
     transform="translate(0,-1004.3622)">
    <g
       id="g4010"
       inkscape:export-filename="/home/jakub/Projects/KidPuzzleMaemo/qml/KidPuzzle/close.png"
       inkscape:export-xdpi="90"
       inkscape:export-ydpi="90">
      <path
         inkscape:connector-curvature="0"
         style="color:#000000;fill:url(#linearGradient3887);fill-opacity:1;fill-rule:nonzero;stroke:none;stroke-width:18;marker:none;visibility:visible;display:inline;overflow:visible;enable-background:accumulate"
         d="m 104.76403,1005.0709 c -14.68715,0 -26.499994,18.7192 -26.499994,41.9687 0,1.93 0.06092,3.8281 0.21875,5.6875 l 63.312494,0 0,-47.6562 -37.03125,0 z"
         id="path3775" />
      <path
         inkscape:connector-curvature="0"
         id="path3777"
         d="m 96.728322,1018.0071 13.457128,13.4572 -13.457128,13.4571 7.159458,7.1594 13.45712,-13.4571 13.45713,13.4571 7.15946,-7.1594 -13.45713,-13.4571 13.45713,-13.4572 -7.15946,-7.1594 -13.45713,13.4571 -13.45712,-13.4571 -7.159458,7.1594 z"
         style="color:#000000;fill:#ffffff;fill-opacity:1;fill-rule:nonzero;stroke:none;stroke-width:18;marker:none;visibility:visible;display:inline;overflow:visible;enable-background:accumulate" />
      <path
         style="color:#000000;fill:url(#linearGradient3883);fill-opacity:1;fill-rule:nonzero;stroke:none;stroke-width:18;marker:none;visibility:visible;display:inline;overflow:visible;enable-background:accumulate"
         d="m 96.728322,1016.0071 13.457128,13.4572 -13.457128,13.4571 7.159458,7.1594 13.45712,-13.4571 13.45713,13.4571 7.15946,-7.1594 -13.45713,-13.4571 13.45713,-13.4572 -7.15946,-7.1594 -13.45713,13.4571 -13.45712,-13.4571 -7.159458,7.1594 z"
         id="path3779"
         inkscape:connector-curvature="0" />
    </g>
    <path
       style="color:#000000;fill:url(#linearGradient4173);fill-opacity:1;fill-rule:nonzero;stroke:none;stroke-width:18;marker:none;visibility:visible;display:inline;overflow:visible;enable-background:accumulate"
       d="m 39.347043,1074.7198 c 14.687156,0 26.5,18.7191 26.5,41.9687 0,1.93 -0.06092,3.8281 -0.21875,5.6875 l -63.3125005,0 0,-47.6562 37.0312505,0 z"
       id="rect2985"
       inkscape:connector-curvature="0" />
    <rect
       y="1090.473"
       x="14.817006"
       height="19.519409"
       width="10.203327"
       id="rect3800"
       style="color:#000000;fill:#ffffff;fill-opacity:1;fill-rule:nonzero;stroke:none;stroke-width:18;marker:none;visibility:visible;display:inline;overflow:visible;enable-background:accumulate" />
    <path
       inkscape:connector-curvature="0"
       id="path3802"
       d="m 39.647124,1082.1461 -16.229689,9.2808 -0.311361,7.3862 -0.11676,0 0.07784,1.4451 -0.07784,1.4773 0.11676,0 0.311361,7.386 16.229689,9.313 0,-16.699 0,-2.9224 0,-16.667 z"
       style="fill:#ffffff;fill-opacity:1;stroke:none" />
    <path
       inkscape:connector-curvature="0"
       style="color:#000000;fill:url(#linearGradient4168);fill-opacity:1;fill-rule:nonzero;stroke:none;stroke-width:18;marker:none;visibility:visible;display:inline;overflow:visible;enable-background:accumulate"
       d="m 39.645564,1080.1522 -14.625,8.375 0,-0.062 -10.21875,0 0,19.5313 10.15625,0 14.6875,8.4375 0,-16.6875 0,-2.9375 0,-16.6563 z"
       id="rect3788" />
    <path
       inkscape:connector-curvature="0"
       id="path3804"
       d="m 41.685941,1094.5696 0,12.2187 c 0.06269,0 0.12407,0 0.1875,0 2.211904,0 4,-1.7568 4,-3.9687 l 0,-4.2813 c 0,-2.2119 -1.788096,-3.9687 -4,-3.9687 -0.06343,0 -0.124811,0 -0.1875,0 z"
       style="color:#000000;fill:#ffffff;fill-opacity:1;fill-rule:nonzero;stroke:none;stroke-width:18;marker:none;visibility:visible;display:inline;overflow:visible;enable-background:accumulate" />
    <path
       style="color:#000000;fill:url(#linearGradient4164);fill-opacity:1;fill-rule:nonzero;stroke:none;stroke-width:18;marker:none;visibility:visible;display:inline;overflow:visible;enable-background:accumulate"
       d="m 41.685941,1092.5696 0,12.2187 c 0.06269,0 0.12407,0 0.1875,0 2.211904,0 4,-1.7568 4,-3.9687 l 0,-4.2813 c 0,-2.2119 -1.788096,-3.9687 -4,-3.9687 -0.06343,0 -0.124811,0 -0.1875,0 z"
       id="rect3795"
       inkscape:connector-curvature="0" />
    <g
       id="g3142"
       transform="translate(80.245548,73.075843)">
      <g
         transform="translate(0.17744916,-0.17744987)"
         id="g3144">
        <path
           style="color:#000000;fill:url(#linearGradient3166);fill-opacity:1;fill-rule:nonzero;stroke:none;stroke-width:18;marker:none;visibility:visible;display:inline;overflow:visible;enable-background:accumulate"
           d="m 36.951479,1004.8048 c 14.687156,0 26.5,18.7191 26.5,41.9687 0,1.93 -0.06092,3.8281 -0.21875,5.6875 l -63.31250026,0 0,-47.6562 37.03125026,0 z"
           id="path3146"
           inkscape:connector-curvature="0" />
        <rect
           y="1020.5581"
           x="12.421442"
           height="19.519409"
           width="10.203327"
           id="rect3148"
           style="color:#000000;fill:#ffffff;fill-opacity:1;fill-rule:nonzero;stroke:none;stroke-width:18;marker:none;visibility:visible;display:inline;overflow:visible;enable-background:accumulate" />
        <path
           inkscape:connector-curvature="0"
           id="path3150"
           d="m 37.25156,1012.2311 -16.229689,9.2808 -0.311361,7.3862 -0.11676,0 0.07784,1.4451 -0.07784,1.4773 0.11676,0 0.311361,7.386 16.229689,9.313 0,-16.699 0,-2.9224 0,-16.667 z"
           style="fill:#ffffff;fill-opacity:1;stroke:none" />
        <path
           inkscape:connector-curvature="0"
           style="color:#000000;fill:url(#linearGradient3168);fill-opacity:1;fill-rule:nonzero;stroke:none;stroke-width:18;marker:none;visibility:visible;display:inline;overflow:visible;enable-background:accumulate"
           d="m 37.25,5.875 -14.625,8.375 0,-0.0625 -10.21875,0 0,19.53125 10.15625,0 14.6875,8.4375 0,-16.6875 0,-2.9375 0,-16.65625 z"
           transform="translate(0,1004.3622)"
           id="path3152" />
        <path
           inkscape:connector-curvature="0"
           id="path3154"
           d="m 39.290377,1024.6546 0,12.2187 c 0.06269,0 0.12407,0 0.1875,0 2.211904,0 4,-1.7568 4,-3.9687 l 0,-4.2813 c 0,-2.2119 -1.788096,-3.9687 -4,-3.9687 -0.06343,0 -0.124811,0 -0.1875,0 z"
           style="color:#000000;fill:#ffffff;fill-opacity:1;fill-rule:nonzero;stroke:none;stroke-width:18;marker:none;visibility:visible;display:inline;overflow:visible;enable-background:accumulate" />
        <path
           style="color:#000000;fill:url(#linearGradient3170);fill-opacity:1;fill-rule:nonzero;stroke:none;stroke-width:18;marker:none;visibility:visible;display:inline;overflow:visible;enable-background:accumulate"
           d="m 39.290377,1022.6546 0,12.2187 c 0.06269,0 0.12407,0 0.1875,0 2.211904,0 4,-1.7568 4,-3.9687 l 0,-4.2813 c 0,-2.2119 -1.788096,-3.9687 -4,-3.9687 -0.06343,0 -0.124811,0 -0.1875,0 z"
           id="path3156"
           inkscape:connector-curvature="0" />
      </g>
      <path
         style="color:#000000;fill:#000000;fill-opacity:1;fill-rule:nonzero;stroke:none;stroke-width:18;marker:none;visibility:visible;display:inline;overflow:visible;filter:url(#filter3927);enable-background:accumulate"
         d="m 8.8909836,1016.3214 13.4571284,13.4572 -13.4571284,13.4571 7.1594584,7.1594 13.45712,-13.4571 13.45713,13.4571 7.15946,-7.1594 -13.45713,-13.4571 13.45713,-13.4572 -7.15946,-7.1594 -13.45713,13.4571 -13.45712,-13.4571 -7.1594584,7.1594 z"
         id="path3158"
         inkscape:connector-curvature="0" />
      <path
         inkscape:connector-curvature="0"
         id="path3160"
         d="m 8.8909836,1016.3214 13.4571284,13.4572 -13.4571284,13.4571 7.1594584,7.1594 13.45712,-13.4571 13.45713,13.4571 7.15946,-7.1594 -13.45713,-13.4571 13.45713,-13.4572 -7.15946,-7.1594 -13.45713,13.4571 -13.45712,-13.4571 -7.1594584,7.1594 z"
         style="color:#000000;fill:#ffffff;fill-opacity:1;fill-rule:nonzero;stroke:none;stroke-width:18;marker:none;visibility:visible;display:inline;overflow:visible;enable-background:accumulate" />
      <path
         inkscape:connector-curvature="0"
         id="path3162"
         d="m 8.8909836,1014.3214 13.4571284,13.4572 -13.4571284,13.4571 7.1594584,7.1594 13.45712,-13.4571 13.45713,13.4571 7.15946,-7.1594 -13.45713,-13.4571 13.45713,-13.4572 -7.15946,-7.1594 -13.45713,13.4571 -13.45712,-13.4571 -7.1594584,7.1594 z"
         style="color:#000000;fill:#000000;fill-opacity:1;fill-rule:nonzero;stroke:none;stroke-width:18;marker:none;visibility:visible;display:inline;overflow:visible;filter:url(#filter3909);enable-background:accumulate" />
      <path
         style="color:#000000;fill:url(#linearGradient3172);fill-opacity:1;fill-rule:nonzero;stroke:none;stroke-width:18;marker:none;visibility:visible;display:inline;overflow:visible;enable-background:accumulate"
         d="m 8.8909836,1014.3214 13.4571284,13.4572 -13.4571284,13.4571 7.1594584,7.1594 13.45712,-13.4571 13.45713,13.4571 7.15946,-7.1594 -13.45713,-13.4571 13.45713,-13.4572 -7.15946,-7.1594 -13.45713,13.4571 -13.45712,-13.4571 -7.1594584,7.1594 z"
         id="path3164"
         inkscape:connector-curvature="0" />
    </g>
    <path
       inkscape:connector-curvature="0"
       id="path3864"
       d="m 37.128928,1004.6274 c 14.687156,0 26.5,18.7191 26.5,41.9687 0,1.93 -0.06092,3.8281 -0.21875,5.6875 l -63.3125001,0 0,-47.6562 37.0312501,0 z"
       style="color:#000000;fill:url(#linearGradient4218);fill-opacity:1;fill-rule:nonzero;stroke:none;stroke-width:18;marker:none;visibility:visible;display:inline;overflow:visible;enable-background:accumulate" />
    <path
       inkscape:connector-curvature="0"
       id="path4220"
       d="m 23.840192,1022.6493 c -1.95948,0 -3.531251,1.5717 -3.531251,3.5312 l 0,17 c 0,1.9595 1.571771,3.5313 3.531251,3.5313 l 26.03125,0 c 1.95948,0 3.53125,-1.5718 3.53125,-3.5313 l 0,-17 c 0,-1.9595 -1.57177,-3.5312 -3.53125,-3.5312 l -26.03125,0 z m 2.21875,2.75 21.59375,0 c 1.509952,0 2.71875,1.24 2.71875,2.75 l 0,13.0625 c 0,1.5099 -1.208798,2.7187 -2.71875,2.7187 l -21.59375,0 c -1.509952,0 -2.71875,-1.2088 -2.71875,-2.7187 l 0,-13.0625 c 0,-1.51 1.208798,-2.75 2.71875,-2.75 z"
       style="color:#000000;fill:#ffffff;fill-opacity:1;fill-rule:nonzero;stroke:none;stroke-width:18;marker:none;visibility:visible;display:inline;overflow:visible;enable-background:accumulate" />
    <path
       inkscape:connector-curvature="0"
       style="color:#000000;fill:url(#linearGradient4224);fill-opacity:1;fill-rule:nonzero;stroke:none;stroke-width:18;marker:none;visibility:visible;display:inline;overflow:visible;enable-background:accumulate"
       d="m 23.840192,1022.0833 c -1.95948,0 -3.53125,1.5256 -3.53125,3.4275 l 0,16.5002 c 0,1.9018 1.57177,3.4274 3.53125,3.4274 l 26.031249,0 c 1.95948,0 3.53125,-1.5256 3.53125,-3.4274 l 0,-16.5002 c 0,-1.9019 -1.57177,-3.4275 -3.53125,-3.4275 l -26.03125,0 z m 2.21875,2.6691 21.593749,0 c 1.509952,0 2.71875,1.2037 2.71875,2.6692 l 0,12.6785 c 0,1.4656 -1.208798,2.6389 -2.71875,2.6389 l -21.59375,0 c -1.509952,0 -2.718749,-1.1733 -2.718749,-2.6389 l 0,-12.6785 c 0,-1.4655 1.208797,-2.6692 2.718749,-2.6692 z"
       id="path4222" />
    <path
       style="color:#000000;fill:#ffffff;fill-opacity:1;fill-rule:nonzero;stroke:none;stroke-width:18;marker:none;visibility:visible;display:inline;overflow:visible;enable-background:accumulate"
       d="m 10.116761,1011.331 c -1.9594799,0 -3.5312504,1.5717 -3.5312504,3.5312 l 0,17 c 0,1.9595 1.5717705,3.5313 3.5312504,3.5313 l 26.03125,0 c 1.95948,0 3.53125,-1.5718 3.53125,-3.5313 l 0,-17 c 0,-1.9595 -1.57177,-3.5312 -3.53125,-3.5312 l -26.03125,0 z m 2.21875,2.75 21.59375,0 c 1.509952,0 2.71875,1.24 2.71875,2.75 l 0,13.0625 c 0,1.5099 -1.208798,2.7187 -2.71875,2.7187 l -21.59375,0 c -1.509952,0 -2.7187503,-1.2088 -2.7187503,-2.7187 l 0,-13.0625 c 0,-1.51 1.2087983,-2.75 2.7187503,-2.75 z"
       id="rect3213"
       inkscape:connector-curvature="0" />
    <path
       id="path3987"
       d="m 10.116761,1010.765 c -1.9594798,0 -3.5312502,1.5256 -3.5312502,3.4275 l 0,16.5002 c 0,1.9018 1.5717704,3.4274 3.5312502,3.4274 l 26.031249,0 c 1.95948,0 3.53125,-1.5256 3.53125,-3.4274 l 0,-16.5002 c 0,-1.9019 -1.57177,-3.4275 -3.53125,-3.4275 l -26.03125,0 z m 2.21875,2.6691 21.593749,0 c 1.509952,0 2.71875,1.2037 2.71875,2.6692 l 0,12.6785 c 0,1.4656 -1.208798,2.6389 -2.71875,2.6389 l -21.59375,0 c -1.509952,0 -2.7187492,-1.1733 -2.7187492,-2.6389 l 0,-12.6785 c 0,-1.4655 1.2087972,-2.6692 2.7187492,-2.6692 z"
       style="color:#000000;fill:url(#linearGradient4210);fill-opacity:1;fill-rule:nonzero;stroke:none;stroke-width:18;marker:none;visibility:visible;display:inline;overflow:visible;enable-background:accumulate"
       inkscape:connector-curvature="0" />
    <g
       id="g4197">
      <path
         id="path4019"
         transform="translate(0,1004.3622)"
         d="M 84.71875 133.75 C 70.118558 133.90828 58.40625 152.56802 58.40625 175.71875 C 58.40625 177.64875 58.46715 179.54685 58.625 181.40625 L 84.71875 181.40625 L 121.9375 181.40625 L 148.03125 181.40625 C 148.1891 179.54685 148.25 177.64875 148.25 175.71875 C 148.25 152.56802 136.5377 133.90828 121.9375 133.75 L 121.75 133.75 L 84.71875 133.75 z "
         style="color:#000000;fill:url(#linearGradient4144);fill-opacity:1;fill-rule:nonzero;stroke:none;stroke-width:18;marker:none;visibility:visible;display:inline;overflow:visible;enable-background:accumulate" />
      <rect
         y="1153.4435"
         x="88.317123"
         height="19.519409"
         width="10.203327"
         id="rect4021"
         style="color:#000000;fill:#ffffff;fill-opacity:1;fill-rule:nonzero;stroke:none;stroke-width:18;marker:none;visibility:visible;display:inline;overflow:visible;enable-background:accumulate" />
      <path
         inkscape:connector-curvature="0"
         id="path4023"
         d="m 113.14724,1145.1165 -16.229686,9.2808 -0.31136,7.3862 -0.11676,0 0.0778,1.4451 -0.0778,1.4773 0.11676,0 0.31136,7.386 16.229686,9.313 0,-16.699 0,-2.9224 0,-16.667 z"
         style="fill:#ffffff;fill-opacity:1;stroke:none" />
      <path
         inkscape:connector-curvature="0"
         style="color:#000000;fill:url(#linearGradient4139);fill-opacity:1;fill-rule:nonzero;stroke:none;stroke-width:18;marker:none;visibility:visible;display:inline;overflow:visible;enable-background:accumulate"
         d="m 113.14568,1143.1226 -14.624996,8.375 0,-0.062 -10.218754,0 0,19.5313 10.156254,0 14.687496,8.4375 0,-16.6875 0,-2.9375 0,-16.6563 z"
         id="path4025" />
      <path
         inkscape:connector-curvature="0"
         id="path4027"
         d="m 115.18605,1157.54 0,12.2187 c 0.0627,0 0.12407,0 0.1875,0 2.21191,0 4,-1.7568 4,-3.9687 l 0,-4.2813 c 0,-2.2119 -1.78809,-3.9687 -4,-3.9687 -0.0634,0 -0.12481,0 -0.1875,0 z"
         style="color:#000000;fill:#ffffff;fill-opacity:1;fill-rule:nonzero;stroke:none;stroke-width:18;marker:none;visibility:visible;display:inline;overflow:visible;enable-background:accumulate" />
      <path
         style="color:#000000;fill:url(#linearGradient4135);fill-opacity:1;fill-rule:nonzero;stroke:none;stroke-width:18;marker:none;visibility:visible;display:inline;overflow:visible;enable-background:accumulate"
         d="m 115.18605,1155.54 0,12.2187 c 0.0627,0 0.12407,0 0.1875,0 2.21191,0 4,-1.7568 4,-3.9687 l 0,-4.2813 c 0,-2.2119 -1.78809,-3.9687 -4,-3.9687 -0.0634,0 -0.12481,0 -0.1875,0 z"
         id="path4029"
         inkscape:connector-curvature="0" />
      <path
         inkscape:connector-curvature="0"
         id="path4031"
         d="m 83.477385,1150.0916 13.457129,13.4572 -13.457129,13.4571 7.159458,7.1594 13.457117,-13.4571 13.45713,13.4571 7.15946,-7.1594 -13.45713,-13.4571 13.45713,-13.4572 -7.15946,-7.1594 -13.45713,13.4571 -13.457117,-13.4571 -7.159458,7.1594 z"
         style="color:#000000;fill:#000000;fill-opacity:1;fill-rule:nonzero;stroke:none;stroke-width:18;marker:none;visibility:visible;display:inline;overflow:visible;filter:url(#filter3927);enable-background:accumulate" />
      <path
         style="color:#000000;fill:#ffffff;fill-opacity:1;fill-rule:nonzero;stroke:none;stroke-width:18;marker:none;visibility:visible;display:inline;overflow:visible;enable-background:accumulate"
         d="m 83.477385,1150.0916 13.457129,13.4572 -13.457129,13.4571 7.159458,7.1594 13.457117,-13.4571 13.45713,13.4571 7.15946,-7.1594 -13.45713,-13.4571 13.45713,-13.4572 -7.15946,-7.1594 -13.45713,13.4571 -13.457117,-13.4571 -7.159458,7.1594 z"
         id="path4033"
         inkscape:connector-curvature="0" />
      <path
         style="color:#000000;fill:#000000;fill-opacity:1;fill-rule:nonzero;stroke:none;stroke-width:18;marker:none;visibility:visible;display:inline;overflow:visible;filter:url(#filter3909);enable-background:accumulate"
         d="m 83.477385,1148.0916 13.457129,13.4572 -13.457129,13.4571 7.159458,7.1594 13.457117,-13.4571 13.45713,13.4571 7.15946,-7.1594 -13.45713,-13.4571 13.45713,-13.4572 -7.15946,-7.1594 -13.45713,13.4571 -13.457117,-13.4571 -7.159458,7.1594 z"
         id="path4035"
         inkscape:connector-curvature="0" />
      <path
         inkscape:connector-curvature="0"
         id="path4037"
         d="m 83.477385,1148.0916 13.457129,13.4572 -13.457129,13.4571 7.159458,7.1594 13.457117,-13.4571 13.45713,13.4571 7.15946,-7.1594 -13.45713,-13.4571 13.45713,-13.4572 -7.15946,-7.1594 -13.45713,13.4571 -13.457117,-13.4571 -7.159458,7.1594 z"
         style="color:#000000;fill:url(#linearGradient4048);fill-opacity:1;fill-rule:nonzero;stroke:none;stroke-width:18;marker:none;visibility:visible;display:inline;overflow:visible;enable-background:accumulate" />
    </g>
    <g
       id="g4189"
       inkscape:export-filename="/home/jakub/Projects/KidPuzzleMaemo/qml/KidPuzzle/sound-on.png"
       inkscape:export-xdpi="90"
       inkscape:export-ydpi="90">
      <path
         inkscape:connector-curvature="0"
         style="color:#000000;fill:url(#linearGradient4149);fill-opacity:1;fill-rule:nonzero;stroke:none;stroke-width:18;marker:none;visibility:visible;display:inline;overflow:visible;enable-background:accumulate"
         d="m 83.445442,1198.2406 c -14.600192,0.1583 -26.3125,18.818 -26.3125,41.9688 0,1.93 0.0609,3.8281 0.21875,5.6875 l 26.09375,0 37.218758,0 26.09375,0 c 0.15785,-1.8594 0.21875,-3.7575 0.21875,-5.6875 0,-23.1508 -11.7123,-41.8105 -26.3125,-41.9688 l -0.1875,0 -37.031258,0 z"
         id="path4147" />
      <rect
         y="1214.5498"
         x="88.385918"
         height="19.519409"
         width="10.203327"
         id="rect4175"
         style="color:#000000;fill:#ffffff;fill-opacity:1;fill-rule:nonzero;stroke:none;stroke-width:18;marker:none;visibility:visible;display:inline;overflow:visible;enable-background:accumulate" />
      <path
         inkscape:connector-curvature="0"
         id="path4177"
         d="m 113.21604,1206.2229 -16.229697,9.2808 -0.311361,7.3862 -0.11676,0 0.07784,1.4451 -0.07784,1.4773 0.11676,0 0.311361,7.386 16.229697,9.313 0,-16.699 0,-2.9224 0,-16.667 z"
         style="fill:#ffffff;fill-opacity:1;stroke:none" />
      <path
         inkscape:connector-curvature="0"
         style="color:#000000;fill:url(#linearGradient4185);fill-opacity:1;fill-rule:nonzero;stroke:none;stroke-width:18;marker:none;visibility:visible;display:inline;overflow:visible;enable-background:accumulate"
         d="m 113.21448,1204.229 -14.625008,8.375 0,-0.062 -10.21875,0 0,19.5313 10.15625,0 14.687508,8.4375 0,-16.6875 0,-2.9375 0,-16.6563 z"
         id="path4179" />
      <path
         inkscape:connector-curvature="0"
         id="path4181"
         d="m 115.25486,1218.6464 0,12.2187 c 0.0627,0 0.12407,0 0.1875,0 2.2119,0 4,-1.7568 4,-3.9687 l 0,-4.2813 c 0,-2.2119 -1.7881,-3.9687 -4,-3.9687 -0.0634,0 -0.12481,0 -0.1875,0 z"
         style="color:#000000;fill:#ffffff;fill-opacity:1;fill-rule:nonzero;stroke:none;stroke-width:18;marker:none;visibility:visible;display:inline;overflow:visible;enable-background:accumulate" />
      <path
         style="color:#000000;fill:url(#linearGradient4187);fill-opacity:1;fill-rule:nonzero;stroke:none;stroke-width:18;marker:none;visibility:visible;display:inline;overflow:visible;enable-background:accumulate"
         d="m 115.25486,1216.6464 0,12.2187 c 0.0627,0 0.12407,0 0.1875,0 2.2119,0 4,-1.7568 4,-3.9687 l 0,-4.2813 c 0,-2.2119 -1.7881,-3.9687 -4,-3.9687 -0.0634,0 -0.12481,0 -0.1875,0 z"
         id="path4183"
         inkscape:connector-curvature="0" />
    </g>
  </g>
</svg>
