<?xml version="1.0" encoding="UTF-8" standalone="no"?>
<!-- Created with Inkscape (http://www.inkscape.org/) -->

<svg
   xmlns:dc="http://purl.org/dc/elements/1.1/"
   xmlns:cc="http://creativecommons.org/ns#"
   xmlns:rdf="http://www.w3.org/1999/02/22-rdf-syntax-ns#"
   xmlns:svg="http://www.w3.org/2000/svg"
   xmlns="http://www.w3.org/2000/svg"
   xmlns:xlink="http://www.w3.org/1999/xlink"
   xmlns:sodipodi="http://sodipodi.sourceforge.net/DTD/sodipodi-0.dtd"
   xmlns:inkscape="http://www.inkscape.org/namespaces/inkscape"
   width="265.89209"
   height="192.01361"
   id="svg44804"
   version="1.1"
   inkscape:version="0.48.2 r9819"
   sodipodi:docname="puppy_walk.svg">
  <defs
     id="defs44806">
    <linearGradient
       id="linearGradient6128">
      <stop
         id="stop6130"
         offset="0"
         style="stop-color:#ffffff;stop-opacity:1;" />
      <stop
         id="stop6132"
         offset="1"
         style="stop-color:#000000;stop-opacity:1;" />
    </linearGradient>
    <linearGradient
       inkscape:collect="always"
       id="linearGradient6026">
      <stop
         style="stop-color:#000000;stop-opacity:1;"
         offset="0"
         id="stop6028" />
      <stop
         style="stop-color:#000000;stop-opacity:0;"
         offset="1"
         id="stop6030" />
    </linearGradient>
    <linearGradient
       id="linearGradient6016">
      <stop
         style="stop-color:#904a30;stop-opacity:1;"
         offset="0"
         id="stop6018" />
      <stop
         style="stop-color:#521614;stop-opacity:1;"
         offset="1"
         id="stop6020" />
    </linearGradient>
    <linearGradient
       id="linearGradient5920">
      <stop
         style="stop-color:#1d2331;stop-opacity:1;"
         offset="0"
         id="stop5922" />
      <stop
         id="stop5924"
         offset="0.30071679"
         style="stop-color:#1d2331;stop-opacity:0.48148148" />
      <stop
         style="stop-color:#1d2331;stop-opacity:0;"
         offset="1"
         id="stop5926" />
    </linearGradient>
    <linearGradient
       id="linearGradient45642">
      <stop
         style="stop-color:#4b2f1a;stop-opacity:1;"
         offset="0"
         id="stop45644" />
      <stop
         style="stop-color:#231d18;stop-opacity:1;"
         offset="1"
         id="stop45646" />
    </linearGradient>
    <linearGradient
       id="linearGradient45634">
      <stop
         style="stop-color:#ffffff;stop-opacity:1;"
         offset="0"
         id="stop45636" />
      <stop
         style="stop-color:#c4c4ba;stop-opacity:1;"
         offset="1"
         id="stop45638" />
    </linearGradient>
    <linearGradient
       id="linearGradient45610">
      <stop
         style="stop-color:#1d2331;stop-opacity:0.53846157;"
         offset="0"
         id="stop45612" />
      <stop
         id="stop45614"
         offset="0.58351362"
         style="stop-color:#1d2331;stop-opacity:0.53846157;" />
      <stop
         style="stop-color:#1d2331;stop-opacity:0;"
         offset="1"
         id="stop45616" />
    </linearGradient>
    <linearGradient
       id="linearGradient45602">
      <stop
         id="stop45604"
         offset="0"
         style="stop-color:#1d2331;stop-opacity:1;" />
      <stop
         style="stop-color:#1d2331;stop-opacity:0.48148148"
         offset="0.30071679"
         id="stop45606" />
      <stop
         id="stop45608"
         offset="1"
         style="stop-color:#1d2331;stop-opacity:0;" />
    </linearGradient>
    <linearGradient
       id="linearGradient45560">
      <stop
         id="stop45562"
         offset="0"
         style="stop-color:#ffffff;stop-opacity:1;" />
      <stop
         style="stop-color:#ffffff;stop-opacity:1;"
         offset="0.83580005"
         id="stop45592" />
      <stop
         id="stop45564"
         offset="1"
         style="stop-color:#d3e2db;stop-opacity:0;" />
    </linearGradient>
    <linearGradient
       id="linearGradient45518">
      <stop
         style="stop-color:#1d2331;stop-opacity:1;"
         offset="0"
         id="stop45520" />
      <stop
         id="stop45526"
         offset="0.78607708"
         style="stop-color:#1d2331;stop-opacity:1;" />
      <stop
         style="stop-color:#1d2331;stop-opacity:0;"
         offset="1"
         id="stop45522" />
    </linearGradient>
    <filter
       inkscape:collect="always"
       id="filter45416"
       color-interpolation-filters="sRGB">
      <feGaussianBlur
         inkscape:collect="always"
         stdDeviation="1.5840091"
         id="feGaussianBlur45418" />
    </filter>
    <filter
       inkscape:collect="always"
       id="filter45444"
       x="-0.066144422"
       width="1.1322888"
       y="-0.11506036"
       height="1.2301207"
       color-interpolation-filters="sRGB">
      <feGaussianBlur
         inkscape:collect="always"
         stdDeviation="0.82974352"
         id="feGaussianBlur45446" />
    </filter>
    <filter
       inkscape:collect="always"
       id="filter45474"
       color-interpolation-filters="sRGB">
      <feGaussianBlur
         inkscape:collect="always"
         stdDeviation="3.1792165"
         id="feGaussianBlur45476" />
    </filter>
    <filter
       inkscape:collect="always"
       id="filter45514"
       color-interpolation-filters="sRGB">
      <feGaussianBlur
         inkscape:collect="always"
         stdDeviation="0.52925153"
         id="feGaussianBlur45516" />
    </filter>
    <filter
       inkscape:collect="always"
       id="filter45588"
       color-interpolation-filters="sRGB">
      <feGaussianBlur
         inkscape:collect="always"
         stdDeviation="1.3557291"
         id="feGaussianBlur45590" />
    </filter>
    <filter
       inkscape:collect="always"
       id="filter45658"
       color-interpolation-filters="sRGB">
      <feGaussianBlur
         inkscape:collect="always"
         stdDeviation="0.89205147"
         id="feGaussianBlur45660" />
    </filter>
    <filter
       inkscape:collect="always"
       id="filter45662"
       color-interpolation-filters="sRGB">
      <feGaussianBlur
         inkscape:collect="always"
         stdDeviation="0.6050545"
         id="feGaussianBlur45664" />
    </filter>
    <filter
       inkscape:collect="always"
       id="filter6012"
       color-interpolation-filters="sRGB">
      <feGaussianBlur
         inkscape:collect="always"
         stdDeviation="1.6863543"
         id="feGaussianBlur6014" />
    </filter>
    <linearGradient
       inkscape:collect="always"
       xlink:href="#linearGradient5920"
       id="linearGradient6068"
       gradientUnits="userSpaceOnUse"
       x1="540.05646"
       y1="263.32755"
       x2="588.96533"
       y2="275.57623" />
    <radialGradient
       inkscape:collect="always"
       xlink:href="#linearGradient45634"
       id="radialGradient6070"
       gradientUnits="userSpaceOnUse"
       gradientTransform="matrix(1.0967154,0.18268468,-0.12074667,0.72488147,-35.629558,-59.456844)"
       cx="545.56348"
       cy="178.76135"
       fx="545.56348"
       fy="178.76135"
       r="113.74025" />
    <linearGradient
       inkscape:collect="always"
       xlink:href="#linearGradient45602"
       id="linearGradient6072"
       gradientUnits="userSpaceOnUse"
       x1="651.07672"
       y1="242.66901"
       x2="702.19397"
       y2="242.66901" />
    <radialGradient
       inkscape:collect="always"
       xlink:href="#linearGradient45642"
       id="radialGradient6074"
       gradientUnits="userSpaceOnUse"
       gradientTransform="matrix(0.81611592,-0.05516523,0.05533828,0.81867603,109.84752,67.058099)"
       cx="647.77899"
       cy="153.22455"
       fx="647.77899"
       fy="153.22455"
       r="66.469627" />
    <linearGradient
       inkscape:collect="always"
       xlink:href="#linearGradient45560"
       id="linearGradient6076"
       gradientUnits="userSpaceOnUse"
       gradientTransform="translate(2,0)"
       x1="504.43912"
       y1="309.96469"
       x2="526.91382"
       y2="159.47523" />
    <radialGradient
       inkscape:collect="always"
       xlink:href="#linearGradient6016"
       id="radialGradient6078"
       gradientUnits="userSpaceOnUse"
       gradientTransform="matrix(1.9753837,0.30554189,-0.19331273,1.2498019,-387.28021,-160.48392)"
       cx="423.47705"
       cy="133.31979"
       fx="423.47705"
       fy="133.31979"
       r="56.153439" />
    <linearGradient
       inkscape:collect="always"
       xlink:href="#linearGradient45518"
       id="linearGradient6080"
       gradientUnits="userSpaceOnUse"
       x1="542.96222"
       y1="168.15282"
       x2="450.6048"
       y2="58.148457" />
    <linearGradient
       inkscape:collect="always"
       xlink:href="#linearGradient45610"
       id="linearGradient6082"
       gradientUnits="userSpaceOnUse"
       gradientTransform="translate(1.833406,1.1044347)"
       x1="414.37347"
       y1="207.22853"
       x2="512.2417"
       y2="241.00592" />
    <linearGradient
       inkscape:collect="always"
       xlink:href="#linearGradient45642"
       id="linearGradient6084"
       gradientUnits="userSpaceOnUse"
       gradientTransform="translate(-2.6395735,3.9593602)"
       x1="495.75702"
       y1="272.8869"
       x2="480.63864"
       y2="263.88855" />
    <linearGradient
       inkscape:collect="always"
       xlink:href="#linearGradient6026"
       id="linearGradient6086"
       gradientUnits="userSpaceOnUse"
       x1="499.31213"
       y1="191.4324"
       x2="492.29221"
       y2="90.468719" />
    <filter
       inkscape:collect="always"
       id="filter6106"
       color-interpolation-filters="sRGB">
      <feGaussianBlur
         inkscape:collect="always"
         stdDeviation="0.43107121"
         id="feGaussianBlur6108" />
    </filter>
    <radialGradient
       inkscape:collect="always"
       xlink:href="#linearGradient6128"
       id="radialGradient6126"
       cx="252.63615"
       cy="110.95674"
       fx="252.63615"
       fy="110.95674"
       r="32.479137"
       gradientTransform="matrix(0.97309713,0.1559975,-0.04540454,0.19434784,11.834577,38.955694)"
       gradientUnits="userSpaceOnUse" />
    <radialGradient
       inkscape:collect="always"
       xlink:href="#linearGradient6128"
       id="radialGradient6171"
       gradientUnits="userSpaceOnUse"
       gradientTransform="matrix(0.97309713,0.1559975,-0.04540454,0.19434784,11.834577,38.955694)"
       cx="252.63615"
       cy="110.95674"
       fx="252.63615"
       fy="110.95674"
       r="32.479137" />
    <linearGradient
       inkscape:collect="always"
       xlink:href="#linearGradient5920"
       id="linearGradient6173"
       gradientUnits="userSpaceOnUse"
       x1="540.05646"
       y1="263.32755"
       x2="588.96533"
       y2="275.57623" />
    <radialGradient
       inkscape:collect="always"
       xlink:href="#linearGradient45634"
       id="radialGradient6175"
       gradientUnits="userSpaceOnUse"
       gradientTransform="matrix(1.0967154,0.18268468,-0.12074667,0.72488147,-35.629558,-59.456844)"
       cx="545.56348"
       cy="178.76135"
       fx="545.56348"
       fy="178.76135"
       r="113.74025" />
    <linearGradient
       inkscape:collect="always"
       xlink:href="#linearGradient45602"
       id="linearGradient6177"
       gradientUnits="userSpaceOnUse"
       x1="651.07672"
       y1="242.66901"
       x2="702.19397"
       y2="242.66901" />
    <radialGradient
       inkscape:collect="always"
       xlink:href="#linearGradient45642"
       id="radialGradient6179"
       gradientUnits="userSpaceOnUse"
       gradientTransform="matrix(0.81611592,-0.05516523,0.05533828,0.81867603,109.84752,67.058099)"
       cx="647.77899"
       cy="153.22455"
       fx="647.77899"
       fy="153.22455"
       r="66.469627" />
    <linearGradient
       inkscape:collect="always"
       xlink:href="#linearGradient45560"
       id="linearGradient6181"
       gradientUnits="userSpaceOnUse"
       gradientTransform="translate(2,0)"
       x1="504.43912"
       y1="309.96469"
       x2="526.91382"
       y2="159.47523" />
    <radialGradient
       inkscape:collect="always"
       xlink:href="#linearGradient6016"
       id="radialGradient6183"
       gradientUnits="userSpaceOnUse"
       gradientTransform="matrix(1.9753837,0.30554189,-0.19331273,1.2498019,-387.28021,-160.48392)"
       cx="423.47705"
       cy="133.31979"
       fx="423.47705"
       fy="133.31979"
       r="56.153439" />
    <linearGradient
       inkscape:collect="always"
       xlink:href="#linearGradient45518"
       id="linearGradient6185"
       gradientUnits="userSpaceOnUse"
       x1="542.96222"
       y1="168.15282"
       x2="450.6048"
       y2="58.148457" />
    <linearGradient
       inkscape:collect="always"
       xlink:href="#linearGradient45610"
       id="linearGradient6187"
       gradientUnits="userSpaceOnUse"
       gradientTransform="translate(1.833406,1.1044347)"
       x1="414.37347"
       y1="207.22853"
       x2="512.2417"
       y2="241.00592" />
    <linearGradient
       inkscape:collect="always"
       xlink:href="#linearGradient45642"
       id="linearGradient6189"
       gradientUnits="userSpaceOnUse"
       gradientTransform="translate(-2.6395735,3.9593602)"
       x1="495.75702"
       y1="272.8869"
       x2="480.63864"
       y2="263.88855" />
    <linearGradient
       inkscape:collect="always"
       xlink:href="#linearGradient6026"
       id="linearGradient6191"
       gradientUnits="userSpaceOnUse"
       x1="499.31213"
       y1="191.4324"
       x2="492.29221"
       y2="90.468719" />
    <linearGradient
       inkscape:collect="always"
       xlink:href="#linearGradient5920"
       id="linearGradient6228"
       gradientUnits="userSpaceOnUse"
       x1="540.05646"
       y1="263.32755"
       x2="588.96533"
       y2="275.57623" />
    <radialGradient
       inkscape:collect="always"
       xlink:href="#linearGradient45634"
       id="radialGradient6230"
       gradientUnits="userSpaceOnUse"
       gradientTransform="matrix(1.0967154,0.18268468,-0.12074667,0.72488147,-35.629558,-59.456844)"
       cx="545.56348"
       cy="178.76135"
       fx="545.56348"
       fy="178.76135"
       r="113.74025" />
    <linearGradient
       inkscape:collect="always"
       xlink:href="#linearGradient45602"
       id="linearGradient6232"
       gradientUnits="userSpaceOnUse"
       x1="651.07672"
       y1="242.66901"
       x2="702.19397"
       y2="242.66901" />
    <radialGradient
       inkscape:collect="always"
       xlink:href="#linearGradient45642"
       id="radialGradient6234"
       gradientUnits="userSpaceOnUse"
       gradientTransform="matrix(0.81611592,-0.05516523,0.05533828,0.81867603,109.84752,67.058099)"
       cx="647.77899"
       cy="153.22455"
       fx="647.77899"
       fy="153.22455"
       r="66.469627" />
    <linearGradient
       inkscape:collect="always"
       xlink:href="#linearGradient45560"
       id="linearGradient6236"
       gradientUnits="userSpaceOnUse"
       gradientTransform="translate(2,0)"
       x1="504.43912"
       y1="309.96469"
       x2="526.91382"
       y2="159.47523" />
    <radialGradient
       inkscape:collect="always"
       xlink:href="#linearGradient6016"
       id="radialGradient6238"
       gradientUnits="userSpaceOnUse"
       gradientTransform="matrix(1.9753837,0.30554189,-0.19331273,1.2498019,-387.28021,-160.48392)"
       cx="423.47705"
       cy="133.31979"
       fx="423.47705"
       fy="133.31979"
       r="56.153439" />
    <linearGradient
       inkscape:collect="always"
       xlink:href="#linearGradient45518"
       id="linearGradient6240"
       gradientUnits="userSpaceOnUse"
       x1="542.96222"
       y1="168.15282"
       x2="450.6048"
       y2="58.148457" />
    <linearGradient
       inkscape:collect="always"
       xlink:href="#linearGradient45610"
       id="linearGradient6242"
       gradientUnits="userSpaceOnUse"
       gradientTransform="translate(1.833406,1.1044347)"
       x1="414.37347"
       y1="207.22853"
       x2="512.2417"
       y2="241.00592" />
    <linearGradient
       inkscape:collect="always"
       xlink:href="#linearGradient45642"
       id="linearGradient6244"
       gradientUnits="userSpaceOnUse"
       gradientTransform="translate(-2.6395735,3.9593602)"
       x1="495.75702"
       y1="272.8869"
       x2="480.63864"
       y2="263.88855" />
    <linearGradient
       inkscape:collect="always"
       xlink:href="#linearGradient6026"
       id="linearGradient6246"
       gradientUnits="userSpaceOnUse"
       x1="499.31213"
       y1="191.4324"
       x2="492.29221"
       y2="90.468719" />
    <linearGradient
       inkscape:collect="always"
       xlink:href="#linearGradient45642"
       id="linearGradient6250"
       gradientUnits="userSpaceOnUse"
       gradientTransform="matrix(0.71673252,0,0,0.71673252,-272.79789,-30.506685)"
       x1="495.75702"
       y1="272.8869"
       x2="480.63864"
       y2="263.88855" />
    <radialGradient
       inkscape:collect="always"
       xlink:href="#linearGradient6016"
       id="radialGradient6268"
       gradientUnits="userSpaceOnUse"
       gradientTransform="matrix(1.4158217,0.21899181,-0.13855352,0.89577367,-548.48234,-148.36853)"
       cx="423.47705"
       cy="133.31979"
       fx="423.47705"
       fy="133.31979"
       r="56.153439" />
    <linearGradient
       inkscape:collect="always"
       xlink:href="#linearGradient45560"
       id="linearGradient6271"
       gradientUnits="userSpaceOnUse"
       gradientTransform="matrix(0.71673252,0,0,0.71673252,-269.47255,-33.344487)"
       x1="504.43912"
       y1="309.96469"
       x2="526.91382"
       y2="159.47523" />
    <radialGradient
       inkscape:collect="always"
       xlink:href="#linearGradient45634"
       id="radialGradient6281"
       gradientUnits="userSpaceOnUse"
       gradientTransform="matrix(0.78605159,0.13093605,-0.08654307,0.51954612,-296.44288,-75.959141)"
       cx="545.56348"
       cy="178.76135"
       fx="545.56348"
       fy="178.76135"
       r="113.74025" />
    <linearGradient
       inkscape:collect="always"
       xlink:href="#linearGradient5920"
       id="linearGradient6286"
       gradientUnits="userSpaceOnUse"
       x1="540.05646"
       y1="263.32755"
       x2="588.96533"
       y2="275.57623"
       gradientTransform="matrix(0.71673252,0,0,0.71673252,-270.90602,-33.344487)" />
  </defs>
  <sodipodi:namedview
     id="base"
     pagecolor="#ffffff"
     bordercolor="#666666"
     borderopacity="1.0"
     inkscape:pageopacity="0.0"
     inkscape:pageshadow="2"
     inkscape:zoom="2.2889003"
     inkscape:cx="175.7664"
     inkscape:cy="52.662536"
     inkscape:document-units="px"
     inkscape:current-layer="layer1"
     showgrid="false"
     inkscape:window-width="1755"
     inkscape:window-height="1026"
     inkscape:window-x="58"
     inkscape:window-y="24"
     inkscape:window-maximized="0"
     fit-margin-top="0"
     fit-margin-left="0"
     fit-margin-right="0"
     fit-margin-bottom="0" />
  <metadata
     id="metadata44809">
    <rdf:RDF>
      <cc:Work
         rdf:about="">
        <dc:format>image/svg+xml</dc:format>
        <dc:type
           rdf:resource="http://purl.org/dc/dcmitype/StillImage" />
        <dc:title />
      </cc:Work>
    </rdf:RDF>
  </metadata>
  <g
     inkscape:label="Layer 1"
     inkscape:groupmode="layer"
     id="layer1"
     transform="translate(-2.0371397,-0.83374506)">
    <g
       id="g6300">
      <path
         sodipodi:nodetypes="czzzzzcc"
         transform="matrix(1,0,0,1.2071995,5.5322679,-23.11204)"
         inkscape:connector-curvature="0"
         id="path6088"
         d="m 203.15433,74.845315 c 9.6116,11.577612 17.25719,11.659113 25.12123,15.154241 7.86404,3.495128 16.91989,6.723458 21.84455,6.553365 4.92467,-0.170093 9.17471,-3.276684 10.92228,0.655337 1.74757,3.932022 -3.93202,6.334922 -10.48538,6.771812 -6.55337,0.43689 -15.50964,-2.4029 -20.97078,-3.93202 -5.46114,-1.529116 -20.09698,-6.47838 -23.37366,-8.444389 -5.42656,-9.706756 -12.62873,-15.001378 -3.05824,-16.758346 z"
         style="fill:#231d18;fill-opacity:1;stroke:none;filter:url(#filter6106)" />
      <path
         style="opacity:0.20164609;fill:url(#radialGradient6171);fill-opacity:1;stroke:none;filter:url(#filter6106)"
         d="m 203.15433,74.845315 c 9.6116,11.577612 17.25719,11.659113 25.12123,15.154241 7.86404,3.495128 16.91989,6.723458 21.84455,6.553365 4.92467,-0.170093 9.17471,-3.276684 10.92228,0.655337 1.74757,3.932022 -3.93202,6.334922 -10.48538,6.771812 -6.55337,0.43689 -15.50964,-2.4029 -20.97078,-3.93202 -5.46114,-1.529116 -20.09698,-6.47838 -23.37366,-8.444389 -5.42656,-9.706756 -12.62873,-15.001378 -3.05824,-16.758346 z"
         id="path6118"
         inkscape:connector-curvature="0"
         transform="matrix(1,0,0,1.2071995,5.5322679,-23.11204)"
         sodipodi:nodetypes="czzzzzcc" />
      <path
         sodipodi:nodetypes="cssscsssc"
         inkscape:connector-curvature="0"
         id="path45388"
         d="M 17.631184,20.504367 C 6.4744035,37.100078 7.3111601,37.378994 6.6138653,50.488211 5.9165634,63.597428 7.4506219,71.546637 8.2873784,76.985569 c 0.8855876,5.756286 2.5102766,14.643268 4.7416376,17.293006 2.231353,2.649732 5.29947,4.462714 5.29947,4.462714 0,0 3.207571,-1.67352 9.343805,-11.15678 6.80549,-10.517577 7.391361,-6.694074 8.646503,-24.405459 C 37.573929,45.467665 34.226896,26.082757 29.206342,23.014643 24.185796,19.946528 17.631184,20.504367 17.631184,20.504367 z"
         style="fill:#513834;fill-opacity:1;stroke:none" />
      <path
         sodipodi:nodetypes="csssssssssssc"
         inkscape:connector-curvature="0"
         id="path45358"
         d="m 134.31419,132.9596 c 5.61606,3.02403 10.80011,14.68815 11.66412,17.28017 0.86401,2.59203 -3.02403,4.32005 -4.32004,6.04807 -1.29602,1.72802 -5.61606,6.48007 -9.07209,6.91207 -3.45604,0.432 -9.93611,2.16003 -12.09613,3.45604 -2.16003,1.29601 -4.32004,2.16002 -4.32004,4.75205 0,2.59202 2.59202,3.88803 7.34407,4.32004 4.75205,0.43201 18.14419,0.86401 19.4402,0.86401 1.29602,0 5.39189,0.5361 11.43995,-5.51197 6.04807,-6.04806 8.86427,-7.44817 10.16028,-10.9042 1.29601,-3.45603 4.32004,-9.5041 6.48007,-12.52813 2.16001,-3.02403 1.72801,-1.29601 5.18404,-6.48007 3.45605,-5.18405 -41.90443,-8.20808 -41.90443,-8.20808 z"
         style="fill:#d2d2d2;fill-opacity:1;stroke:none" />
      <path
         sodipodi:nodetypes="csssssssssssc"
         style="fill:url(#linearGradient6286);fill-opacity:1;stroke:none"
         d="m 134.31419,132.9596 c 5.61606,3.02403 10.80011,14.68815 11.66412,17.28017 0.86401,2.59203 -3.02403,4.32005 -4.32004,6.04807 -1.29602,1.72802 -5.61606,6.48007 -9.07209,6.91207 -3.45604,0.432 -9.93611,2.16003 -12.09613,3.45604 -2.16003,1.29601 -4.32004,2.16002 -4.32004,4.75205 0,2.59202 2.59202,3.88803 7.34407,4.32004 4.75205,0.43201 18.14419,0.86401 19.4402,0.86401 1.29602,0 6.28846,0.19161 12.33652,-5.85646 6.04807,-6.04806 7.9677,-7.10368 9.26371,-10.55971 1.29601,-3.45603 4.32004,-9.5041 6.48007,-12.52813 2.16001,-3.02403 1.72801,-1.29601 5.18404,-6.48007 3.45605,-5.18405 -41.90443,-8.20808 -41.90443,-8.20808 z"
         id="path5910"
         inkscape:connector-curvature="0" />
      <path
         inkscape:connector-curvature="0"
         id="path45360"
         d="m 114.87399,114.3834 c 0.432,15.12016 3.02403,25.92028 5.61606,34.12836 2.59203,8.20809 5.61606,11.23212 6.91207,17.71218 1.29601,6.48007 2.59203,4.32005 1.72802,7.77608 -0.86401,3.45604 -1.72802,7.34408 -3.45604,8.20809 -1.72802,0.86401 -3.02403,3.45603 -6.48006,3.45603 -3.45604,0 -14.68816,-0.432 -19.0082,-0.864 -4.320048,-0.43201 -5.184054,-3.02403 -5.184054,-5.61606 0,-2.59203 2.592027,-5.18406 2.592027,-5.18406 0,0 1.728013,-0.864 3.888037,-2.16002 2.16002,-1.29601 1.72802,-2.16002 2.16002,-4.75205 0.43201,-2.59203 0,-7.77608 -2.16002,-11.23212 -2.160024,-3.45603 -2.160024,-4.75204 -4.752051,-8.64009 -2.592027,-3.88803 -3.456034,-6.91206 -4.320041,-12.96013 -0.864014,-6.04806 0,-13.82415 -0.864014,-23.32824 -0.864006,-9.5041 2.160024,-20.73622 11.664126,-20.73622 9.5041,0 11.66412,24.19225 11.66412,24.19225 z"
         style="fill:#898789;fill-opacity:1;stroke:none" />
      <path
         style="fill:#3b1e14;fill-opacity:0.84474888;stroke:none"
         d="m 114.87399,114.3834 c 0.432,15.12016 3.02403,25.92028 5.61606,34.12836 2.59203,8.20809 5.61606,11.23212 6.91207,17.71218 1.29601,6.48007 2.59203,4.32005 1.72802,7.77608 -0.86401,3.45604 -1.72802,7.34408 -3.45604,8.20809 -1.72802,0.86401 -3.02403,3.45603 -6.48006,3.45603 -3.45604,0 -14.68816,-0.432 -19.0082,-0.864 -4.320048,-0.43201 -5.184054,-3.02403 -5.184054,-5.61606 0,-2.59203 2.592027,-5.18406 2.592027,-5.18406 0,0 1.728013,-0.864 3.888037,-2.16002 2.16002,-1.29601 1.72802,-2.16002 2.16002,-4.75205 0.43201,-2.59203 0,-7.77608 -2.16002,-11.23212 -2.160024,-3.45603 -2.160024,-4.75204 -4.752051,-8.64009 -2.592027,-3.88803 -3.456034,-6.91206 -4.320041,-12.96013 -0.864014,-6.04806 0,-13.82415 -0.864014,-23.32824 -0.864006,-9.5041 2.160024,-20.73622 11.664126,-20.73622 9.5041,0 11.66412,24.19225 11.66412,24.19225 z"
         id="path5948"
         inkscape:connector-curvature="0" />
      <path
         sodipodi:nodetypes="zsszsssssssz"
         inkscape:connector-curvature="0"
         id="path45350"
         d="M 223.30712,94.943202 C 221.1471,83.495084 219.41908,74.20699 206.02694,64.702888 192.6348,55.198792 179.24266,51.742758 163.2585,51.742758 c -15.98417,0 -25.63563,-1.72802 -33.26436,-1.72802 -7.62873,0 -17.98136,-3.980324 -26.78427,-11.232116 -31.112104,-25.630001 -21.522015,-5.400639 -28.43409,3.239459 -6.414763,8.018445 -14.766367,37.560066 -13.902353,47.737066 0.767449,9.039574 6.723947,14.094003 17.280185,25.056263 11.232108,11.66412 16.416163,23.32825 37.152378,28.08029 21.07128,4.82884 40.17642,3.45604 53.56856,0.43201 13.39214,-3.02403 38.88041,-13.39214 47.08849,-25.05626 4.89716,-6.95913 9.5041,-11.88013 7.34408,-23.328248 z"
         style="fill:url(#radialGradient6281);fill-opacity:1;stroke:none" />
      <path
         transform="matrix(0.77242601,0,0,0.69331796,-292.6045,-28.7237)"
         style="fill:#000000;fill-opacity:0.543379;stroke:none;filter:url(#filter45474)"
         d="m 440.89998,55.329607 c -6.60323,0.191398 -21.81934,3.827955 -29.28386,9.761285 -7.46451,5.933331 -16.6516,16.26881 -19.33117,26.221495 -2.67957,9.952683 -4.01935,17.799993 -2.67957,26.987083 1.33979,9.18709 5.93333,21.24515 6.89032,23.73332 0.95699,2.48817 2.29678,4.01935 2.48817,5.55054 0.57172,4.57387 -3.06236,12.05806 -5.35914,18.75698 -2.29677,6.69892 -0.95698,16.4602 0.5742,19.71397 1.53118,3.25376 3.06236,8.2301 7.46451,8.6129 4.40215,0.38279 9.37849,-1.53119 10.14408,-1.91398 0.76559,-0.3828 2.29677,-1.33979 2.29677,-1.33979 0,0 2.10538,2.67957 4.97635,3.25376 2.87096,0.5742 8.99569,2.67957 14.35483,2.67957 5.35913,0 13.97203,-1.72258 18.37418,-4.78494 4.40215,-3.06236 7.46451,-5.35914 8.8043,-9.76129 1.33978,-4.40214 1.33978,-9.37849 2.29677,-12.44085 0.95699,-3.06236 -0.95698,-3.82795 1.33979,-6.31613 3.94835,-4.27739 8.0387,-7.8473 10.52687,-11.10107 2.48817,-3.25376 11.86666,-7.08171 16.65161,-13.78063 4.78494,-6.69893 10.14408,-14.73763 9.95268,-24.11612 -0.1914,-9.37849 -0.95699,-17.799994 -4.01935,-25.455905 -3.06237,-7.65591 -11.10043,-16.536261 -15.31182,-19.905366 -4.78495,-3.827955 -15.69462,-9.952684 -21.43655,-11.292468 -5.74193,-1.339784 -13.11074,-3.253762 -19.71397,-3.062364 z"
         id="path45452"
         inkscape:connector-curvature="0"
         sodipodi:nodetypes="zssssssssscssssssssssssz" />
      <g
         transform="matrix(0.71673252,0,0,0.71673252,-270.90602,-37.733879)"
         id="g45684">
        <path
           style="fill:#ffffff;fill-opacity:1;stroke:none"
           d="m 691.34459,198.88011 c -1.20548,27.12337 -1.80822,25.31514 3.61645,38.57546 5.42467,13.26031 7.2329,7.83564 7.2329,15.67128 0,7.83564 -5.42468,12.05483 -6.02742,27.12337 -0.60274,15.06854 4.82194,19.89047 -0.60274,20.49321 -5.42467,0.60275 -32.54804,2.41097 -36.16449,0.60275 -3.61645,-1.80823 -5.42468,-3.61645 -4.82194,-8.43839 0.60275,-4.82193 5.42468,-3.61645 7.83564,-7.83564 2.41097,-4.21919 4.82194,-7.2329 5.42468,-13.86305 0.60274,-6.63016 -1.20548,-13.26032 -2.41097,-19.28773 -1.20548,-6.02742 -1.80822,-12.05483 -6.63015,-17.47951 -4.82194,-5.42467 -4.82194,-5.42467 -7.2329,-9.64386 -2.41097,-4.2192 4.82193,-7.2329 6.63015,-12.05484 1.80823,-4.82193 4.82194,-11.45209 6.63016,-18.08224 1.80823,-6.63016 6.63016,-11.45209 12.05483,-11.45209 5.42468,0 14.4658,15.67128 14.4658,15.67128 z"
           id="path45356"
           inkscape:connector-curvature="0" />
        <path
           inkscape:connector-curvature="0"
           id="path45674"
           d="m 691.34459,198.88011 c -1.20548,27.12337 -1.80822,25.31514 3.61645,38.57546 5.42467,13.26031 7.2329,7.83564 7.2329,15.67128 0,7.83564 -5.42468,12.05483 -6.02742,27.12337 -0.60274,15.06854 4.82194,19.89047 -0.60274,20.49321 -5.42467,0.60275 -32.54804,2.41097 -36.16449,0.60275 -3.61645,-1.80823 -5.42468,-3.61645 -4.82194,-8.43839 0.60275,-4.82193 5.42468,-3.61645 7.83564,-7.83564 2.41097,-4.21919 4.82194,-7.2329 5.42468,-13.86305 0.60274,-6.63016 -1.20548,-13.26032 -2.41097,-19.28773 -1.20548,-6.02742 -1.80822,-12.05483 -6.63015,-17.47951 -4.82194,-5.42467 -4.82194,-5.42467 -7.2329,-9.64386 -2.41097,-4.2192 4.82193,-7.2329 6.63015,-12.05484 1.80823,-4.82193 4.82194,-11.45209 6.63016,-18.08224 1.80823,-6.63016 6.63016,-11.45209 12.05483,-11.45209 5.42468,0 14.4658,15.67128 14.4658,15.67128 z"
           style="opacity:0.67078193;fill:url(#linearGradient6232);fill-opacity:1;stroke:none" />
      </g>
      <path
         transform="matrix(0.71673252,0,0,0.71673252,-270.90602,-33.344487)"
         style="fill:url(#radialGradient6234);fill-opacity:1;stroke:none;filter:url(#filter45662)"
         d="m 690.13911,178.98963 c -3.01371,-15.97265 -5.42468,-28.93159 -24.10967,-42.19191 -18.68499,-13.26031 -37.36998,-18.08224 -59.67141,-18.08224 -22.30144,0 -27.93171,-0.60275 -38.57547,-0.60275 -10.64376,0 -11.63461,43.68072 -5.42467,57.8632 6.20994,14.18248 3.53169,24.44329 27.12337,29.53433 23.59168,5.09105 3.09279,10.07253 20.49322,18.08225 18.98636,8.73975 34.80833,0.15068 50.32892,-10.54797 11.2961,-7.78663 18.08225,-1e-5 23.80829,-8.13702 6.83262,-9.70952 9.04113,-9.94524 6.02742,-25.91789 z"
         id="path45352"
         inkscape:connector-curvature="0"
         sodipodi:nodetypes="zsszzzsssz" />
      <path
         transform="matrix(0.7283719,0,0,0.68748928,-278.83274,-29.671078)"
         inkscape:connector-curvature="0"
         id="path45354"
         d="m 645.53623,127.75661 c 21.09596,4.21919 27.72611,15.67128 29.53434,33.15078 1.80822,17.47951 5.42467,36.1645 3.01371,43.3974 -2.41097,7.23289 -14.4658,9.04112 -18.68499,9.04112 -4.21919,0 -7.2329,-2.41097 0.60274,-15.67128 7.83564,-13.26032 9.04112,-19.89047 6.63016,-32.54805 -2.41097,-12.65757 -4.82194,-25.31514 -11.45209,-29.53433 -6.63016,-4.2192 -9.64387,-7.83564 -9.64387,-7.83564 z"
         style="fill:#0a091a;fill-opacity:0.21917808;stroke:none;filter:url(#filter45658)" />
      <path
         transform="matrix(0.71673252,0,0,0.71673252,-270.90602,-33.344487)"
         style="fill:#000100;fill-opacity:0.48858451;stroke:none;filter:url(#filter45588)"
         d="m 542.30991,189.30379 c 0,6.63016 17.19227,18.48601 15.38404,28.73262 -1.80822,10.24661 -7.83564,22.30144 -17.4795,28.9316 -9.64387,6.63015 -19.89047,28.32885 -26.52063,37.36997 -6.63016,9.04113 -11.7763,15.72981 -15.78193,20.56892 -4.48751,5.42127 -11.23953,5.93426 -26.30807,5.33151 -15.06854,-0.60275 -26.09998,-0.50049 -30.14581,-0.59402 -3.21742,-0.0744 -2.9875,-5.89929 -0.26207,-10.94252 1.92232,-3.55712 5.8498,-6.94463 11.87722,-8.15012 6.02742,-1.20548 8.87156,-1.41739 14.8385,-5.72167 7.87716,-8.55624 15.21308,-22.31467 21.06975,-30.14582 3.61645,-4.82193 9.93611,-12.97987 13.58353,-21.59678 1.79949,-4.25122 5.57609,-11.75783 2.08776,-17.46204 -4.71688,-7.71317 8.8966,-11.75895 4.6774,-17.18362 3.61165,-3.40725 22.05619,-9.34704 32.97981,-9.13803 z"
         id="path45566"
         inkscape:connector-curvature="0"
         sodipodi:nodetypes="cssssssssccsscc" />
      <path
         sodipodi:nodetypes="zsssssssssccsssssz"
         inkscape:connector-curvature="0"
         id="path45362"
         d="m 129.27044,89.664954 c -2.16002,5.184055 -8.20808,12.528136 -8.20808,17.280176 0,4.75205 7.34408,8.64009 6.04806,15.98417 -1.29601,7.34408 -5.61606,15.98417 -12.52813,20.73622 -6.91207,4.75204 -14.25614,20.30421 -19.008193,26.78427 -4.752052,6.48007 -8.440458,11.27407 -11.311423,14.74241 -3.216344,3.8856 -8.055737,4.25328 -18.855849,3.82127 -10.800113,-0.43201 -18.706705,-0.35872 -21.606483,-0.42575 -2.306029,-0.0533 -2.141238,-4.22822 -0.187834,-7.84286 1.37779,-2.54951 4.192742,-4.97745 8.51279,-5.84146 4.320048,-0.86401 6.358536,-1.01589 10.635236,-4.10091 5.645816,-6.13253 10.903709,-15.99365 15.101375,-21.60649 2.592027,-3.45603 7.121533,-9.30309 9.735757,-15.47911 1.289753,-3.04699 3.996565,-8.42722 1.496366,-12.51561 -3.380742,-5.52828 -3.395513,-7.69051 -6.419551,-11.57855 -3.024031,-3.88805 -5.787407,-7.4597 -5.355397,-11.779743 0.432003,-4.320041 4.862873,-16.386118 24.735076,-15.522112 19.87221,0.864014 29.37631,2.160024 27.21628,7.344079 z"
         style="fill:url(#linearGradient6271);fill-opacity:1;stroke:none" />
      <path
         sodipodi:nodetypes="zssssssssscssssssssssssz"
         inkscape:connector-curvature="0"
         id="path45384"
         d="M 46.061834,5.3369801 C 41.329084,5.4741613 30.423204,8.0805999 25.073139,12.33321 19.723082,16.585822 13.138396,23.993596 11.217861,31.127009 9.2973262,38.260418 8.3370623,43.88484 9.2973262,50.469526 c 0.9602708,6.584686 4.2526108,15.22709 4.9385168,17.010442 0.685906,1.783352 1.646177,2.880799 1.783352,3.978253 0.40977,3.278241 -2.194893,8.642403 -3.84107,13.443737 -1.64617,4.801334 -0.685899,11.797561 0.411548,14.129644 1.097446,2.332078 2.194893,5.898778 5.350057,6.173148 3.155164,0.27436 6.721869,-1.09746 7.270592,-1.37181 0.548723,-0.27437 1.64617,-0.96028 1.64617,-0.96028 0,0 1.508994,1.92054 3.566712,2.33208 2.05771,0.41155 6.447503,1.92053 10.288573,1.92053 3.841063,0 10.014208,-1.23462 13.169372,-3.42952 3.155164,-2.19489 5.350057,-3.841067 6.310329,-6.996231 0.960263,-3.155157 0.960263,-6.721869 1.646169,-8.916762 0.685906,-2.194893 -0.685898,-2.743616 0.960271,-4.526976 2.829911,-3.065744 5.761598,-5.624415 7.54495,-7.956498 1.783353,-2.332075 8.505222,-5.075692 11.934751,-9.877025 C 85.707141,60.620917 89.548211,54.859319 89.411028,48.13745 89.273846,41.415581 88.725122,35.379619 86.530229,29.892378 84.335329,24.405138 78.57419,18.040302 75.55575,15.625555 72.126221,12.881935 64.306906,8.4921427 60.191478,7.531876 56.07605,6.5716092 50.794584,5.1997989 46.061834,5.3369801 z"
         style="fill:url(#radialGradient6268);fill-opacity:1;stroke:none" />
      <path
         transform="matrix(0.71673252,0,0,0.71673252,-270.90602,-33.344487)"
         sodipodi:nodetypes="cssssssssscsssssccssssssssc"
         inkscape:connector-curvature="0"
         id="path45406"
         d="m 404.44366,170.70665 c 6.50835,-10.37818 8.79506,-17.76603 9.67457,-27.7924 0.87951,-10.02638 0.3518,-20.58046 -0.7036,-28.49601 -1.05541,-7.91556 -5.80475,-17.414229 -10.37818,-18.821439 -4.57343,-1.40721 -6.68425,0.3518 -7.38785,-2.814423 -0.70361,-3.166224 0.70943,-8.817761 5.80474,-16.358821 4.39753,-6.508347 8.09146,-9.850473 15.83111,-14.423906 7.79576,-4.606581 16.05619,-6.69068 21.98767,-6.860151 6.15654,-0.175901 24.09847,1.23131 31.31043,7.563756 7.21195,6.332447 9.49867,7.211953 11.08178,12.313091 1.58311,5.101137 2.63852,16.358821 2.63852,16.358821 0,0 -0.70361,-12.840795 -9.49867,-18.645538 -8.79507,-5.804742 -11.43359,-5.628842 -18.99734,-8.619163 -6.8782,-2.719289 -10.02638,-2.286717 -12.48899,0.703605 -3.58005,4.347194 1.75901,5.45294 8.09146,10.554077 6.33244,5.101138 11.25768,5.628842 17.06242,10.554078 7.50748,6.369986 11.43359,11.433584 12.66489,18.469633 1.76228,8.66787 2.45678,19.24065 -3.51802,18.46964 -7.73966,-1.23131 -14.07211,-7.38785 -18.29374,-11.96129 -4.22163,-4.57343 -2.81442,-6.68425 -11.25768,-13.016689 -6.57033,-4.927754 -13.8962,-2.63852 -17.23833,-0.17591 -5.61106,4.134459 -5.80474,5.452939 -8.09146,14.248009 -2.28671,8.79506 -2.81442,15.12751 -3.86982,23.57077 -0.96098,7.68783 -0.35181,11.96129 -0.70361,21.28406 -0.38185,10.11897 6.86015,14.4239 4.57343,16.53472 -2.28671,2.11082 -7.03605,6.15655 -12.84079,2.99032 -5.80474,-3.16622 -5.45294,-5.62884 -5.45294,-5.62884 z"
         style="fill:#000000;fill-opacity:0.58904114;stroke:none;filter:url(#filter45416)" />
      <path
         transform="matrix(0.71673252,0,0,0.71673252,-270.90602,-33.344487)"
         sodipodi:nodetypes="zssssscszcssz"
         inkscape:connector-curvature="0"
         id="path45386"
         d="m 468.0152,59.416705 c 11.17865,5.03039 28.80823,17.389853 36.3306,25.151954 7.67185,7.91634 13.5867,15.847861 18.25146,24.038541 4.70236,8.25669 8.01836,18.99924 8.01836,30.73682 0,11.73758 -3.35359,18.44477 -9.50185,25.71089 -6.14825,7.26612 -12.85544,11.73758 -19.56263,16.76797 -6.70719,5.03039 -11.73758,6.70719 -11.73758,6.70719 0,0 -9.35296,-8.91236 -13.13268,-19.66755 -3.58887,-10.21212 -3.45255,-22.41017 1.37412,-32.7748 4.82667,-10.36464 5.75488,-22.14761 5.24468,-25.70771 -1.25423,-8.15667 -2.2777,-13.048743 -8.5563,-19.343888 -5.747,-5.762129 -25.17295,-13.174651 -24.61401,-22.6765 0.55893,-9.501849 6.70718,-13.973307 17.88583,-8.942917 z"
         style="fill:url(#linearGradient6240);fill-opacity:1;stroke:none;filter:url(#filter45514)" />
      <path
         sodipodi:nodetypes="zsssssz"
         inkscape:connector-curvature="0"
         id="path45390"
         d="m 24.038292,84.404066 c 1.921008,0.320164 6.275302,-0.256132 8.452448,1.921015 2.004579,2.004572 0.896475,4.994629 -0.384197,6.915637 -0.966241,1.449355 -3.970096,2.689417 -6.403374,2.433286 -2.433278,-0.256132 -4.610425,-1.024541 -6.01917,-2.945556 -1.060284,-1.445836 -3.060935,-4.709219 -1.536811,-6.787572 1.408745,-1.921008 3.970089,-1.856975 5.891104,-1.53681 z"
         style="fill:#0b0d1a;fill-opacity:1;stroke:none" />
      <g
         id="g6295">
        <path
           style="fill:#2b1b26;fill-opacity:1;stroke:none;filter:url(#filter45444)"
           d="m 430.28446,130.41552 c 3.57365,-3.93101 2.28909,-5.64876 5.53916,-9.64884 2.32287,-2.85892 4.28837,-3.39497 9.1128,-3.03761 5.34582,0.39599 6.43256,1.25078 9.64884,1.96551 8.76568,1.67189 6.162,2.3327 1.60814,9.1128 -2.91058,5.6565 -9.57041,6.68829 -13.57985,5.89651 -3.82328,-0.78226 -5.71784,-2.68023 -7.86203,-3.21628 -2.14419,-0.53604 -4.46706,-1.07209 -4.46706,-1.07209 z"
           id="path45392"
           inkscape:connector-curvature="0"
           sodipodi:nodetypes="csscccsc"
           transform="matrix(0.71673252,0,0,0.71673252,-270.90602,-33.344487)" />
        <rect
           style="color:#000000;fill:#c9d4cb;fill-opacity:1;fill-rule:nonzero;stroke:none;stroke-width:4;marker:none;visibility:visible;display:inline;overflow:visible;enable-background:accumulate"
           id="rect45396"
           width="14.215487"
           height="8.9647207"
           x="40.694538"
           y="52.700649"
           ry="4.4823604"
           rx="5.7630353" />
        <rect
           rx="4.7765698"
           ry="3.8420234"
           y="52.572582"
           x="43.383945"
           height="7.6840467"
           width="11.782206"
           id="rect45398"
           style="color:#000000;fill:#1d212f;fill-opacity:1;fill-rule:nonzero;stroke:none;stroke-width:4;marker:none;visibility:visible;display:inline;overflow:visible;enable-background:accumulate" />
      </g>
      <g
         id="g6290">
        <path
           sodipodi:nodetypes="csszccsc"
           inkscape:connector-curvature="0"
           id="path45528"
           d="m 388.07428,123.87052 c 1.23884,-2.74113 0.54904,-2.23987 3.79911,-6.23995 2.32287,-2.85892 7.11389,-6.32098 11.93832,-5.96362 5.34582,0.39599 0.97217,-0.53144 6.03062,1.39368 5.05845,1.92511 6.58329,3.34365 2.02943,10.12375 -2.91058,5.6565 -10.51215,9.4298 -14.52159,8.63802 -3.82328,-0.78226 -3.80994,-0.71584 -5.95413,-1.25189 -2.14419,-0.53604 -3.32176,-6.69999 -3.32176,-6.69999 z"
           style="fill:#2b1b26;fill-opacity:1;stroke:none;filter:url(#filter45444)"
           transform="matrix(0.48405581,0.37783907,-0.20729886,0.59676299,-152.29715,-168.73006)" />
        <rect
           rx="4.3520927"
           ry="4.4637055"
           y="42.951572"
           x="27.163742"
           height="8.927412"
           width="10.735161"
           id="rect45530"
           style="color:#000000;fill:#c9d4cb;fill-opacity:1;fill-rule:nonzero;stroke:none;stroke-width:4;marker:none;visibility:visible;display:inline;overflow:visible;enable-background:accumulate"
           transform="matrix(0.9479671,0.31836831,-0.29251932,0.95625961,0,0)" />
        <rect
           style="color:#000000;fill:#1d212f;fill-opacity:1;fill-rule:nonzero;stroke:none;stroke-width:4;marker:none;visibility:visible;display:inline;overflow:visible;enable-background:accumulate"
           id="rect45532"
           width="9.2807064"
           height="7.6840467"
           x="29.388248"
           y="43.343876"
           ry="3.8420234"
           rx="3.7624485"
           transform="matrix(0.95227979,0.30522649,-0.30522649,0.95227979,0,0)" />
      </g>
      <path
         transform="matrix(0.71673252,0,0,0.71673252,-270.90602,-33.344487)"
         style="opacity:0.67078193;fill:url(#linearGradient6242);fill-opacity:1;stroke:none;filter:url(#filter6012)"
         d="m 502.68527,188.23826 c 3.55029,9.39876 9.84788,23.95346 10.15943,30.57629 0.77174,16.40554 -1.46279,20.46257 -6.13362,29.76021 -6.18141,12.30459 -8.47945,15.83341 -15.51677,25.71254 -6.79003,9.53197 -9.72574,14.14342 -16.3559,23.18454 -6.63016,9.04113 24.53932,3.70038 20.53369,8.53949 -4.48751,5.42127 -11.23953,5.93426 -26.30807,5.33151 -15.06854,-0.60275 -26.09998,-0.50049 -30.14581,-0.59402 -3.21742,-0.0744 -2.9875,-5.89929 -0.26207,-10.94252 1.92232,-3.55712 5.8498,-6.94463 11.87722,-8.15012 6.02742,-1.20548 8.87156,-1.41739 14.8385,-5.72167 7.87716,-8.55624 15.21308,-22.31467 21.06975,-30.14582 3.61645,-4.82193 9.93611,-12.97987 13.58353,-21.59678 1.79949,-4.25122 5.57609,-11.75783 2.08776,-17.46204 -4.71688,-7.71317 -4.73749,-10.72996 -8.95669,-16.15463 -4.21919,-5.42468 -7.08634,-10.33969 -9.7283,-15.79067 -4.5422,-9.37162 -13.32237,-24.36076 14.25325,-21.23421 3.75229,0.42544 1.4538,15.28913 5.0041,24.6879 z"
         id="path45534"
         inkscape:connector-curvature="0"
         sodipodi:nodetypes="zsssssssssccsssssz" />
      <path
         inkscape:connector-curvature="0"
         id="path5952"
         d="m 112.36691,174.96387 c -3.19699,1.2788 -7.39874,0.73074 -7.76411,4.74981 -0.36536,4.01906 0.91343,5.57189 0.91343,5.57189 l 5.29786,-0.0914 c 0,0 -2.3749,0.6394 -2.83162,-2.83161 -0.45671,-3.47102 -1.37013,-4.9325 0.6394,-5.75458 2.00954,-0.82208 3.74504,-1.64416 3.74504,-1.64416 z"
         style="fill:#151314;fill-opacity:1;stroke:none" />
      <path
         inkscape:connector-curvature="0"
         id="path5954"
         d="m 102.13656,175.2379 c -2.922967,1.64416 -2.83162,1.27879 -3.379677,3.28833 -0.548056,2.00953 -0.456709,2.92296 -0.182688,4.29309 0.274029,1.37014 0.456717,1.73552 0.456717,1.73552 l 2.100868,0.0913 c 0,0 -1.370131,-2.19222 -1.461471,-3.83639 -0.09134,-1.64416 -0.274028,-2.19222 0.365371,-3.19698 0.63939,-1.00477 2.10088,-2.37491 2.10088,-2.37491 z"
         style="fill:#1e141a;fill-opacity:1;stroke:none" />
      <path
         inkscape:connector-curvature="0"
         id="path5956"
         d="m 116.7656,173.76306 c -2.41092,3.5522 -1.0857,5.66597 0.54456,7.6556 1.63026,1.98962 3.33609,4.03054 3.33609,4.03054 0,0 1.4712,-0.21581 2.49167,-1.06874 1.02046,-0.85291 1.83847,-1.73285 1.83847,-1.73285 0,0 -1.17163,0.75033 -3.61443,-1.01802 -2.44281,-1.76835 -4.45369,-3.68512 -4.61548,-5.56123 -0.16179,-1.87612 0.0191,-2.3053 0.0191,-2.3053 z"
         style="fill:#151314;fill-opacity:1;stroke:none" />
      <path
         inkscape:connector-curvature="0"
         id="path5958"
         d="m 55.460563,178.2522 c -7.490077,1.82685 -7.672765,4.38444 -8.494843,5.38921 -0.822085,1.00477 -3.745042,4.93249 -3.745042,4.93249 l 2.740269,0.0913 c 0,0 1.096113,-2.55759 2.740276,-4.93249 1.644163,-2.37491 6.75934,-5.48055 6.75934,-5.48055 z"
         style="fill:#2b292b;fill-opacity:1;stroke:none" />
      <path
         inkscape:connector-curvature="0"
         id="path5960"
         d="m 64.320781,179.71368 c -4.293098,1.46148 -5.206517,2.46625 -7.124708,4.2931 -1.918191,1.82684 -2.557595,4.65846 -2.557595,4.65846 l 2.557595,0 c 0,0 -0.365376,-1.82684 1.187447,-3.92772 1.552822,-2.10088 5.937261,-5.02384 5.937261,-5.02384 z"
         style="fill:#2b292b;fill-opacity:1;stroke:none" />
      <path
         sodipodi:nodetypes="ccsssc"
         inkscape:connector-curvature="0"
         id="path5962"
         d="m 78.217372,148.35264 c -5.851555,9.0504 -16.150291,23.87435 -16.150291,23.87435 0,0 2.569113,0.12159 8.894363,-1.32636 6.475715,-1.4824 10.610817,-3.43291 11.70311,-6.0076 1.4856,-3.50176 1.975057,-13.18986 0.390103,-15.05799 -2.126223,-2.50612 -4.837285,-1.4824 -4.837285,-1.4824 z"
         style="fill:url(#linearGradient6250);fill-opacity:1;stroke:none" />
      <path
         transform="matrix(0.71673252,0,0,0.71673252,-270.90602,-33.344487)"
         style="fill:url(#linearGradient6246);fill-opacity:1;stroke:none;filter:url(#filter45514)"
         d="m 522.59726,108.6072 c 4.70236,8.25669 8.01836,18.99924 8.01836,30.73682 0,11.73758 -3.35359,18.44477 -9.50185,25.71089 -6.14825,7.26612 -12.85544,11.73758 -19.56263,16.76797 -6.70719,5.03039 -11.73758,6.70719 -11.73758,6.70719 0,0 -9.35296,-8.91236 -13.13268,-19.66755 -3.58887,-10.21212 -3.45255,-22.41017 1.37412,-32.7748 4.82667,-10.36464 5.75488,-22.14761 5.24468,-25.70771 3.36405,-21.026073 2.6701,-28.571617 39.29758,-1.77281 z"
         id="path6024"
         inkscape:connector-curvature="0"
         sodipodi:nodetypes="cssscszcc" />
    </g>
  </g>
</svg>
