<?xml version="1.0" encoding="UTF-8" standalone="no"?>
<!-- Created with Inkscape (http://www.inkscape.org/) -->

<svg
   xmlns:dc="http://purl.org/dc/elements/1.1/"
   xmlns:cc="http://creativecommons.org/ns#"
   xmlns:rdf="http://www.w3.org/1999/02/22-rdf-syntax-ns#"
   xmlns:svg="http://www.w3.org/2000/svg"
   xmlns="http://www.w3.org/2000/svg"
   xmlns:xlink="http://www.w3.org/1999/xlink"
   xmlns:sodipodi="http://sodipodi.sourceforge.net/DTD/sodipodi-0.dtd"
   xmlns:inkscape="http://www.inkscape.org/namespaces/inkscape"
   width="153.95457"
   height="206.62241"
   id="svg42424"
   version="1.1"
   inkscape:version="0.48.2 r9819"
   sodipodi:docname="rabbit_nibble.svg"
   inkscape:export-filename="/home/jakub/Projects/KidPuzzle/qml/KidPuzzle/rabbit_nibble.png"
   inkscape:export-xdpi="90"
   inkscape:export-ydpi="90">
  <defs
     id="defs42426">
    <linearGradient
       id="linearGradient43611">
      <stop
         id="stop43613"
         offset="0"
         style="stop-color:#7e5a10;stop-opacity:1;" />
      <stop
         style="stop-color:#9e701b;stop-opacity:1;"
         offset="0.4990381"
         id="stop43615" />
      <stop
         id="stop43617"
         offset="1"
         style="stop-color:#cc993d;stop-opacity:0;" />
    </linearGradient>
    <linearGradient
       id="linearGradient43421">
      <stop
         id="stop43423"
         offset="0"
         style="stop-color:#835a08;stop-opacity:1;" />
      <stop
         style="stop-color:#835a08;stop-opacity:1;"
         offset="0.4433803"
         id="stop43425" />
      <stop
         id="stop43427"
         offset="1"
         style="stop-color:#835a08;stop-opacity:0;" />
    </linearGradient>
    <linearGradient
       id="linearGradient43394">
      <stop
         style="stop-color:#835a08;stop-opacity:1;"
         offset="0"
         id="stop43396" />
      <stop
         id="stop43402"
         offset="0.66657239"
         style="stop-color:#835a08;stop-opacity:1;" />
      <stop
         style="stop-color:#835a08;stop-opacity:0;"
         offset="1"
         id="stop43398" />
    </linearGradient>
    <linearGradient
       inkscape:collect="always"
       id="linearGradient43311">
      <stop
         style="stop-color:#e0c49e;stop-opacity:1;"
         offset="0"
         id="stop43313" />
      <stop
         style="stop-color:#e0c49e;stop-opacity:0;"
         offset="1"
         id="stop43315" />
    </linearGradient>
    <linearGradient
       id="linearGradient43299">
      <stop
         id="stop43301"
         offset="0"
         style="stop-color:#4e2d16;stop-opacity:1;" />
      <stop
         style="stop-color:#7a5a1b;stop-opacity:1;"
         offset="0.557468"
         id="stop43303" />
      <stop
         id="stop43305"
         offset="1"
         style="stop-color:#d8b166;stop-opacity:0;" />
    </linearGradient>
    <linearGradient
       id="linearGradient43241">
      <stop
         style="stop-color:#7e5a10;stop-opacity:1;"
         offset="0"
         id="stop43243" />
      <stop
         id="stop43249"
         offset="0.557468"
         style="stop-color:#9e701b;stop-opacity:1;" />
      <stop
         style="stop-color:#9e701b;stop-opacity:0;"
         offset="1"
         id="stop43245" />
    </linearGradient>
    <linearGradient
       inkscape:collect="always"
       id="linearGradient43181">
      <stop
         style="stop-color:#ffffff;stop-opacity:1;"
         offset="0"
         id="stop43183" />
      <stop
         style="stop-color:#ffffff;stop-opacity:0;"
         offset="1"
         id="stop43185" />
    </linearGradient>
    <linearGradient
       id="linearGradient43128">
      <stop
         style="stop-color:#e7c8c8;stop-opacity:1;"
         offset="0"
         id="stop43130" />
      <stop
         style="stop-color:#caa592;stop-opacity:0;"
         offset="1"
         id="stop43132" />
    </linearGradient>
    <linearGradient
       inkscape:collect="always"
       id="linearGradient43112">
      <stop
         style="stop-color:#ffffff;stop-opacity:1;"
         offset="0"
         id="stop43114" />
      <stop
         style="stop-color:#ffffff;stop-opacity:0;"
         offset="1"
         id="stop43116" />
    </linearGradient>
    <linearGradient
       id="linearGradient43098">
      <stop
         style="stop-color:#b0874f;stop-opacity:1;"
         offset="0"
         id="stop43100" />
      <stop
         id="stop43106"
         offset="0.8085953"
         style="stop-color:#b0874f;stop-opacity:1;" />
      <stop
         style="stop-color:#b0874f;stop-opacity:0;"
         offset="1"
         id="stop43102" />
    </linearGradient>
    <filter
       inkscape:collect="always"
       id="filter43148"
       color-interpolation-filters="sRGB">
      <feGaussianBlur
         inkscape:collect="always"
         stdDeviation="3.0309837"
         id="feGaussianBlur43150" />
    </filter>
    <filter
       inkscape:collect="always"
       id="filter43193"
       color-interpolation-filters="sRGB">
      <feGaussianBlur
         inkscape:collect="always"
         stdDeviation="3.8100807"
         id="feGaussianBlur43195" />
    </filter>
    <filter
       inkscape:collect="always"
       id="filter43273"
       color-interpolation-filters="sRGB">
      <feGaussianBlur
         inkscape:collect="always"
         stdDeviation="5.1635849"
         id="feGaussianBlur43275" />
    </filter>
    <filter
       inkscape:collect="always"
       id="filter43372"
       x="-0.043449938"
       width="1.0868999"
       y="-0.20996116"
       height="1.4199224"
       color-interpolation-filters="sRGB">
      <feGaussianBlur
         inkscape:collect="always"
         stdDeviation="5.3943052"
         id="feGaussianBlur43374" />
    </filter>
    <filter
       inkscape:collect="always"
       id="filter43447"
       color-interpolation-filters="sRGB">
      <feGaussianBlur
         inkscape:collect="always"
         stdDeviation="2.5474821"
         id="feGaussianBlur43449" />
    </filter>
    <filter
       inkscape:collect="always"
       id="filter43465"
       color-interpolation-filters="sRGB">
      <feGaussianBlur
         inkscape:collect="always"
         stdDeviation="2.4657501"
         id="feGaussianBlur43467" />
    </filter>
    <filter
       inkscape:collect="always"
       id="filter43483"
       color-interpolation-filters="sRGB">
      <feGaussianBlur
         inkscape:collect="always"
         stdDeviation="5.2764911"
         id="feGaussianBlur43485" />
    </filter>
    <filter
       inkscape:collect="always"
       id="filter43511"
       color-interpolation-filters="sRGB">
      <feGaussianBlur
         inkscape:collect="always"
         stdDeviation="1.2845041"
         id="feGaussianBlur43513" />
    </filter>
    <filter
       inkscape:collect="always"
       id="filter43515"
       color-interpolation-filters="sRGB">
      <feGaussianBlur
         inkscape:collect="always"
         stdDeviation="2.4580808"
         id="feGaussianBlur43517" />
    </filter>
    <filter
       inkscape:collect="always"
       id="filter43523"
       color-interpolation-filters="sRGB">
      <feGaussianBlur
         inkscape:collect="always"
         stdDeviation="0.49785788"
         id="feGaussianBlur43525" />
    </filter>
    <filter
       inkscape:collect="always"
       id="filter43531"
       color-interpolation-filters="sRGB">
      <feGaussianBlur
         inkscape:collect="always"
         stdDeviation="1.2908962"
         id="feGaussianBlur43533" />
    </filter>
    <filter
       inkscape:collect="always"
       id="filter43535"
       color-interpolation-filters="sRGB">
      <feGaussianBlur
         inkscape:collect="always"
         stdDeviation="1.290828"
         id="feGaussianBlur43537" />
    </filter>
    <filter
       inkscape:collect="always"
       id="filter43547"
       color-interpolation-filters="sRGB">
      <feGaussianBlur
         inkscape:collect="always"
         stdDeviation="1.1166079"
         id="feGaussianBlur43549" />
    </filter>
    <filter
       inkscape:collect="always"
       id="filter43551"
       color-interpolation-filters="sRGB">
      <feGaussianBlur
         inkscape:collect="always"
         stdDeviation="1.1166079"
         id="feGaussianBlur43553" />
    </filter>
    <filter
       inkscape:collect="always"
       id="filter43587"
       x="-0.1430677"
       width="1.2861354"
       y="-0.12959637"
       height="1.2591927"
       color-interpolation-filters="sRGB">
      <feGaussianBlur
         inkscape:collect="always"
         stdDeviation="2.5111711"
         id="feGaussianBlur43589" />
    </filter>
    <filter
       inkscape:collect="always"
       id="filter43591"
       color-interpolation-filters="sRGB">
      <feGaussianBlur
         inkscape:collect="always"
         stdDeviation="2.5111711"
         id="feGaussianBlur43593" />
    </filter>
    <filter
       inkscape:collect="always"
       id="filter43595"
       color-interpolation-filters="sRGB">
      <feGaussianBlur
         inkscape:collect="always"
         stdDeviation="2.5111711"
         id="feGaussianBlur43597" />
    </filter>
    <linearGradient
       inkscape:collect="always"
       xlink:href="#linearGradient43299"
       id="linearGradient43677"
       gradientUnits="userSpaceOnUse"
       gradientTransform="matrix(0.99661526,0.08220715,-0.08220715,0.99661526,676.79086,184.01665)"
       x1="288.71695"
       y1="345.50497"
       x2="334.18304"
       y2="168.65768" />
    <linearGradient
       inkscape:collect="always"
       xlink:href="#linearGradient43098"
       id="linearGradient43679"
       gradientUnits="userSpaceOnUse"
       x1="960.9339"
       y1="2.6993458"
       x2="837.08942"
       y2="207.15617" />
    <radialGradient
       inkscape:collect="always"
       xlink:href="#linearGradient43112"
       id="radialGradient43681"
       gradientUnits="userSpaceOnUse"
       gradientTransform="matrix(0.57915171,0.03532912,-0.06570191,1.0770541,308.21893,-11.126632)"
       cx="769.745"
       cy="-290.37549"
       fx="769.745"
       fy="-290.37549"
       r="16.209866" />
    <radialGradient
       inkscape:collect="always"
       xlink:href="#linearGradient43181"
       id="radialGradient43683"
       gradientUnits="userSpaceOnUse"
       gradientTransform="matrix(1.3003142,-1.0674172,0.71951017,0.87649824,-715.51917,1163.7025)"
       cx="999.21484"
       cy="556.09625"
       fx="999.21484"
       fy="556.09625"
       r="192.5032" />
    <linearGradient
       inkscape:collect="always"
       xlink:href="#linearGradient43611"
       id="linearGradient43685"
       gradientUnits="userSpaceOnUse"
       gradientTransform="translate(665.66086,174.14431)"
       x1="288.71695"
       y1="345.50497"
       x2="334.18304"
       y2="168.65768" />
    <linearGradient
       inkscape:collect="always"
       xlink:href="#linearGradient43394"
       id="linearGradient43687"
       gradientUnits="userSpaceOnUse"
       x1="905.37238"
       y1="851.40881"
       x2="1128.9647"
       y2="688.03168" />
    <linearGradient
       inkscape:collect="always"
       xlink:href="#linearGradient43311"
       id="linearGradient43689"
       gradientUnits="userSpaceOnUse"
       x1="890.76141"
       y1="762.87787"
       x2="1080.7896"
       y2="762.87787" />
    <linearGradient
       inkscape:collect="always"
       xlink:href="#linearGradient43421"
       id="linearGradient43691"
       gradientUnits="userSpaceOnUse"
       x1="787.38037"
       y1="439.68497"
       x2="809.52417"
       y2="417.89828" />
  </defs>
  <sodipodi:namedview
     id="base"
     pagecolor="#ffffff"
     bordercolor="#666666"
     borderopacity="1.0"
     inkscape:pageopacity="0.0"
     inkscape:pageshadow="2"
     inkscape:zoom="4.234778"
     inkscape:cx="76.977286"
     inkscape:cy="103.31121"
     inkscape:document-units="px"
     inkscape:current-layer="layer1"
     showgrid="false"
     fit-margin-top="0"
     fit-margin-left="0"
     fit-margin-right="0"
     fit-margin-bottom="0"
     inkscape:window-width="1724"
     inkscape:window-height="1022"
     inkscape:window-x="130"
     inkscape:window-y="24"
     inkscape:window-maximized="0" />
  <metadata
     id="metadata42429">
    <rdf:RDF>
      <cc:Work
         rdf:about="">
        <dc:format>image/svg+xml</dc:format>
        <dc:type
           rdf:resource="http://purl.org/dc/dcmitype/StillImage" />
        <dc:title></dc:title>
      </cc:Work>
    </rdf:RDF>
  </metadata>
  <g
     inkscape:label="Layer 1"
     inkscape:groupmode="layer"
     id="layer1"
     transform="translate(37.572395,-568.44199)">
    <g
       id="g43653"
       transform="matrix(0.25395368,0,0,0.25395368,-209.70264,569.39036)">
      <g
         style="filter:url(#filter43551)"
         id="g43451">
        <path
           inkscape:connector-curvature="0"
           id="path43429"
           d="m 1100.6428,773.72695 c -52.9498,-12.74718 -41.1832,-13.72773 -82.3664,-26.4749 -41.18317,-12.74718 -35.29986,-18.63049 -75.50249,-18.63049 -40.20262,0 -50.00814,-5.88331 -71.58028,7.84442 -21.57214,13.72772 -41.18318,38.24152 -45.10539,45.10538 -3.9222,6.86386 2.94166,9.80552 15.68883,9.80552 12.74718,0 19.61104,0 44.12484,0 24.51379,0 38.24152,0 86.28856,-0.98055 48.04703,-0.98055 87.26913,-3.92221 103.93853,-7.84442 16.6693,-3.9222 24.5138,-8.82496 24.5138,-8.82496 z"
           style="fill:#533910;fill-opacity:0.55251142;stroke:none;filter:url(#filter43447)" />
        <path
           style="fill:#c0a172;fill-opacity:1;stroke:none"
           d="m 1092.6428,765.72695 c -52.9498,-12.74718 -41.1832,-13.72773 -82.3664,-26.4749 -41.18317,-12.74718 -35.29986,-18.63049 -75.50249,-18.63049 -40.20262,0 -50.00814,-5.88331 -71.58028,7.84442 -21.57214,13.72772 -41.18318,38.24152 -45.10539,45.10538 -3.9222,6.86386 2.94166,9.80552 15.68883,9.80552 12.74718,0 19.61104,0 44.12484,0 24.51379,0 38.24152,0 86.28856,-0.98055 48.04703,-0.98055 87.26913,-3.92221 103.93853,-7.84442 16.6693,-3.9222 24.5138,-8.82496 24.5138,-8.82496 z"
           id="path42979"
           inkscape:connector-curvature="0" />
      </g>
      <path
         style="fill:url(#linearGradient43677);fill-opacity:1;stroke:none;filter:url(#filter43535)"
         d="m 1050.2816,446.59227 c -3.2604,10.50399 -33.2086,54.36985 -41.6074,64.96977 -6.2864,7.9338 -21.90818,37.52035 -52.7216,33.78167 -30.81341,-3.73868 -96.50935,-19.93063 -115.23759,-25.06643 -18.72824,-5.13579 -94.50458,-29.08691 -112.96994,-38.04628 -16.11301,-7.81802 -34.7215,-24.91957 -29.5392,-48.25693 3.8238,-17.21964 14.13809,-24.76035 33.24163,-25.65118 19.9136,-0.9286 66.40418,10.94255 81.34781,15.08902 18.39619,5.10446 58.93696,18.43989 80.66134,23.41135 24.50885,5.60867 28.62963,7.75316 34.67867,2.514 8.84128,-7.65759 6.89605,-21.38719 9.67884,-32.37088 2.78278,-10.98369 5.97073,-22.59687 12.30752,-26.86215 6.33679,-4.26526 25.30884,-8.33876 34.722,-6.36531 9.41317,1.97345 47.68622,18.81318 55.30212,26.10752 7.6158,7.29433 13.3963,26.24184 10.1358,36.74583 z"
         id="path43291"
         inkscape:connector-curvature="0"
         sodipodi:nodetypes="zssssssssszsszz" />
      <path
         sodipodi:nodetypes="cssssssssssszc"
         inkscape:connector-curvature="0"
         id="path42951"
         d="m 1258.356,433.31988 c 16.2909,65.02007 16.1376,121.11101 5.8833,181.40209 -13.4678,79.18578 -42.8081,149.11774 -64.7164,156.88829 -25.4001,9.00907 -37.261,13.72773 -79.4247,8.82497 -42.1637,-4.90276 -88.3637,-4.09123 -125.51062,-21.57214 -33.33876,-15.68883 -49.02759,-17.64994 -69.61918,-56.87201 -19.6362,-37.40227 -25.49435,-35.29986 -29.41656,-74.52194 -3.61136,-36.11355 6.86386,-44.12483 -2.94165,-63.73587 -9.80552,-19.61103 -54.91091,-99.03573 -53.93035,-131.39394 0.98055,-32.35821 -11.76663,-74.52194 3.9222,-99.03574 15.68883,-24.51379 72.33417,-123.08278 86.28857,-91.19132 13.33867,30.48426 39.47568,38.36808 55.89145,41.18318 56.12874,9.62538 66.67874,-0.96731 118.67854,9.49392 51.9998,10.46122 127.905,58.81549 154.8954,140.53051 z"
         style="fill:#c09046;fill-opacity:1;stroke:none;filter:url(#filter43515)" />
      <path
         sodipodi:nodetypes="zsssssssssz"
         inkscape:connector-curvature="0"
         id="path43075"
         d="m 931.96964,294.31834 c 2.45138,-14.21801 -2.09848,-52.08766 -11.90399,-73.77821 -6.62472,-14.65441 -18.63049,-58.83311 -61.77477,-72.56083 -43.14428,-13.72773 -80.40525,-3.92221 -107.8607,14.70828 -21.92236,14.87588 -55.89146,57.85255 -63.73587,86.28856 -7.3012,26.46685 -8.17908,76.59266 0,100.99683 8.40305,25.07243 11.76073,28.2993 19.61104,37.26097 10.41821,11.89311 53.93035,18.63049 68.63863,15.68883 14.70827,-2.94165 38.24152,-4.90276 52.94979,-9.80552 14.70828,-4.90275 59.47178,-25.12432 73.00587,-40.48774 11.94022,-13.55412 28.61862,-44.09316 31.07,-58.31117 z"
         style="fill:#af7d32;fill-opacity:1;stroke:none;filter:url(#filter43511)" />
      <path
         sodipodi:nodetypes="zsssssssz"
         inkscape:connector-curvature="0"
         id="path43126"
         d="m 759.30743,227.42557 c 15.1169,-16.79656 72.78512,-48.15016 89.58168,-59.34787 16.79657,-11.19771 -10.07794,21.27565 -14.55702,48.15016 -4.47909,26.87451 -19.03611,52.62925 -27.99428,60.46764 -8.95817,7.8384 -32.47336,11.19772 -41.43153,31.35359 -8.95817,20.15588 -12.31748,36.95245 -23.51519,34.71291 -11.19771,-2.23954 -16.79657,-19.03611 -10.07794,-30.23382 6.71862,-11.19771 16.79656,-27.99428 19.0361,-44.79084 2.23955,-16.79657 -6.15873,-23.5152 8.95818,-40.31177 z"
         style="fill:#dabfa1;fill-opacity:0.49771693;stroke:none;filter:url(#filter43148)" />
      <path
         sodipodi:nodetypes="zssssssssz"
         inkscape:connector-curvature="0"
         id="path43067"
         d="m 826.33272,202.46661 c 9.3427,11.37048 35.88035,28.8596 56.47194,7.28746 20.59159,-21.57214 49.02759,-42.16373 57.85256,-73.54139 8.82497,-31.37767 15.68883,-62.755316 27.45545,-78.444146 11.76662,-15.688833 24.5138,-25.494351 13.72773,-40.202629 -10.78607,-14.708277 -34.31932,-21.57214 -54.9109,-7.844414 -20.59159,13.727725 -48.04704,33.338762 -64.71643,52.949803 -16.66938,19.61103 -22.55269,24.51379 -35.29986,45.105376 -12.74717,20.5916 -19.61104,32.35822 -16.66938,51.96926 2.94165,19.61103 6.74619,31.3502 16.08889,42.72068 z"
         style="fill:url(#linearGradient43679);fill-opacity:1;stroke:none;filter:url(#filter43595)" />
      <path
         sodipodi:nodetypes="czcszzc"
         inkscape:connector-curvature="0"
         id="path43069"
         d="m 871.03804,161.70703 c 30.39711,-25.49435 31.67733,-30.56636 50.9887,-61.774772 19.31137,-31.20841 47.35128,-53.059756 50.98869,-73.541386 0.98056,-10.78607 -10.78607,-21.57214 -19.61103,-17.649933 -8.82497,3.922207 -32.19347,18.214729 -42.16373,31.377659 -9.97026,13.16293 -19.24214,29.216468 -23.53324,50.008146 -4.2911,20.791676 -11.55316,47.763436 -16.66939,71.580286 z"
         style="opacity:0.75308646;fill:#664204;fill-opacity:1;stroke:none;filter:url(#filter43591)" />
      <g
         style="filter:url(#filter43587)"
         transform="translate(5.5988555,-4.4790844)"
         id="g43120">
        <rect
           style="color:#000000;fill:#000000;fill-opacity:1;fill-rule:nonzero;stroke:none;stroke-width:4;marker:none;visibility:visible;display:inline;overflow:visible;enable-background:accumulate"
           id="rect43108"
           width="32.419731"
           height="53.660244"
           x="755.04846"
           y="-310.79843"
           ry="26.830122"
           transform="matrix(0.77848507,0.62766312,-0.62766312,0.77848507,0,0)" />
        <rect
           transform="matrix(0.77848507,0.62766312,-0.62766312,0.77848507,0,0)"
           ry="26.830122"
           y="-310.7984"
           x="755.0484"
           height="53.660244"
           width="32.419731"
           id="rect43110"
           style="opacity:0.37448563;color:#000000;fill:url(#radialGradient43681);fill-opacity:1;fill-rule:nonzero;stroke:none;stroke-width:4;marker:none;visibility:visible;display:inline;overflow:visible;enable-background:accumulate" />
      </g>
      <path
         sodipodi:nodetypes="ccssscszcc"
         inkscape:connector-curvature="0"
         id="path43178"
         d="m 877.1147,433.43956 c -30.40418,10.36506 -18.50348,16.63774 -28.4657,40.04366 13.77724,34.74066 36.26143,74.83537 42.84375,88 9.80551,19.61104 -0.67386,27.63645 2.9375,63.75 3.92221,39.22208 1.67408,42.66533 29.40625,74.53125 34.35302,39.47366 18.13561,47.75164 61.5625,53.15625 79.3974,8.2315 62.5965,0.0665 72.875,-8.15625 11.1977,-8.95817 21.4568,29.7414 71.4281,-26.06515 49.9713,-55.80656 28.6812,-128.05309 15.9156,-159.80985 -42.85,-106.54842 -196.60838,-138.12158 -268.503,-125.44991 z"
         style="opacity:0.61728396;fill:url(#radialGradient43683);fill-opacity:1;stroke:none;filter:url(#filter43193)" />
      <path
         style="fill:#71582b;fill-opacity:1;stroke:none;filter:url(#filter43273)"
         d="m 1029.3121,482.91198 c -5.6129,8.42373 -18.7496,39.19436 -49.76603,38.00142 -31.01646,-1.19294 -97.82113,-11.92941 -116.90818,-15.50823 -71.99486,-66.91264 -58.25205,-74.67227 -35.78822,-94.24231 18.75354,3.57488 60.25336,13.53243 82.3129,16.70117 24.88697,3.57488 124.60533,5.37336 130.20313,-0.34535 4.1059,51.8155 -3.9019,15.15519 -10.0536,55.3933 z"
         id="path43251"
         inkscape:connector-curvature="0"
         sodipodi:nodetypes="csccscc" />
      <path
         sodipodi:nodetypes="zssssssssszsszz"
         inkscape:connector-curvature="0"
         id="path43239"
         d="m 1059.473,405.12757 c -2.3859,10.73647 -28.6266,56.9158 -36.1256,68.17029 -5.6129,8.42373 -18.7496,39.19436 -49.76603,38.00142 -31.01646,-1.19294 -97.82113,-11.92941 -116.90818,-15.50823 -19.08705,-3.57882 -96.57586,-21.21951 -115.71524,-28.63057 -16.70117,-6.46695 -36.65254,-21.98087 -33.40628,-45.66526 2.39528,-17.4757 12.05476,-25.8388 31.0204,-28.29706 19.76986,-2.5625 67.07898,5.44662 82.3129,8.35058 18.75354,3.57488 60.25336,13.53243 82.3129,16.70117 24.88697,3.57488 29.17009,5.37336 34.76796,-0.34535 8.18185,-8.35848 5.11453,-21.8817 6.98496,-33.05698 1.87043,-11.17528 4.0929,-23.01122 10.05761,-27.78299 5.9647,-4.77176 24.53767,-10.39111 34.0812,-9.19817 9.54354,1.19294 49.0713,14.82936 57.2611,21.47293 8.1897,6.64357 15.5082,25.05175 13.1223,35.78822 z"
         style="fill:url(#linearGradient43685);fill-opacity:1;stroke:none;filter:url(#filter43531)" />
      <g
         style="filter:url(#filter43547)"
         id="g43404">
        <path
           style="fill:#3f2618;fill-opacity:1;stroke:none;filter:url(#filter43372)"
           d="m 955.3332,732.60389 c -16.46182,0.10337 -32.39478,3.71666 -44.28125,15.5 -0.4458,0.44194 -0.87828,0.87852 -1.3125,1.34375 -13.72773,14.70828 -27.45279,28.42919 -31.375,34.3125 -3.92221,5.88331 -3.93401,9.8125 0.96875,9.8125 4.90276,0 60.36434,2.07162 90.21875,-0.96875 160.56675,-16.46272 54.83735,-46.73722 -6.875,-59.84375 -2.45138,-0.12257 -4.90386,-0.17157 -7.34375,-0.15625 z"
           id="path43329"
           inkscape:connector-curvature="0"
           sodipodi:nodetypes="sssssccs" />
        <path
           style="fill:url(#linearGradient43687);fill-opacity:1;stroke:none"
           d="m 1188.7368,774.55192 c -64.7164,-4.90276 -74.5219,-3.92221 -91.1913,-14.70828 -16.6694,-10.78607 -11.7666,-17.64993 -35.2998,-21.57214 -23.5333,-3.92221 -64.71647,-7.84441 -84.32751,-8.82497 -19.61104,-0.98055 -39.22207,1.96111 -52.9498,16.66938 -13.72773,14.70828 -27.45545,28.43601 -31.37766,34.31932 -3.92221,5.88331 -3.92221,9.80552 0.98055,9.80552 4.90276,0 59.81366,-0.98055 90.21077,-0.98055 30.39715,0 106.88015,-1.96111 131.39395,-4.90276 24.5138,-2.94166 72.5608,-9.80552 72.5608,-9.80552 z"
           id="path42961"
           inkscape:connector-curvature="0" />
        <path
           inkscape:connector-curvature="0"
           id="path43309"
           d="m 1065.6203,759.36257 c -53.9321,-18.62494 -57.1237,-22.46755 -76.73475,-23.44811 -19.61104,-0.98055 -50.18943,-4.50682 -63.91716,10.20145 -13.72773,14.70828 -27.45545,28.43601 -31.37766,34.31932 -3.92221,5.88331 -3.92221,9.80552 0.98055,9.80552 4.90276,0 60.35636,2.05982 90.21077,-0.98055 29.85445,-3.04037 134.77025,-11.27269 80.83825,-29.89763 z"
           style="fill:url(#linearGradient43689);fill-opacity:1;stroke:none"
           sodipodi:nodetypes="zsssszz" />
      </g>
      <path
         transform="translate(-84.999985,-54.99493)"
         inkscape:connector-curvature="0"
         id="path43409"
         d="m 792.14052,443.19841 c 10.3347,8.10016 11.73128,6.14495 17.87624,8.10016 6.14495,1.95522 8.6588,3.3518 11.73127,1.95522 3.07248,-1.39658 -2.51384,-15.64171 -4.46905,-20.94871 -1.95522,-5.30701 -12.56923,-19.27281 -17.87624,-22.06598 -5.307,-2.79316 -18.15554,-6.9829 -20.94871,-6.42427 -2.79316,0.55864 -5.02769,-0.27931 -5.307,2.51385 -0.27932,2.79316 4.46906,17.03828 8.37948,23.46255 3.91043,6.42427 10.61401,13.40718 10.61401,13.40718 z"
         style="opacity:0.75720167;fill:url(#linearGradient43691);fill-opacity:1;stroke:none;filter:url(#filter43523)" />
      <path
         style="fill:#976407;fill-opacity:0.65753425;stroke:none;filter:url(#filter43465)"
         d="m 826.42,161.1026 c -8.94129,-19.2317 -47.03456,-16.67056 -74.49001,1.95993 -21.92236,14.87588 -55.89146,57.85255 -63.73587,86.28856 -7.3012,26.46685 -5.04456,56.58101 10.12369,77.37488 6.52829,8.94952 18.1288,6.8947 21.4858,2.01553 3.357,-4.87917 -6.72019,-50.60199 16.52384,-84.8558 11.62201,-17.1269 23.23166,-27.35583 43.76673,-45.98861 C 800.62925,179.2643 835.3613,180.33431 826.42,161.1026 z"
         id="path43455"
         inkscape:connector-curvature="0"
         sodipodi:nodetypes="zssszssz" />
      <path
         style="fill:#a5731d;fill-opacity:0.63013695;stroke:none;filter:url(#filter43483)"
         d="m 1258.356,433.31988 c 16.2909,65.02007 16.1376,121.11101 5.8833,181.40209 -13.4678,79.18578 -42.8081,149.11774 -64.7164,156.88829 -25.4001,9.00907 -37.261,13.72773 -79.4247,8.82497 -59.4682,11.36149 -0.1274,-6.45571 37.4446,-51.29211 37.5719,-44.83639 53.375,-116.69199 55.5975,-165.58961 2.2225,-48.89761 -126.4905,-172.24711 -140.6924,-220.48593 -14.202,-48.23881 -20.9871,-60.73944 31.0127,-50.27821 51.9998,10.46122 127.905,58.81549 154.8954,140.53051 z"
         id="path43469"
         inkscape:connector-curvature="0"
         sodipodi:nodetypes="csscszzzc" />
    </g>
  </g>
</svg>
