<?xml version="1.0" encoding="UTF-8" standalone="no"?>
<!-- Created with Inkscape (http://www.inkscape.org/) -->

<svg
   xmlns:dc="http://purl.org/dc/elements/1.1/"
   xmlns:cc="http://creativecommons.org/ns#"
   xmlns:rdf="http://www.w3.org/1999/02/22-rdf-syntax-ns#"
   xmlns:svg="http://www.w3.org/2000/svg"
   xmlns="http://www.w3.org/2000/svg"
   xmlns:xlink="http://www.w3.org/1999/xlink"
   xmlns:sodipodi="http://sodipodi.sourceforge.net/DTD/sodipodi-0.dtd"
   xmlns:inkscape="http://www.inkscape.org/namespaces/inkscape"
   width="744.09448819"
   height="1052.3622047"
   id="svg2"
   version="1.1"
   inkscape:version="0.48.2 r9819"
   sodipodi:docname="village_church.svg">
  <defs
     id="defs4">
    <linearGradient
       id="linearGradient4542">
      <stop
         style="stop-color:#88b2ba;stop-opacity:1;"
         offset="0"
         id="stop4544" />
      <stop
         style="stop-color:#293135;stop-opacity:0;"
         offset="1"
         id="stop4546" />
    </linearGradient>
    <linearGradient
       id="linearGradient4502">
      <stop
         style="stop-color:#eacf98;stop-opacity:1;"
         offset="0"
         id="stop4504" />
      <stop
         style="stop-color:#c09550;stop-opacity:1;"
         offset="1"
         id="stop4506" />
    </linearGradient>
    <linearGradient
       id="linearGradient4486">
      <stop
         style="stop-color:#be8b32;stop-opacity:1;"
         offset="0"
         id="stop4488" />
      <stop
         style="stop-color:#a1601f;stop-opacity:1;"
         offset="1"
         id="stop4490" />
    </linearGradient>
    <linearGradient
       id="linearGradient4462">
      <stop
         style="stop-color:#ef1b1b;stop-opacity:1;"
         offset="0"
         id="stop4464" />
      <stop
         style="stop-color:#a91b1b;stop-opacity:1;"
         offset="1"
         id="stop4466" />
    </linearGradient>
    <filter
       inkscape:collect="always"
       id="filter4152"
       x="-0.10839999"
       width="1.2168"
       y="-0.053900555"
       height="1.1078011">
      <feGaussianBlur
         inkscape:collect="always"
         stdDeviation="2.0456984"
         id="feGaussianBlur4154" />
    </filter>
    <filter
       inkscape:collect="always"
       id="filter4182">
      <feGaussianBlur
         inkscape:collect="always"
         stdDeviation="2.1211852"
         id="feGaussianBlur4184" />
    </filter>
    <filter
       inkscape:collect="always"
       id="filter4360">
      <feGaussianBlur
         inkscape:collect="always"
         stdDeviation="1.0543267"
         id="feGaussianBlur4362" />
    </filter>
    <linearGradient
       inkscape:collect="always"
       xlink:href="#linearGradient4462"
       id="linearGradient4468"
       x1="920.72815"
       y1="221.69308"
       x2="1103.7012"
       y2="280.08517"
       gradientUnits="userSpaceOnUse" />
    <linearGradient
       inkscape:collect="always"
       xlink:href="#linearGradient4462"
       id="linearGradient4484"
       x1="876.71869"
       y1="101.15186"
       x2="924.50879"
       y2="149.86824"
       gradientUnits="userSpaceOnUse" />
    <linearGradient
       inkscape:collect="always"
       xlink:href="#linearGradient4486"
       id="linearGradient4492"
       x1="891.09369"
       y1="149.67908"
       x2="892.4574"
       y2="405.90485"
       gradientUnits="userSpaceOnUse" />
    <linearGradient
       inkscape:collect="always"
       xlink:href="#linearGradient4486"
       id="linearGradient4500"
       x1="1012.6909"
       y1="276.28882"
       x2="1010.9128"
       y2="406.81897"
       gradientUnits="userSpaceOnUse" />
    <linearGradient
       inkscape:collect="always"
       xlink:href="#linearGradient4502"
       id="linearGradient4508"
       x1="858.64429"
       y1="156.75252"
       x2="852.37262"
       y2="404.42505"
       gradientUnits="userSpaceOnUse" />
    <linearGradient
       inkscape:collect="always"
       xlink:href="#linearGradient4502"
       id="linearGradient4516"
       x1="921.18213"
       y1="232.98906"
       x2="920.35535"
       y2="407.02921"
       gradientUnits="userSpaceOnUse" />
    <filter
       inkscape:collect="always"
       id="filter4536"
       x="-0.039464367"
       width="1.0789287"
       y="-0.12509352"
       height="1.250187">
      <feGaussianBlur
         inkscape:collect="always"
         stdDeviation="3.252567"
         id="feGaussianBlur4538" />
    </filter>
    <linearGradient
       inkscape:collect="always"
       xlink:href="#linearGradient4542"
       id="linearGradient4548"
       x1="849.70135"
       y1="354.74176"
       x2="863.91895"
       y2="355.14426"
       gradientUnits="userSpaceOnUse" />
    <clipPath
       clipPathUnits="userSpaceOnUse"
       id="clipPath4669">
      <path
         style="fill:#ff2925;fill-opacity:1;stroke:none"
         d="m 602.2811,-348.03606 c -13.25776,0.75758 -17.80328,1.51517 -23.10639,7.19707 -5.3031,5.68189 -9.46982,11.74258 -8.71224,21.21241 0.75759,9.46983 0.37879,12.87897 0.37879,12.87897 0,0 -4.92431,-1.51517 -4.54551,5.3031 0.37879,6.81828 5.68189,15.15173 5.68189,15.15173 0,0 -2.65155,1.13638 -7.57586,4.54552 -4.92431,3.40914 -8.33345,7.95465 -8.33345,7.95465 0,0 -7.95465,-1.13638 -17.42448,0 -9.46983,1.13638 -28.40949,5.6819 -34.47018,14.01535 -6.06069,8.33345 -12.87897,7.57586 -12.50017,24.62155 0.37879,17.0457 1.51517,19.69725 9.09103,28.78828 7.57587,9.09104 15.15173,14.77294 19.69725,15.15173 4.54551,0.37879 22.34879,0 22.34879,0 0,0 -12.12138,18.18207 -16.6669,31.43983 -4.54551,13.25776 -14.39414,37.50052 -14.39414,37.50052 0,0 11.3638,11.74259 16.6669,11.74259 5.30311,0 14.39414,3.03034 14.39414,3.03034 l 0.3788,18.560867 15.53051,9.848621 37.50053,0.757587 c 0,0 15.53051,-2.272759 23.10638,-4.924311 7.57586,-2.651552 11.36379,-4.545518 11.36379,-7.954656 0,-3.409139 0.37879,-9.848618 0.37879,-9.848618 l 11.3638,-0.75759 c 0,0 4.92431,-1.13638 8.33345,-4.16672 3.40914,-3.03035 7.95465,-6.81828 7.95465,-6.81828 0,0 0.75759,-13.63655 -3.40913,-23.86397 -4.16673,-10.22741 -15.90932,-43.94 -15.90932,-43.94 l 3.40914,-4.54552 -11.36379,-17.42449 14.39414,-0.75758 14.01534,-5.30311 0,-3.40913 -18.56086,-9.46983 -22.3488,-4.54552 c 0,0 10.60621,-3.40914 12.50018,-7.57586 1.89396,-4.16673 3.40914,-8.71225 3.40914,-8.71225 l 0.75758,-18.18207 -6.81827,-12.50017 -0.75759,-3.03035 c 0,0 9.46983,0.3788 12.12138,-2.27275 2.65155,-2.65156 9.09103,-8.33345 9.09103,-8.33345 0,0 -10.985,-7.95466 -15.90931,-7.19707 -4.92431,0.75758 -5.3031,0.75758 -5.3031,0.75758 l -4.54552,-4.54551 c 0,0 8.33345,-3.03035 8.33345,-8.33345 0,-5.30311 3.03035,-15.90932 -0.37879,-21.59121 -3.40914,-5.6819 -4.54552,-14.01535 -10.60621,-15.90931 -6.06069,-1.89397 -18.56086,-4.54552 -18.56086,-4.54552 z"
         id="path4671"
         inkscape:connector-curvature="0" />
    </clipPath>
    <clipPath
       clipPathUnits="userSpaceOnUse"
       id="clipPath4679">
      <path
         style="fill:#ff2925;fill-opacity:1;stroke:none"
         d="m 614.48834,-1022.1973 c 14.36074,0.1889 26.07608,2.4564 30.61105,4.7239 4.53497,2.2675 7.55828,1.8896 8.88098,5.4798 1.3227,3.5901 2.6454,18.32879 4.72392,25.50916 2.07853,7.18036 6.80246,19.65153 6.42454,31.55583 -0.37791,11.90429 -0.37791,15.87239 -0.37791,15.87239 l 13.79387,5.66871 -0.75583,4.91288 c 0,0 -1.51166,1.13375 -7.18037,1.3227 -5.66871,0.18896 -8.69203,0.75583 -8.69203,0.75583 0,0 4.34602,2.83436 0.18896,8.12515 -4.15705,5.2908 -12.28221,10.77056 -19.46258,12.28221 -7.18036,1.51166 -5.85766,8.50307 -22.48588,8.12516 -16.62823,-0.37792 -16.62823,-3.02332 -26.83191,-4.72393 -10.20368,-1.70061 -16.81717,-2.26749 -22.10797,-6.99141 -5.2908,-4.72393 -9.82577,-10.20368 -9.44785,-24.75338 0.37791,-14.54969 2.45644,-29.28834 7.55828,-37.22454 5.10184,-7.93619 6.04662,-17.00613 9.25889,-23.80858 3.21227,-6.80248 2.07853,-8.50308 7.9362,-15.87238 5.85767,-7.3693 2.45644,-6.9914 10.58159,-8.692 8.12516,-1.7007 18.13988,-2.0786 18.13988,-2.0786 z"
         id="path4681"
         inkscape:connector-curvature="0" />
    </clipPath>
    <clipPath
       clipPathUnits="userSpaceOnUse"
       id="clipPath4689">
      <path
         style="fill:#ff2925;fill-opacity:1;stroke:none"
         d="m 524.09939,-863.98628 c 21.5276,0 22.70184,1.95705 25.83313,6.26257 3.13128,4.30552 9.78527,3.5227 12.13374,5.87117 2.34846,2.34846 1.95705,4.30552 1.95705,7.43681 0,3.13129 -2.73987,9.00245 -5.08834,12.13374 -2.34847,3.13129 -0.78282,11.74233 -0.39141,18.39632 0.39141,6.65399 0.78282,9.00245 -3.13129,14.0908 -3.91411,5.08834 -6.65399,2.34846 -7.0454,9.00245 -0.39141,6.65399 6.26258,5.47976 10.5681,12.52515 4.30552,7.0454 7.43681,7.82823 6.65399,22.70185 -0.78283,14.87361 0,28.96441 -1.17424,38.35828 -1.17423,9.39386 -3.91411,23.09325 -6.26257,28.96441 -2.34847,5.87117 3.5227,36.00982 1.95705,49.70921 -1.56564,13.69938 0,37.57546 0,37.57546 0,0 8.61105,-0.39141 11.74233,3.13129 3.13129,3.52269 5.47975,7.4368 5.08834,11.35091 -0.39141,3.91411 1.17424,4.30553 -8.21962,7.82823 -9.39387,3.5227 -30.13865,7.82822 -39.92393,8.61104 -9.78528,0.78282 -40.52717,0.76388 -43.83804,-2.34847 -9.9974,-9.39795 -10.26122,-12.44061 -10.17668,-19.96196 0.10155,-9.03586 5.08834,-27.00736 7.4368,-39.53252 2.34847,-12.52515 1.95706,-30.13865 0.78283,-39.92392 -1.17424,-9.78528 0,-8.21963 -8.61105,-21.52761 -8.61104,-13.30797 -18.39631,-24.65889 -17.22208,-39.53251 1.17423,-14.87362 2.73988,-25.05031 10.17669,-35.61841 9.388,-13.34084 19.57055,-10.95951 22.70184,-21.91902 3.13128,-10.95951 10.56809,-14.87362 3.91411,-19.57055 -6.65399,-4.69693 -12.13375,-3.5227 -11.35092,-16.43926 0.78282,-12.91657 4.30552,-22.31043 12.13374,-27.39878 7.82822,-5.08834 29.35583,-10.17668 29.35583,-10.17668 z"
         id="path4691"
         inkscape:connector-curvature="0"
         sodipodi:nodetypes="csssssssssssscsssssssssssssssc" />
    </clipPath>
    <clipPath
       clipPathUnits="userSpaceOnUse"
       id="clipPath4699">
      <path
         style="fill:#ff2925;fill-opacity:1;stroke:none"
         d="m 427.42086,-847.78996 c 23.05276,-0.37792 31.36687,11.33742 31.36687,11.33742 0,0 10.95951,0.75583 10.95951,3.40123 0,2.64539 1.13374,7.18036 1.13374,7.18036 l -3.02331,3.40123 c 0,0 5.2908,4.15706 4.91288,14.36074 -0.37791,10.20368 -7.18037,17.76196 -7.93619,20.02944 -0.75583,2.26749 -3.40123,11.71534 -3.40123,11.71534 l -7.9362,1.88957 -6.42454,-10.95951 c 0,0 -1.51165,10.95951 -3.40122,10.5816 -1.88957,-0.37792 -7.9362,1.13374 -8.69203,-0.37792 -0.75583,-1.51165 -1.51166,-3.02331 -1.51166,-3.02331 l -8.31411,7.9362 -9.44785,-0.37792 -0.37791,7.18037 -5.66871,7.18037 -1.88957,26.45399 24.1865,27.58773 14.73865,8.31411 4.53497,7.18037 -0.75583,12.47116 c 0,0 -7.18037,4.53497 -23.05276,3.77914 -15.87239,-0.75583 -26.8319,-3.02331 -36.27976,-9.06994 -9.44785,-6.04662 -31.36687,-24.56441 -31.36687,-24.56441 l -9.06994,2.6454 13.227,25.69816 c 0,0 -3.77914,1.88957 -11.71534,13.6049 -7.9362,11.71534 -5.66871,17.00614 -6.04662,30.61105 -0.37792,13.6049 0.37791,23.80859 4.53496,29.4773 4.15706,5.66871 6.80246,8.31411 6.80246,8.31411 l -25.32025,1.51165 -3.77914,5.66872 -21.5411,-0.37792 -1.51166,-20.78527 10.95951,-29.85522 -15.11656,0.75583 -24.94234,27.58773 1.51166,7.18037 20.02945,4.53497 c 0,0 5.66871,1.13374 4.53497,7.55828 -1.13374,6.42454 -4.91289,10.20368 -4.91289,10.20368 l -68.40245,2.6454 0.37792,-18.51779 6.42453,-11.71534 5.66872,-16.25031 15.87239,-25.32024 9.06994,-2.26749 10.20368,-74.07116 -4.15706,-12.47117 6.04663,-7.18037 17.00613,-6.42454 69.5362,-47.99509 9.06994,-0.37791 10.20368,-13.227 8.31411,0 -0.75583,-10.95951 17.00614,-8.69202 1.13374,-8.69202 12.47117,-6.80246 z"
         id="path4701"
         inkscape:connector-curvature="0" />
    </clipPath>
    <filter
       id="filter4890"
       inkscape:label="Inner Shadow"
       inkscape:menu="Shadows and Glows"
       inkscape:menu-tooltip="Adds a colorizable drop shadow inside"
       color-interpolation-filters="sRGB">
      <feGaussianBlur
         id="feGaussianBlur4892"
         stdDeviation="4"
         result="result8" />
      <feOffset
         id="feOffset4894"
         dx="4"
         dy="4"
         result="result11" />
      <feComposite
         id="feComposite4896"
         in2="result11"
         result="result6"
         in="SourceGraphic"
         operator="in" />
      <feFlood
         id="feFlood4898"
         result="result10"
         in="result6"
         flood-opacity="1"
         flood-color="rgb(0,0,0)" />
      <feBlend
         id="feBlend4900"
         in2="result10"
         mode="normal"
         in="result6"
         result="result12" />
      <feComposite
         id="feComposite4902"
         in2="SourceGraphic"
         result="result2"
         operator="in" />
    </filter>
    <filter
       id="filter4918"
       inkscape:label="Inner Shadow"
       inkscape:menu="Shadows and Glows"
       inkscape:menu-tooltip="Adds a colorizable drop shadow inside"
       color-interpolation-filters="sRGB">
      <feGaussianBlur
         id="feGaussianBlur4920"
         stdDeviation="4"
         result="result8" />
      <feOffset
         id="feOffset4922"
         dx="4"
         dy="4"
         result="result11" />
      <feComposite
         id="feComposite4924"
         in2="result11"
         result="result6"
         in="SourceGraphic"
         operator="in" />
      <feFlood
         id="feFlood4926"
         result="result10"
         in="result6"
         flood-opacity="1"
         flood-color="rgb(0,0,0)" />
      <feBlend
         id="feBlend4928"
         in2="result10"
         mode="normal"
         in="result6"
         result="result12" />
      <feComposite
         id="feComposite4930"
         in2="SourceGraphic"
         result="result2"
         operator="in" />
    </filter>
    <filter
       id="filter4932"
       inkscape:label="Inner Shadow"
       inkscape:menu="Shadows and Glows"
       inkscape:menu-tooltip="Adds a colorizable drop shadow inside"
       color-interpolation-filters="sRGB">
      <feGaussianBlur
         id="feGaussianBlur4934"
         stdDeviation="4"
         result="result8" />
      <feOffset
         id="feOffset4936"
         dx="4"
         dy="4"
         result="result11" />
      <feComposite
         id="feComposite4938"
         in2="result11"
         result="result6"
         in="SourceGraphic"
         operator="in" />
      <feFlood
         id="feFlood4940"
         result="result10"
         in="result6"
         flood-opacity="1"
         flood-color="rgb(0,0,0)" />
      <feBlend
         id="feBlend4942"
         in2="result10"
         mode="normal"
         in="result6"
         result="result12" />
      <feComposite
         id="feComposite4944"
         in2="SourceGraphic"
         result="result2"
         operator="in" />
    </filter>
    <filter
       id="filter4946"
       inkscape:label="Inner Shadow"
       inkscape:menu="Shadows and Glows"
       inkscape:menu-tooltip="Adds a colorizable drop shadow inside"
       color-interpolation-filters="sRGB">
      <feGaussianBlur
         id="feGaussianBlur4948"
         stdDeviation="4"
         result="result8" />
      <feOffset
         id="feOffset4950"
         dx="4"
         dy="4"
         result="result11" />
      <feComposite
         id="feComposite4952"
         in2="result11"
         result="result6"
         in="SourceGraphic"
         operator="in" />
      <feFlood
         id="feFlood4954"
         result="result10"
         in="result6"
         flood-opacity="1"
         flood-color="rgb(0,0,0)" />
      <feBlend
         id="feBlend4956"
         in2="result10"
         mode="normal"
         in="result6"
         result="result12" />
      <feComposite
         id="feComposite4958"
         in2="SourceGraphic"
         result="result2"
         operator="in" />
    </filter>
  </defs>
  <sodipodi:namedview
     id="base"
     pagecolor="#ffffff"
     bordercolor="#666666"
     borderopacity="1.0"
     inkscape:pageopacity="0.0"
     inkscape:pageshadow="2"
     inkscape:zoom="0.44915771"
     inkscape:cx="457.75621"
     inkscape:cy="1551.9128"
     inkscape:document-units="px"
     inkscape:current-layer="layer1"
     showgrid="false"
     inkscape:window-width="1711"
     inkscape:window-height="962"
     inkscape:window-x="66"
     inkscape:window-y="24"
     inkscape:window-maximized="0" />
  <metadata
     id="metadata7">
    <rdf:RDF>
      <cc:Work
         rdf:about="">
        <dc:format>image/svg+xml</dc:format>
        <dc:type
           rdf:resource="http://purl.org/dc/dcmitype/StillImage" />
        <dc:title></dc:title>
      </cc:Work>
    </rdf:RDF>
  </metadata>
  <g
     inkscape:label="Layer 1"
     inkscape:groupmode="layer"
     id="layer1">
    <g
       id="g4705"
       transform="translate(-1140.6834,0)">
      <rect
         ry="0.9722718"
         y="7.6673727"
         x="884.76733"
         height="70.357124"
         width="1.9445436"
         id="rect4192"
         style="color:#000000;fill:#250000;fill-opacity:1;fill-rule:nonzero;stroke:none;stroke-width:0.9646073;marker:none;visibility:visible;display:inline;overflow:visible;enable-background:accumulate" />
      <path
         sodipodi:nodetypes="ccccc"
         inkscape:connector-curvature="0"
         id="rect4048"
         d="m 939.05852,265.36395 165.56818,17.9219 -0.5032,124.4172 -165.06498,0 z"
         style="color:#000000;fill:url(#linearGradient4500);fill-opacity:1;fill-rule:nonzero;stroke:none;stroke-width:0.9646073;marker:none;visibility:visible;display:inline;overflow:visible;enable-background:accumulate" />
      <path
         style="fill:#000000;fill-opacity:1;stroke:none;filter:url(#filter4536)"
         d="m 913.87396,226.09567 157.85914,17.61364 39.9436,44.78896 -169.27792,-14.7544 z"
         id="path4518"
         inkscape:connector-curvature="0"
         sodipodi:nodetypes="ccccc" />
      <path
         sodipodi:nodetypes="ccccc"
         inkscape:connector-curvature="0"
         id="path4051"
         d="m 912.38644,222.00498 157.85916,17.61364 39.9436,44.78896 -169.27794,-14.7544 z"
         style="fill:url(#linearGradient4468);fill-opacity:1;stroke:none" />
      <path
         sodipodi:nodetypes="ccccc"
         inkscape:connector-curvature="0"
         id="path4055"
         d="m 920.43838,233.07641 18.62014,31.70455 1.00649,142.90466 -19.22055,-0.90933 z"
         style="fill:url(#linearGradient4516);fill-opacity:1;stroke:none" />
      <path
         sodipodi:nodetypes="ccccc"
         inkscape:connector-curvature="0"
         id="rect4045"
         d="m 868.99509,148.05421 52.84089,4.47628 -1.18831,253.61888 -55.95755,0.2647 z"
         style="color:#000000;fill:url(#linearGradient4492);fill-opacity:1;fill-rule:nonzero;stroke:none;stroke-width:0.9646073;marker:none;visibility:visible;display:inline;overflow:visible;enable-background:accumulate" />
      <path
         inkscape:connector-curvature="0"
         id="path4057"
         d="m 869.10721,148.0277 -23.14935,17.11039 -5.53572,241.05521 24.15585,1.0065 z"
         style="opacity:0.86831276;fill:url(#linearGradient4508);fill-opacity:1;stroke:none" />
      <path
         style="fill:#000000;fill-opacity:1;stroke:none;filter:url(#filter4182)"
         d="m 863.19087,149.34639 21.63961,-72.467543 41.76948,78.003263 z"
         id="path4160"
         inkscape:connector-curvature="0"
         sodipodi:nodetypes="cccc" />
      <g
         id="g4156">
        <path
           sodipodi:nodetypes="cccc"
           inkscape:connector-curvature="0"
           id="path4122"
           d="m 866.95599,146.81669 21.5868,-71.90947 -45.29222,91.08767 z"
           style="fill:#000900;fill-opacity:1;stroke:none;filter:url(#filter4152)" />
        <path
           style="fill:#ff0000;fill-opacity:1;stroke:none"
           d="m 864.12756,146.46314 21.5868,-71.909473 -45.29222,91.087673 z"
           id="path4061"
           inkscape:connector-curvature="0"
           sodipodi:nodetypes="cccc" />
      </g>
      <path
         sodipodi:nodetypes="cccc"
         inkscape:connector-curvature="0"
         id="path4059"
         d="m 864.07475,146.51796 21.63961,-72.46754 41.76948,78.00326 z"
         style="fill:url(#linearGradient4484);fill-opacity:1;stroke:none" />
      <path
         sodipodi:nodetypes="ccsccc"
         inkscape:connector-curvature="0"
         id="path4063-2"
         d="m 980.5717,352.1545 -0.1012,-43.65674 c 0,0 -1.2263,-12.69232 -8.2718,-12.69232 -7.0454,0 -8.2718,12.69232 -8.2718,12.69232 l 0,43.04951 z"
         style="fill:#111b25;fill-opacity:1;stroke:none" />
      <path
         style="fill:#111b25;fill-opacity:1;stroke:none"
         d="m 1011.5688,353.69896 0.1012,-43.12838 c 0,0 -1.2263,-12.50972 -8.2718,-12.50972 -7.0454,0 -8.2718,12.50972 -8.2718,12.50972 l 0,42.43014 z"
         id="path4083"
         inkscape:connector-curvature="0"
         sodipodi:nodetypes="ccsccc" />
      <path
         sodipodi:nodetypes="ccsccc"
         inkscape:connector-curvature="0"
         id="path4085"
         d="m 1043.1731,354.83861 0,-41.92636 c 0,0 -1.2263,-12.18925 -8.2718,-12.18925 -7.0454,0 -8.2718,12.18925 -8.2718,12.18925 l 0,41.3432 z"
         style="fill:#111b25;fill-opacity:1;stroke:none" />
      <path
         style="fill:#111b25;fill-opacity:1;stroke:none"
         d="m 1074.6761,356.18066 0,-40.78847 c 0,0 -1.2263,-11.8037 -8.2718,-11.8037 -7.0454,0 -8.2718,11.8037 -8.2718,11.8037 l 0,40.03551 z"
         id="path4087"
         inkscape:connector-curvature="0"
         sodipodi:nodetypes="ccsccc" />
      <path
         sodipodi:nodetypes="ccsccc"
         inkscape:connector-curvature="0"
         id="path4093"
         d="m 902.2978,380.93482 0,-43.04951 c 0,0 -1.2263,-12.69232 -8.2718,-12.69232 -7.0454,0 -8.2718,12.69232 -8.2718,12.69232 l 0,43.04951 z"
         style="fill:#111b25;fill-opacity:1;stroke:none" />
      <path
         style="fill:#111b25;fill-opacity:1;stroke:none"
         d="m 859.92177,406.78078 0,-74.09766 c 0,0 0.1344,-22.14433 -6.22571,-22.30384 -5.56073,-0.13946 -6.53075,21.84627 -6.53075,21.84627 l -0.96183,74.09766 z"
         id="path4095"
         inkscape:connector-curvature="0"
         sodipodi:nodetypes="ccsccc" />
      <path
         inkscape:connector-curvature="0"
         id="path4190"
         d="m 845.87648,164.94317 -4.94974,0.17678 22.98097,-19.97577 63.28605,6.36397 -6.18718,1.23743 -52.67946,-4.59619 z"
         style="fill:#250000;fill-opacity:1;stroke:none" />
      <rect
         transform="matrix(-0.33490421,-0.94225218,0.929915,-0.36777451,0,0)"
         style="color:#000000;fill:#250000;fill-opacity:1;fill-rule:nonzero;stroke:none;stroke-width:0.9646073;marker:none;visibility:visible;display:inline;overflow:visible;enable-background:accumulate"
         id="rect4194"
         width="0.81511074"
         height="28.329472"
         x="-352.87131"
         y="811.5968"
         ry="0.39148766" />
      <g
         id="g4364">
        <rect
           ry="15.06181"
           y="171.24634"
           x="880.03998"
           height="30.123619"
           width="30.123619"
           id="rect4302"
           style="color:#000000;fill:#000000;fill-opacity:1;fill-rule:nonzero;stroke:none;stroke-width:0.9646073;marker:none;visibility:visible;display:inline;overflow:visible;filter:url(#filter4360);enable-background:accumulate" />
        <rect
           style="color:#000000;fill:#fdffff;fill-opacity:1;fill-rule:nonzero;stroke:none;stroke-width:0.9646073;marker:none;visibility:visible;display:inline;overflow:visible;enable-background:accumulate"
           id="rect4097"
           width="30.123619"
           height="30.123619"
           x="880.03998"
           y="171.24634"
           ry="15.06181" />
        <path
           style="color:#000000;fill:#250000;fill-opacity:1;fill-rule:nonzero;stroke:none;stroke-width:0.9646073;marker:none;visibility:visible;display:inline;overflow:visible;enable-background:accumulate"
           id="path4198"
           d="m 895.47192,172.31727 c 0.1688,0.18553 0.20648,0.4382 0.23723,0.67756 0.0379,0.50371 0.0276,1.00995 0.0277,1.51477 -9.3e-4,0.51851 1.9e-4,1.03697 0.007,1.55544 0,0 -0.61889,0.31522 -0.61889,0.31522 l 0,0 c 0.009,-0.52129 0.0118,-1.0426 0.01,-1.56396 -0.002,-0.49886 3.4e-4,-0.99905 -0.0441,-1.49634 -0.0295,-0.21795 -0.0574,-0.46232 -0.2256,-0.62184 0,0 0.60632,-0.38085 0.60632,-0.38085 z"
           inkscape:connector-curvature="0" />
        <path
           style="color:#000000;fill:#250000;fill-opacity:1;fill-rule:nonzero;stroke:none;stroke-width:0.9646073;marker:none;visibility:visible;display:inline;overflow:visible;enable-background:accumulate"
           id="path4200"
           d="m 895.44641,197.08394 c -0.0403,0.25013 -0.0475,0.50403 -0.0554,0.7568 -0.007,0.276 -0.006,0.55209 -0.005,0.82814 8.7e-4,0.13784 -0.002,0.0725 0.008,0.1961 0,0 -0.62907,0.32687 -0.62907,0.32687 l 0,0 c -0.0101,-0.13022 -0.007,-0.0625 -0.007,-0.20324 0.001,-0.27742 0.004,-0.55485 0.009,-0.83222 0.006,-0.25252 0.0127,-0.50528 0.0372,-0.75681 0,0 0.64182,-0.31564 0.64182,-0.31564 z"
           inkscape:connector-curvature="0" />
        <path
           style="color:#000000;fill:#250000;fill-opacity:1;fill-rule:nonzero;stroke:none;stroke-width:0.9646073;marker:none;visibility:visible;display:inline;overflow:visible;enable-background:accumulate"
           id="path4202"
           d="m 905.96025,185.8906 c 0.20255,0.003 0.40515,0.003 0.60772,0.003 0.26297,7.7e-4 0.52593,0.001 0.7889,8.1e-4 0.21352,-0.001 0.42705,-0.001 0.64057,-0.002 0.14285,-0.008 0.28842,0.0128 0.42975,-0.0118 0,0 -0.57224,0.4258 -0.57224,0.4258 l 0,0 c -0.14344,0.008 -0.28731,0.001 -0.43093,0.003 -0.21174,-8.2e-4 -0.42348,-6.7e-4 -0.63522,-0.002 -0.26371,-2.1e-4 -0.52742,4e-5 -0.79113,8.1e-4 -0.20538,-1.5e-4 -0.41077,2e-4 -0.61613,0.003 0,0 0.57871,-0.42046 0.57871,-0.42046 z"
           inkscape:connector-curvature="0" />
        <path
           style="color:#000000;fill:#250000;fill-opacity:1;fill-rule:nonzero;stroke:none;stroke-width:0.9646073;marker:none;visibility:visible;display:inline;overflow:visible;enable-background:accumulate"
           id="path4204"
           d="m 882.15485,185.72114 c 0.25549,0.0337 0.51352,0.0411 0.77085,0.0477 0.2678,0.006 0.53567,0.005 0.80351,0.004 0.17988,-0.001 0.35977,-9.6e-4 0.53966,-0.002 0.14292,4.3e-4 0.28583,2.3e-4 0.42875,-1.9e-4 0,0 -0.57489,0.4177 -0.57489,0.4177 l 0,0 c -0.14284,-3.9e-4 -0.28567,-5.4e-4 -0.4285,6e-5 -0.1788,-3.5e-4 -0.35761,2.3e-4 -0.5364,-0.001 -0.26628,-0.002 -0.53257,-0.004 -0.79879,-0.01 -0.26327,-0.007 -0.52671,-0.0165 -0.78874,-0.0449 0,0 0.58455,-0.41216 0.58455,-0.41216 z"
           inkscape:connector-curvature="0" />
        <path
           style="color:#000000;fill:#250000;fill-opacity:1;fill-rule:nonzero;stroke:none;stroke-width:0.9646073;marker:none;visibility:visible;display:inline;overflow:visible;enable-background:accumulate"
           id="path4206"
           d="m 902.60839,176.78015 c -0.10455,0.18913 -0.22613,0.36811 -0.33608,0.55413 0,0 -0.64659,0.28746 -0.64659,0.28746 l 0,0 c 0.10637,-0.18397 0.2259,-0.35983 0.33332,-0.5432 0,0 0.64935,-0.29839 0.64935,-0.29839 z"
           inkscape:connector-curvature="0" />
        <path
           style="color:#000000;fill:#250000;fill-opacity:1;fill-rule:nonzero;stroke:none;stroke-width:0.9646073;marker:none;visibility:visible;display:inline;overflow:visible;enable-background:accumulate"
           id="path4208"
           d="m 905.65607,182.23627 c -0.16729,0.0698 -0.3371,0.13411 -0.50847,0.19331 -0.0903,0.036 -0.18323,0.0642 -0.27662,0.0909 0,0 0.56124,-0.43313 0.56124,-0.43313 l 0,0 c 0.092,-0.0286 0.18337,-0.0587 0.27346,-0.0929 0.17322,-0.0626 0.34441,-0.13029 0.51588,-0.19746 0,0 -0.56549,0.43933 -0.56549,0.43933 z"
           inkscape:connector-curvature="0" />
        <path
           style="color:#000000;fill:#250000;fill-opacity:1;fill-rule:nonzero;stroke:none;stroke-width:0.9646073;marker:none;visibility:visible;display:inline;overflow:visible;enable-background:accumulate"
           id="path4210"
           d="m 905.35416,190.72426 c 0.16822,0.03 0.3347,0.0735 0.49554,0.1314 0.15417,0.0372 0.28723,0.11814 0.41741,0.20455 0.0163,0.0119 0.0325,0.0239 0.0488,0.0358 0,0 -0.60269,0.38265 -0.60269,0.38265 l 0,0 c -0.0158,-0.0113 -0.0317,-0.0226 -0.0475,-0.0338 -0.12445,-0.0851 -0.25631,-0.15385 -0.40351,-0.19163 -0.16092,-0.0536 -0.32585,-0.0967 -0.49447,-0.11754 0,0 0.58643,-0.41144 0.58643,-0.41144 z"
           inkscape:connector-curvature="0" />
        <path
           style="color:#000000;fill:#250000;fill-opacity:1;fill-rule:nonzero;stroke:none;stroke-width:0.9646073;marker:none;visibility:visible;display:inline;overflow:visible;enable-background:accumulate"
           id="path4212"
           d="m 900.95687,194.61874 c 0.14867,0.12713 0.28432,0.26868 0.4208,0.40865 0.12363,0.13718 0.26301,0.25876 0.41844,0.35838 0.0199,0.0145 0.0398,0.0289 0.0597,0.0434 0,0 -0.60114,0.38135 -0.60114,0.38135 l 0,0 c -0.019,-0.0139 -0.038,-0.0278 -0.0569,-0.0416 -0.15511,-0.10753 -0.29737,-0.2321 -0.42323,-0.37304 -0.13445,-0.13888 -0.26899,-0.27992 -0.42394,-0.39624 0,0 0.60631,-0.38084 0.60631,-0.38084 z"
           inkscape:connector-curvature="0" />
        <path
           style="color:#000000;fill:#250000;fill-opacity:1;fill-rule:nonzero;stroke:none;stroke-width:0.9646073;marker:none;visibility:visible;display:inline;overflow:visible;enable-background:accumulate"
           id="path4214"
           d="m 890.67543,195.03773 c -0.0852,0.14795 -0.15611,0.30369 -0.249,0.44704 -0.0599,0.0996 -0.13036,0.18908 -0.21548,0.26795 0,0 -0.6615,0.26639 -0.6615,0.26639 l 0,0 c 0.0932,-0.0671 0.16803,-0.15014 0.22519,-0.25035 0.0996,-0.13584 0.16881,-0.28833 0.24876,-0.43603 0,0 0.65203,-0.295 0.65203,-0.295 z"
           inkscape:connector-curvature="0" />
        <path
           style="color:#000000;fill:#250000;fill-opacity:1;fill-rule:nonzero;stroke:none;stroke-width:0.9646073;marker:none;visibility:visible;display:inline;overflow:visible;enable-background:accumulate"
           id="path4216"
           d="m 886.5621,191.66517 c -0.35172,0.2453 -0.74139,0.41657 -1.11759,0.61544 -0.1,0.047 -0.0512,0.0226 -0.14628,0.0731 0,0 0.55444,-0.44466 0.55444,-0.44466 l 0,0 c 0.0957,-0.0479 0.0473,-0.0238 0.14498,-0.0722 0.26404,-0.13338 1.00488,-0.52692 -0.10147,0.0888 0,0 0.66592,-0.26056 0.66592,-0.26056 z"
           inkscape:connector-curvature="0" />
        <path
           style="color:#000000;fill:#250000;fill-opacity:1;fill-rule:nonzero;stroke:none;stroke-width:0.9646073;marker:none;visibility:visible;display:inline;overflow:visible;enable-background:accumulate"
           id="path4218"
           d="m 884.86058,180.22716 c 0.10884,0.14601 0.23833,0.27457 0.35545,0.41356 0.087,0.12022 0.19637,0.22024 0.29749,0.32771 0.0127,0.0112 0.0253,0.0225 0.038,0.0337 0,0 -0.60814,0.37584 -0.60814,0.37584 l 0,0 c -0.0133,-0.0128 -0.0266,-0.0256 -0.0399,-0.0384 -0.10132,-0.10864 -0.20632,-0.21406 -0.29502,-0.33381 -0.11695,-0.14037 -0.24504,-0.27115 -0.3624,-0.41128 0,0 0.61459,-0.36733 0.61459,-0.36733 z"
           inkscape:connector-curvature="0" />
        <path
           style="color:#000000;fill:#250000;fill-opacity:1;fill-rule:nonzero;stroke:none;stroke-width:0.9646073;marker:none;visibility:visible;display:inline;overflow:visible;enable-background:accumulate"
           id="path4220"
           d="m 889.26665,176.7641 c 0.14772,0.0659 0.29665,0.12924 0.45318,0.17102 0.1193,0.0436 0.23925,0.0883 0.34239,0.16353 0.0473,0.0284 0.0857,0.0677 0.12852,0.10205 0,0 -0.60615,0.37968 -0.60615,0.37968 l 0,0 c -0.0404,-0.0339 -0.0792,-0.0699 -0.12427,-0.0977 -0.10076,-0.065 -0.21452,-0.10655 -0.3273,-0.14595 -0.15861,-0.0492 -0.31117,-0.11521 -0.46422,-0.17929 0,0 0.59785,-0.39336 0.59785,-0.39336 z"
           inkscape:connector-curvature="0" />
        <path
           style="color:#000000;fill:#250000;fill-opacity:1;fill-rule:nonzero;stroke:none;stroke-width:0.9646073;marker:none;visibility:visible;display:inline;overflow:visible;enable-background:accumulate"
           id="path4222"
           d="m 895.81253,177.3169 c -0.003,0.20937 -0.001,0.41808 -0.0194,0.62681 -0.0223,0.2132 -0.034,0.42723 -0.0397,0.64145 -0.005,0.20513 -0.005,0.41032 -0.004,0.61549 -10e-4,0.19901 0.005,0.39812 -0.006,0.59686 -0.0194,0.25708 -0.0422,0.51339 -0.0814,0.76828 -0.0404,0.26133 -0.0979,0.51973 -0.16063,0.77651 -0.0683,0.2476 -0.0921,0.50286 -0.10617,0.7583 -0.006,0.25505 -0.0168,0.51 -0.0499,0.7631 -0.0367,0.20469 -0.0581,0.41119 -0.0696,0.61867 -0.009,0.2091 -0.008,0.41844 -0.009,0.62769 0.004,0.18471 -0.0256,0.36784 -0.0408,0.55156 -0.0124,0.1583 -0.0157,0.31709 -0.0172,0.47581 -7.7e-4,0.16223 -7.3e-4,0.32446 -4.6e-4,0.48669 -0.009,0.14211 -0.0332,0.28246 -0.0465,0.42416 -0.004,0.052 -0.01,0.10322 -0.004,0.1551 0,0 -0.63446,0.33409 -0.63446,0.33409 l 0,0 c -0.008,-0.0573 -0.006,-0.11327 -2.1e-4,-0.17104 0.0118,-0.14066 0.0344,-0.27973 0.0518,-0.41973 -2e-5,-0.16244 -6.7e-4,-0.32488 2.6e-4,-0.48732 10e-4,-0.16041 0.002,-0.32101 0.0155,-0.48095 0.0155,-0.18242 0.0438,-0.3643 0.0455,-0.54735 10e-5,-0.21037 5.6e-4,-0.42078 0.008,-0.63105 0.009,-0.20971 0.0278,-0.41867 0.0673,-0.62514 0.041,-0.25058 0.0524,-0.50488 0.0555,-0.75851 0.0129,-0.25896 0.0318,-0.51888 0.0999,-0.77027 0.0649,-0.25484 0.12237,-0.51205 0.16464,-0.77166 0.0412,-0.25197 0.063,-0.50582 0.08,-0.76048 0.0149,-0.19693 0.004,-0.39461 0.007,-0.59199 7.6e-4,-0.20585 2.2e-4,-0.41173 0.004,-0.61755 0.006,-0.21567 0.0161,-0.43125 0.0387,-0.64594 0.0197,-0.20556 0.0237,-0.41088 0.015,-0.61735 0,0 0.63635,-0.32424 0.63635,-0.32424 z"
           inkscape:connector-curvature="0" />
        <path
           style="color:#000000;fill:#250000;fill-opacity:1;fill-rule:nonzero;stroke:none;stroke-width:0.9646073;marker:none;visibility:visible;display:inline;overflow:visible;enable-background:accumulate"
           id="path4224"
           d="m 895.94322,177.7829 c 0.0466,0.22191 0.0929,0.44389 0.12639,0.6682 0.0235,0.24098 0.0438,0.48224 0.0652,0.72347 0.0238,0.25172 0.0282,0.50469 0.0334,0.75731 0.003,0.22075 0.003,0.44152 0.003,0.66229 -0.003,0.21999 -0.002,0.43908 0.0146,0.65846 0.0196,0.24469 0.0616,0.48666 0.0827,0.73126 0.0183,0.21675 0.0217,0.43428 0.023,0.65167 -7.3e-4,0.21388 -0.002,0.42696 0.0154,0.64022 0.0212,0.23684 0.0304,0.47419 0.0552,0.7107 0.0256,0.20414 0.0386,0.40941 0.047,0.61488 -0.003,0.18125 0.0107,0.36073 0.0296,0.54074 0.018,0.16052 0.0294,0.32162 0.0333,0.48307 -0.004,0.16306 0.007,0.32421 0.0274,0.48581 0.0216,0.153 0.029,0.30738 0.0325,0.46168 0.0554,0.47546 0.021,0.28029 -0.63232,0.67576 -0.11153,6e-5 -0.21609,-0.0332 -0.3235,-0.0579 -0.11816,-0.0257 -0.2391,-0.0313 -0.35955,-0.0349 -0.1324,-0.0236 -0.26414,-0.0397 -0.39374,-0.0758 -0.12771,-0.0421 -0.20229,-0.14875 -0.28004,-0.25074 -0.0834,-0.12168 -0.16392,-0.24385 -0.22911,-0.37634 -0.0618,-0.13033 -0.0851,-0.27143 -0.0971,-0.41374 0,0 0.63314,-0.32847 0.63314,-0.32847 l 0,0 c 0.008,0.13394 0.0252,0.26756 0.082,0.39091 0.0628,0.12835 0.14299,0.24528 0.22356,0.363 0.071,0.0908 0.13722,0.18269 0.25591,0.21114 0.12584,0.0327 0.25541,0.0482 0.38443,0.0629 0.12344,0.006 0.24696,0.0164 0.36736,0.046 0.0942,0.0223 0.20392,0.0599 0.29612,0.0144 -0.19231,0.11795 -0.38374,0.23734 -0.57693,0.35386 -0.01,0.006 0.0197,-0.0121 0.0259,-0.0215 0.0437,-0.0667 -0.0124,-0.16374 -0.009,-0.23424 -0.004,-0.15221 -0.009,-0.30453 -0.0288,-0.45568 -0.0198,-0.16355 -0.0382,-0.32624 -0.0317,-0.49143 -0.004,-0.16006 -0.0102,-0.32014 -0.0278,-0.4794 -0.0197,-0.18143 -0.0387,-0.36201 -0.0329,-0.54492 -0.005,-0.20468 -0.0163,-0.40917 -0.0401,-0.61262 -0.0256,-0.23678 -0.0363,-0.47416 -0.0569,-0.7114 -0.0196,-0.21473 -0.0231,-0.42913 -0.0189,-0.64476 -0.002,-0.21599 -0.003,-0.43216 -0.0186,-0.64771 -0.0206,-0.24473 -0.0593,-0.48695 -0.083,-0.73123 -0.0199,-0.22074 -0.0235,-0.44124 -0.019,-0.66287 2e-5,-0.22074 10e-4,-0.44148 -7.2e-4,-0.66222 -0.002,-0.25126 -0.008,-0.50268 -0.0298,-0.75311 -0.0226,-0.23992 -0.0447,-0.47957 -0.0644,-0.71969 -0.0309,-0.22066 -0.0746,-0.43922 -0.13136,-0.65471 0,0 0.62779,-0.34221 0.62779,-0.34221 z"
           inkscape:connector-curvature="0" />
        <path
           style="color:#000000;fill:#250000;fill-opacity:1;fill-rule:nonzero;stroke:none;stroke-width:0.9646073;marker:none;visibility:visible;display:inline;overflow:visible;enable-background:accumulate"
           id="path4226"
           d="m 895.40891,185.42013 c 0.21811,0.0155 0.42636,0.0771 0.63623,0.13368 0.23241,0.0436 0.45325,0.12853 0.67829,0.19805 0.25132,0.0916 0.47565,0.24492 0.70983,0.37281 0.33371,0.18663 0.66744,0.37311 1.00044,0.56103 0.30735,0.17111 0.61558,0.34074 0.92065,0.51589 0.25702,0.15889 0.52843,0.28789 0.80475,0.4086 0.27209,0.12307 0.53186,0.2696 0.7906,0.41807 0.22027,0.13162 0.44811,0.25031 0.68342,0.35263 0.18865,0.0817 0.37217,0.17493 0.55543,0.26814 0.14299,0.0591 0.26996,0.14951 0.41257,0.20899 0.11925,0.0608 0.23793,0.12342 0.35468,0.18908 0.12906,0.0835 0.25006,0.1811 0.36373,0.28442 0.11972,0.0994 0.23673,0.20133 0.36063,0.2955 0.10356,0.0855 0.20356,0.17078 0.28387,0.27916 0.0308,0.0592 0.0727,0.17369 -0.006,0.22114 -0.63078,0.37841 -0.42209,0.339 -0.74324,0.38577 -0.18073,0.0183 -0.36349,0.0243 -0.54444,0.008 -0.21596,-0.036 -0.42826,-0.091 -0.63378,-0.16618 -0.20251,-0.0745 -0.39015,-0.18455 -0.58424,-0.27904 -0.25788,-0.12293 -0.51217,-0.2537 -0.76833,-0.38043 -0.23064,-0.1178 -0.46631,-0.22874 -0.70781,-0.32264 -0.25222,-0.0959 -0.48835,-0.22886 -0.73104,-0.34614 -0.27042,-0.13065 -0.54593,-0.25048 -0.82159,-0.36958 -0.2474,-0.0847 -0.48384,-0.19409 -0.71594,-0.31358 -0.18105,-0.10292 -0.36652,-0.19707 -0.55373,-0.28797 -0.1711,-0.0634 -0.33154,-0.15079 -0.50013,-0.22011 -0.17182,-0.084 -0.34557,-0.16345 -0.5195,-0.24298 -0.22563,-0.0965 -0.44984,-0.19641 -0.66951,-0.30582 -0.17612,-0.0924 -0.34553,-0.19659 -0.52332,-0.28595 -0.0895,-0.039 -0.1777,-0.0789 -0.27072,-0.10896 0,0 0.59022,-0.39928 0.59022,-0.39928 l 0,0 c 0.0933,0.0349 0.18412,0.0756 0.27378,0.11911 0.1747,0.0933 0.34415,0.1959 0.52,0.28692 0.21873,0.10992 0.44154,0.21089 0.66823,0.30334 0.17464,0.078 0.34764,0.15933 0.52114,0.23982 0.16777,0.073 0.33076,0.15633 0.50079,0.22416 0.18691,0.0912 0.37027,0.18909 0.55155,0.29112 0.23058,0.11739 0.46567,0.22397 0.709,0.31269 0.27657,0.11967 0.55299,0.24008 0.82438,0.37122 0.24201,0.11666 0.47853,0.24663 0.73077,0.34037 0.24093,0.0983 0.47811,0.20721 0.70784,0.32946 0.25659,0.12748 0.51204,0.25775 0.77264,0.37682 0.19256,0.0928 0.37826,0.20188 0.58061,0.27206 0.2024,0.0693 0.41059,0.125 0.6235,0.14988 0.17868,0.008 0.35978,0.006 0.53611,-0.027 0.28052,-0.0865 0.0339,-0.0163 -0.48802,0.30852 -0.0143,0.009 0.0335,-0.006 0.0488,-0.0137 0.0496,-0.0235 0.0251,-0.0696 0.009,-0.10681 -0.077,-0.10201 -0.17469,-0.18126 -0.27175,-0.26349 -0.12455,-0.0957 -0.24227,-0.19956 -0.36276,-0.30029 -0.11276,-0.0975 -0.22783,-0.19476 -0.35695,-0.27007 -0.11635,-0.063 -0.23198,-0.1278 -0.35186,-0.18382 -0.13929,-0.0664 -0.26836,-0.15242 -0.40981,-0.21475 -0.18271,-0.0914 -0.36403,-0.18601 -0.5518,-0.26664 -0.23414,-0.10787 -0.4622,-0.22776 -0.68263,-0.36163 -0.25675,-0.14805 -0.51649,-0.29118 -0.78797,-0.41082 -0.27678,-0.12292 -0.54605,-0.25916 -0.80466,-0.41739 -0.30507,-0.17361 -0.61082,-0.34601 -0.91694,-0.51776 -0.33369,-0.18731 -0.66649,-0.37616 -1.00329,-0.55785 -0.23287,-0.12539 -0.45887,-0.27115 -0.71037,-0.35635 -0.22289,-0.0719 -0.44362,-0.15135 -0.67395,-0.19735 -0.2117,-0.0568 -0.42349,-0.10707 -0.64319,-0.12041 0,0 0.58643,-0.41144 0.58643,-0.41144 z"
           inkscape:connector-curvature="0" />
        <path
           style="color:#000000;fill:#250000;fill-opacity:1;fill-rule:nonzero;stroke:none;stroke-width:0.9646073;marker:none;visibility:visible;display:inline;overflow:visible;enable-background:accumulate"
           id="path4228"
           d="m 895.99849,181.17053 c 0.0237,0.25212 0.0333,0.50512 0.0424,0.75809 0.007,0.22878 0.008,0.45767 0.0106,0.68652 0.0105,0.14298 0.0377,0.28379 0.0494,0.42668 0.0183,0.17637 -0.008,0.35239 -0.0245,0.52781 -0.0249,0.17048 -0.0556,0.33964 -0.0712,0.51134 -0.0196,0.13457 -0.0465,0.26766 -0.0605,0.40303 -0.01,0.12208 -0.008,0.24389 -0.0267,0.36505 -0.0177,0.1311 -0.0529,0.25858 -0.076,0.38866 -0.0212,0.12811 -0.0262,0.25799 -0.029,0.38757 -6.8e-4,0.10526 0.004,0.21009 -0.0204,0.3131 -0.21932,0.10239 -0.42942,0.22745 -0.65795,0.30718 -0.0231,0.008 -0.0215,-0.0442 -0.0294,-0.0674 -0.0502,-0.14832 -0.0612,-0.30926 -0.0777,-0.46374 -0.0164,-0.216 -0.0353,-0.43277 -0.0239,-0.6494 0.0146,-0.22626 0.0736,-0.44522 0.13332,-0.66277 0.0557,-0.21602 0.10761,-0.4324 0.13814,-0.65351 0.0183,-0.14235 0.0218,-0.28588 0.0231,-0.4292 0.009,-0.10626 0.0343,-0.20983 0.0466,-0.31575 0.0115,-0.12435 0.0126,-0.24938 0.0134,-0.37416 0.0108,-0.14742 -0.0141,-0.29227 -0.0342,-0.43756 -0.0115,-0.11229 -0.0487,-0.21919 -0.0676,-0.33033 -0.0241,-0.10452 -0.0581,-0.20828 -0.10045,-0.30693 -0.1197,0.21369 0.0442,-0.0845 0.60249,-0.29678 0.0283,-0.0108 -0.0197,0.0575 -0.0253,0.0873 -0.0301,0.16217 -0.0306,0.33164 -0.0379,0.49578 -0.0103,0.29148 -0.01,0.58315 -0.007,0.87475 0.001,0.15033 0.004,0.30066 0.003,0.451 -0.003,0.2048 -0.003,0.4096 -0.003,0.6144 -4.6e-4,0.18668 0.001,0.37336 0.003,0.56003 0.004,0.13934 -0.0266,0.27632 -0.0417,0.4143 -0.002,0.12883 0.0195,0.25659 0.0305,0.38475 -10e-4,0.11367 0.0471,0.21108 0.10667,0.30457 0.0832,0.10286 0.17049,0.20231 0.25123,0.30764 0.0615,0.0971 0.13268,0.18636 0.2059,0.2745 0.0678,0.06 0.16662,0.11429 0.1019,0.21492 -0.60928,0.35962 -0.52077,0.36649 -0.99074,0.37091 -0.11649,0.0138 -0.21255,-0.042 -0.31617,-0.0821 -0.0856,-0.064 -0.17498,-0.0524 -0.21567,-0.15935 0.20922,-0.13477 0.41252,-0.2792 0.62767,-0.4043 0.0155,-0.009 0.0354,0.006 0.0532,0.008 0.10788,0.0134 0.21335,0.0253 0.32072,0.0439 0.19423,0.0443 0.38848,0.0901 0.57111,0.17088 0.14295,0.0547 0.27939,0.12206 0.41195,0.19837 0.11428,0.0726 0.23303,0.13406 0.34654,0.20788 0.10552,0.0808 0.21917,0.15 0.31689,0.24051 0.0873,0.0742 0.18341,0.13683 0.27367,0.20743 0.0951,0.0708 0.1846,0.14381 0.28593,0.20599 0.10318,0.06 0.19733,0.13204 0.29336,0.20228 0.10107,0.0804 0.21038,0.15147 0.3222,0.21628 0.11342,0.0737 0.22585,0.1486 0.3385,0.22348 0.11669,0.0816 0.23594,0.15945 0.35482,0.23787 0.1322,0.0987 0.26214,0.19905 0.40334,0.28469 0.14622,0.0994 0.31234,0.16126 0.46673,0.24558 0.15686,0.0922 0.30675,0.19356 0.46939,0.27581 0.12,0.0534 0.23825,0.10984 0.36065,0.15788 0.13071,0.0451 0.26532,0.0788 0.39477,0.12792 0.17997,0.0799 0.35808,0.16372 0.54513,0.22597 0.14145,0.0506 0.28278,0.10353 0.42758,0.14384 0.10617,0.0325 0.21598,0.0583 0.32107,0.0948 0.10856,0.0437 0.22729,0.0697 0.32777,0.13103 0.21892,0.26385 -0.55875,0.39327 -0.62843,0.42237 -0.004,0.002 -0.27547,-0.0953 -0.28581,-0.0989 -0.23988,-0.0918 -0.48193,-0.17941 -0.71791,-0.28112 -0.18234,-0.0708 -0.34652,-0.17401 -0.51489,-0.27169 -0.19606,-0.10892 -0.39094,-0.22046 -0.57891,-0.34298 -0.16835,-0.11822 -0.31267,-0.26525 -0.47927,-0.38549 -0.1379,-0.0863 -0.26673,-0.18134 -0.38659,-0.29138 -0.0955,-0.0962 -0.18488,-0.1966 -0.27114,-0.30115 -0.10932,-0.13862 -0.25538,-0.23837 -0.39853,-0.3384 -0.14729,-0.0978 -0.28837,-0.20798 -0.44598,-0.28898 -0.1271,-0.0741 -0.27126,-0.1093 -0.40909,-0.15806 -0.17654,-0.0593 -0.35503,-0.11194 -0.53254,-0.16826 -0.19081,-0.058 -0.38162,-0.11131 -0.57907,-0.14103 -0.14664,-0.0194 -0.29477,-0.0198 -0.44241,-0.0203 -0.12831,2e-4 -0.25662,0.001 -0.38494,0.001 -0.0943,0.003 -0.1875,-0.0179 -0.28049,-0.0316 0,0 0.58222,-0.41028 0.58222,-0.41028 l 0,0 c 0.0913,0.0132 0.18285,0.0278 0.27549,0.0222 0.12807,-3.3e-4 0.25614,-0.001 0.38421,1.3e-4 0.14941,0.002 0.29946,0.005 0.44705,0.0307 0.19762,0.0366 0.38959,0.0935 0.5821,0.15056 0.17937,0.0545 0.35878,0.10886 0.5367,0.16796 0.14208,0.0473 0.28756,0.0891 0.41646,0.16747 0.15525,0.089 0.2988,0.19724 0.44638,0.29812 0.14868,0.10377 0.29915,0.20844 0.41343,0.35155 0.0847,0.10129 0.17212,0.19925 0.26498,0.29322 0.11876,0.10668 0.24698,0.19883 0.38018,0.28667 0.16336,0.12191 0.30542,0.26984 0.47557,0.38318 0.18726,0.122 0.38125,0.23297 0.57781,0.33925 0.16616,0.096 0.33055,0.19412 0.50958,0.26527 0.23353,0.10114 0.47082,0.19461 0.71123,0.27798 0.0569,0.0178 0.16067,0.0514 0.22202,0.0669 0.0226,0.006 0.0878,9.3e-4 0.0686,0.0141 -0.57301,0.39269 -0.74125,0.16684 -0.55129,0.38937 0.003,0.003 -0.005,-0.006 -0.008,-0.009 -0.0989,-0.0537 -0.2125,-0.0795 -0.31751,-0.11885 -0.10696,-0.03 -0.21184,-0.0658 -0.31904,-0.0948 -0.1434,-0.0453 -0.28514,-0.0962 -0.42592,-0.14903 -0.18531,-0.0679 -0.36349,-0.1525 -0.54676,-0.22543 -0.1327,-0.0443 -0.26825,-0.0795 -0.39953,-0.12841 -0.12222,-0.0513 -0.24185,-0.10734 -0.36072,-0.16595 -0.16046,-0.0863 -0.31125,-0.18747 -0.47016,-0.27624 -0.15658,-0.0823 -0.32125,-0.14963 -0.46828,-0.24944 -0.14115,-0.0873 -0.2715,-0.18935 -0.40691,-0.28502 -0.11935,-0.0779 -0.23756,-0.15753 -0.35537,-0.23771 -0.11229,-0.0734 -0.22315,-0.14898 -0.33622,-0.22125 -0.11248,-0.0693 -0.22591,-0.13802 -0.32915,-0.22073 -0.0925,-0.0713 -0.18769,-0.13819 -0.2885,-0.19749 -0.10281,-0.0633 -0.19174,-0.14228 -0.28999,-0.21195 -0.0932,-0.0694 -0.18926,-0.13539 -0.2757,-0.21319 -0.0971,-0.0857 -0.20832,-0.15338 -0.31209,-0.23062 -0.11097,-0.0741 -0.23058,-0.13189 -0.34241,-0.20472 -0.13129,-0.0726 -0.2657,-0.13759 -0.40502,-0.19349 -0.18031,-0.0738 -0.37021,-0.12009 -0.56124,-0.1571 -0.0849,-0.0133 -0.16846,-0.0268 -0.25463,-0.0273 -0.0206,-1.3e-4 -0.0415,-0.002 -0.0618,0.002 -0.0133,0.002 -0.0484,0.0237 -0.0372,0.0162 0.18966,-0.12696 0.38198,-0.2499 0.57298,-0.37485 -0.066,-0.0339 0.16123,0.0879 0.16958,0.0899 0.0965,0.0408 0.18988,0.0725 0.29731,0.0604 0.3989,-0.008 0.60656,-0.15434 -0.25563,0.3067 0.02,4.4e-4 0.0403,0.009 0.0599,0.005 0.0242,-0.005 -0.1013,-0.0976 -0.10428,-0.10962 -0.0738,-0.0888 -0.14371,-0.18015 -0.20591,-0.27767 -0.0822,-0.10662 -0.1706,-0.20772 -0.25448,-0.31268 -0.0659,-0.1017 -0.12441,-0.21074 -0.12368,-0.3352 -0.01,-0.13258 -0.0295,-0.26424 -0.0352,-0.39709 0.0135,-0.13637 0.0419,-0.27126 0.0456,-0.40797 10e-4,-0.18752 0.003,-0.37504 0.002,-0.56257 0,-0.2038 -10e-6,-0.40759 -0.003,-0.61137 -9.3e-4,-0.15131 4.7e-4,-0.30262 0.002,-0.45393 0.004,-0.29413 0.008,-0.58829 0.0165,-0.88232 0.006,-0.1661 0.0118,-0.33204 0.0221,-0.49793 0.002,-0.0349 -0.021,-0.0838 0.007,-0.10453 0.60341,-0.44585 0.47869,-0.55667 0.67769,-0.34588 0.0383,0.10621 0.0795,0.21151 0.10611,0.32133 0.017,0.11246 0.0551,0.21995 0.0664,0.3331 0.0191,0.14839 0.0476,0.29598 0.0385,0.44637 -4e-4,0.12643 10e-4,0.25302 -0.008,0.3792 -0.009,0.10488 -0.0267,0.20797 -0.0507,0.31047 -10e-4,0.1468 -0.005,0.29383 -0.0236,0.43963 -0.0309,0.22446 -0.0825,0.44389 -0.13781,0.66345 -0.0575,0.21341 -0.1207,0.4266 -0.13599,0.64843 -0.0174,0.21321 4.2e-4,0.42803 0.0138,0.64107 0.0121,0.11985 0.0236,0.23959 0.0524,0.35691 0.007,0.0275 0.0145,0.0548 0.0241,0.0815 0.005,0.0142 0.0326,0.0327 0.0199,0.0408 -0.19905,0.12719 -0.41348,0.22853 -0.62022,0.3428 0.009,7.4e-4 0.0194,0.008 0.0264,0.002 0.0444,-0.0337 0.0156,-0.21342 0.0237,-0.26511 0.002,-0.13283 0.006,-0.26594 0.0256,-0.39759 0.0207,-0.13055 0.055,-0.25748 0.0745,-0.38807 0.022,-0.11971 0.0244,-0.23893 0.0292,-0.36051 0.0121,-0.13599 0.0352,-0.27007 0.0631,-0.40368 0.0148,-0.17246 0.0411,-0.3428 0.0739,-0.51272 0.0145,-0.17134 0.0429,-0.3429 0.026,-0.51505 -0.0116,-0.14507 -0.0356,-0.28847 -0.0487,-0.43336 0.002,-0.22925 0.002,-0.45852 -0.004,-0.68773 -0.006,-0.24934 -0.0151,-0.49937 -0.0501,-0.74662 0,0 0.6322,-0.33209 0.6322,-0.33209 z"
           inkscape:connector-curvature="0" />
      </g>
      <g
         transform="matrix(0.59261336,-0.23663397,0.03627976,0.9627452,320.04102,224.12133)"
         id="g4424">
        <rect
           style="color:#000000;fill:#000000;fill-opacity:1;fill-rule:nonzero;stroke:none;stroke-width:0.9646073;marker:none;visibility:visible;display:inline;overflow:visible;filter:url(#filter4360);enable-background:accumulate"
           id="rect4426"
           width="30.123619"
           height="30.123619"
           x="880.03998"
           y="171.24634"
           ry="15.06181" />
        <rect
           ry="15.06181"
           y="171.24634"
           x="880.03998"
           height="30.123619"
           width="30.123619"
           id="rect4428"
           style="color:#000000;fill:#fdffff;fill-opacity:1;fill-rule:nonzero;stroke:none;stroke-width:0.9646073;marker:none;visibility:visible;display:inline;overflow:visible;enable-background:accumulate" />
        <path
           inkscape:connector-curvature="0"
           d="m 895.47192,172.31727 c 0.1688,0.18553 0.20648,0.4382 0.23723,0.67756 0.0379,0.50371 0.0276,1.00995 0.0277,1.51477 -9.3e-4,0.51851 1.9e-4,1.03697 0.007,1.55544 0,0 -0.61889,0.31522 -0.61889,0.31522 l 0,0 c 0.009,-0.52129 0.0118,-1.0426 0.01,-1.56396 -0.002,-0.49886 3.4e-4,-0.99905 -0.0441,-1.49634 -0.0295,-0.21795 -0.0574,-0.46232 -0.2256,-0.62184 0,0 0.60632,-0.38085 0.60632,-0.38085 z"
           id="path4430"
           style="color:#000000;fill:#250000;fill-opacity:1;fill-rule:nonzero;stroke:none;stroke-width:0.9646073;marker:none;visibility:visible;display:inline;overflow:visible;enable-background:accumulate" />
        <path
           inkscape:connector-curvature="0"
           d="m 895.44641,197.08394 c -0.0403,0.25013 -0.0475,0.50403 -0.0554,0.7568 -0.007,0.276 -0.006,0.55209 -0.005,0.82814 8.7e-4,0.13784 -0.002,0.0725 0.008,0.1961 0,0 -0.62907,0.32687 -0.62907,0.32687 l 0,0 c -0.0101,-0.13022 -0.007,-0.0625 -0.007,-0.20324 0.001,-0.27742 0.004,-0.55485 0.009,-0.83222 0.006,-0.25252 0.0127,-0.50528 0.0372,-0.75681 0,0 0.64182,-0.31564 0.64182,-0.31564 z"
           id="path4432"
           style="color:#000000;fill:#250000;fill-opacity:1;fill-rule:nonzero;stroke:none;stroke-width:0.9646073;marker:none;visibility:visible;display:inline;overflow:visible;enable-background:accumulate" />
        <path
           inkscape:connector-curvature="0"
           d="m 905.96025,185.8906 c 0.20255,0.003 0.40515,0.003 0.60772,0.003 0.26297,7.7e-4 0.52593,0.001 0.7889,8.1e-4 0.21352,-0.001 0.42705,-0.001 0.64057,-0.002 0.14285,-0.008 0.28842,0.0128 0.42975,-0.0118 0,0 -0.57224,0.4258 -0.57224,0.4258 l 0,0 c -0.14344,0.008 -0.28731,0.001 -0.43093,0.003 -0.21174,-8.2e-4 -0.42348,-6.7e-4 -0.63522,-0.002 -0.26371,-2.1e-4 -0.52742,4e-5 -0.79113,8.1e-4 -0.20538,-1.5e-4 -0.41077,2e-4 -0.61613,0.003 0,0 0.57871,-0.42046 0.57871,-0.42046 z"
           id="path4434"
           style="color:#000000;fill:#250000;fill-opacity:1;fill-rule:nonzero;stroke:none;stroke-width:0.9646073;marker:none;visibility:visible;display:inline;overflow:visible;enable-background:accumulate" />
        <path
           inkscape:connector-curvature="0"
           d="m 882.15485,185.72114 c 0.25549,0.0337 0.51352,0.0411 0.77085,0.0477 0.2678,0.006 0.53567,0.005 0.80351,0.004 0.17988,-0.001 0.35977,-9.6e-4 0.53966,-0.002 0.14292,4.3e-4 0.28583,2.3e-4 0.42875,-1.9e-4 0,0 -0.57489,0.4177 -0.57489,0.4177 l 0,0 c -0.14284,-3.9e-4 -0.28567,-5.4e-4 -0.4285,6e-5 -0.1788,-3.5e-4 -0.35761,2.3e-4 -0.5364,-0.001 -0.26628,-0.002 -0.53257,-0.004 -0.79879,-0.01 -0.26327,-0.007 -0.52671,-0.0165 -0.78874,-0.0449 0,0 0.58455,-0.41216 0.58455,-0.41216 z"
           id="path4436"
           style="color:#000000;fill:#250000;fill-opacity:1;fill-rule:nonzero;stroke:none;stroke-width:0.9646073;marker:none;visibility:visible;display:inline;overflow:visible;enable-background:accumulate" />
        <path
           inkscape:connector-curvature="0"
           d="m 902.60839,176.78015 c -0.10455,0.18913 -0.22613,0.36811 -0.33608,0.55413 0,0 -0.64659,0.28746 -0.64659,0.28746 l 0,0 c 0.10637,-0.18397 0.2259,-0.35983 0.33332,-0.5432 0,0 0.64935,-0.29839 0.64935,-0.29839 z"
           id="path4438"
           style="color:#000000;fill:#250000;fill-opacity:1;fill-rule:nonzero;stroke:none;stroke-width:0.9646073;marker:none;visibility:visible;display:inline;overflow:visible;enable-background:accumulate" />
        <path
           inkscape:connector-curvature="0"
           d="m 905.65607,182.23627 c -0.16729,0.0698 -0.3371,0.13411 -0.50847,0.19331 -0.0903,0.036 -0.18323,0.0642 -0.27662,0.0909 0,0 0.56124,-0.43313 0.56124,-0.43313 l 0,0 c 0.092,-0.0286 0.18337,-0.0587 0.27346,-0.0929 0.17322,-0.0626 0.34441,-0.13029 0.51588,-0.19746 0,0 -0.56549,0.43933 -0.56549,0.43933 z"
           id="path4440"
           style="color:#000000;fill:#250000;fill-opacity:1;fill-rule:nonzero;stroke:none;stroke-width:0.9646073;marker:none;visibility:visible;display:inline;overflow:visible;enable-background:accumulate" />
        <path
           inkscape:connector-curvature="0"
           d="m 905.35416,190.72426 c 0.16822,0.03 0.3347,0.0735 0.49554,0.1314 0.15417,0.0372 0.28723,0.11814 0.41741,0.20455 0.0163,0.0119 0.0325,0.0239 0.0488,0.0358 0,0 -0.60269,0.38265 -0.60269,0.38265 l 0,0 c -0.0158,-0.0113 -0.0317,-0.0226 -0.0475,-0.0338 -0.12445,-0.0851 -0.25631,-0.15385 -0.40351,-0.19163 -0.16092,-0.0536 -0.32585,-0.0967 -0.49447,-0.11754 0,0 0.58643,-0.41144 0.58643,-0.41144 z"
           id="path4442"
           style="color:#000000;fill:#250000;fill-opacity:1;fill-rule:nonzero;stroke:none;stroke-width:0.9646073;marker:none;visibility:visible;display:inline;overflow:visible;enable-background:accumulate" />
        <path
           inkscape:connector-curvature="0"
           d="m 900.95687,194.61874 c 0.14867,0.12713 0.28432,0.26868 0.4208,0.40865 0.12363,0.13718 0.26301,0.25876 0.41844,0.35838 0.0199,0.0145 0.0398,0.0289 0.0597,0.0434 0,0 -0.60114,0.38135 -0.60114,0.38135 l 0,0 c -0.019,-0.0139 -0.038,-0.0278 -0.0569,-0.0416 -0.15511,-0.10753 -0.29737,-0.2321 -0.42323,-0.37304 -0.13445,-0.13888 -0.26899,-0.27992 -0.42394,-0.39624 0,0 0.60631,-0.38084 0.60631,-0.38084 z"
           id="path4444"
           style="color:#000000;fill:#250000;fill-opacity:1;fill-rule:nonzero;stroke:none;stroke-width:0.9646073;marker:none;visibility:visible;display:inline;overflow:visible;enable-background:accumulate" />
        <path
           inkscape:connector-curvature="0"
           d="m 890.67543,195.03773 c -0.0852,0.14795 -0.15611,0.30369 -0.249,0.44704 -0.0599,0.0996 -0.13036,0.18908 -0.21548,0.26795 0,0 -0.6615,0.26639 -0.6615,0.26639 l 0,0 c 0.0932,-0.0671 0.16803,-0.15014 0.22519,-0.25035 0.0996,-0.13584 0.16881,-0.28833 0.24876,-0.43603 0,0 0.65203,-0.295 0.65203,-0.295 z"
           id="path4446"
           style="color:#000000;fill:#250000;fill-opacity:1;fill-rule:nonzero;stroke:none;stroke-width:0.9646073;marker:none;visibility:visible;display:inline;overflow:visible;enable-background:accumulate" />
        <path
           inkscape:connector-curvature="0"
           d="m 886.5621,191.66517 c -0.35172,0.2453 -0.74139,0.41657 -1.11759,0.61544 -0.1,0.047 -0.0512,0.0226 -0.14628,0.0731 0,0 0.55444,-0.44466 0.55444,-0.44466 l 0,0 c 0.0957,-0.0479 0.0473,-0.0238 0.14498,-0.0722 0.26404,-0.13338 1.00488,-0.52692 -0.10147,0.0888 0,0 0.66592,-0.26056 0.66592,-0.26056 z"
           id="path4448"
           style="color:#000000;fill:#250000;fill-opacity:1;fill-rule:nonzero;stroke:none;stroke-width:0.9646073;marker:none;visibility:visible;display:inline;overflow:visible;enable-background:accumulate" />
        <path
           inkscape:connector-curvature="0"
           d="m 884.86058,180.22716 c 0.10884,0.14601 0.23833,0.27457 0.35545,0.41356 0.087,0.12022 0.19637,0.22024 0.29749,0.32771 0.0127,0.0112 0.0253,0.0225 0.038,0.0337 0,0 -0.60814,0.37584 -0.60814,0.37584 l 0,0 c -0.0133,-0.0128 -0.0266,-0.0256 -0.0399,-0.0384 -0.10132,-0.10864 -0.20632,-0.21406 -0.29502,-0.33381 -0.11695,-0.14037 -0.24504,-0.27115 -0.3624,-0.41128 0,0 0.61459,-0.36733 0.61459,-0.36733 z"
           id="path4450"
           style="color:#000000;fill:#250000;fill-opacity:1;fill-rule:nonzero;stroke:none;stroke-width:0.9646073;marker:none;visibility:visible;display:inline;overflow:visible;enable-background:accumulate" />
        <path
           inkscape:connector-curvature="0"
           d="m 889.26665,176.7641 c 0.14772,0.0659 0.29665,0.12924 0.45318,0.17102 0.1193,0.0436 0.23925,0.0883 0.34239,0.16353 0.0473,0.0284 0.0857,0.0677 0.12852,0.10205 0,0 -0.60615,0.37968 -0.60615,0.37968 l 0,0 c -0.0404,-0.0339 -0.0792,-0.0699 -0.12427,-0.0977 -0.10076,-0.065 -0.21452,-0.10655 -0.3273,-0.14595 -0.15861,-0.0492 -0.31117,-0.11521 -0.46422,-0.17929 0,0 0.59785,-0.39336 0.59785,-0.39336 z"
           id="path4452"
           style="color:#000000;fill:#250000;fill-opacity:1;fill-rule:nonzero;stroke:none;stroke-width:0.9646073;marker:none;visibility:visible;display:inline;overflow:visible;enable-background:accumulate" />
        <path
           inkscape:connector-curvature="0"
           d="m 895.81253,177.3169 c -0.003,0.20937 -0.001,0.41808 -0.0194,0.62681 -0.0223,0.2132 -0.034,0.42723 -0.0397,0.64145 -0.005,0.20513 -0.005,0.41032 -0.004,0.61549 -10e-4,0.19901 0.005,0.39812 -0.006,0.59686 -0.0194,0.25708 -0.0422,0.51339 -0.0814,0.76828 -0.0404,0.26133 -0.0979,0.51973 -0.16063,0.77651 -0.0683,0.2476 -0.0921,0.50286 -0.10617,0.7583 -0.006,0.25505 -0.0168,0.51 -0.0499,0.7631 -0.0367,0.20469 -0.0581,0.41119 -0.0696,0.61867 -0.009,0.2091 -0.008,0.41844 -0.009,0.62769 0.004,0.18471 -0.0256,0.36784 -0.0408,0.55156 -0.0124,0.1583 -0.0157,0.31709 -0.0172,0.47581 -7.7e-4,0.16223 -7.3e-4,0.32446 -4.6e-4,0.48669 -0.009,0.14211 -0.0332,0.28246 -0.0465,0.42416 -0.004,0.052 -0.01,0.10322 -0.004,0.1551 0,0 -0.63446,0.33409 -0.63446,0.33409 l 0,0 c -0.008,-0.0573 -0.006,-0.11327 -2.1e-4,-0.17104 0.0118,-0.14066 0.0344,-0.27973 0.0518,-0.41973 -2e-5,-0.16244 -6.7e-4,-0.32488 2.6e-4,-0.48732 10e-4,-0.16041 0.002,-0.32101 0.0155,-0.48095 0.0155,-0.18242 0.0438,-0.3643 0.0455,-0.54735 10e-5,-0.21037 5.6e-4,-0.42078 0.008,-0.63105 0.009,-0.20971 0.0278,-0.41867 0.0673,-0.62514 0.041,-0.25058 0.0524,-0.50488 0.0555,-0.75851 0.0129,-0.25896 0.0318,-0.51888 0.0999,-0.77027 0.0649,-0.25484 0.12237,-0.51205 0.16464,-0.77166 0.0412,-0.25197 0.063,-0.50582 0.08,-0.76048 0.0149,-0.19693 0.004,-0.39461 0.007,-0.59199 7.6e-4,-0.20585 2.2e-4,-0.41173 0.004,-0.61755 0.006,-0.21567 0.0161,-0.43125 0.0387,-0.64594 0.0197,-0.20556 0.0237,-0.41088 0.015,-0.61735 0,0 0.63635,-0.32424 0.63635,-0.32424 z"
           id="path4454"
           style="color:#000000;fill:#250000;fill-opacity:1;fill-rule:nonzero;stroke:none;stroke-width:0.9646073;marker:none;visibility:visible;display:inline;overflow:visible;enable-background:accumulate" />
        <path
           inkscape:connector-curvature="0"
           d="m 895.94322,177.7829 c 0.0466,0.22191 0.0929,0.44389 0.12639,0.6682 0.0235,0.24098 0.0438,0.48224 0.0652,0.72347 0.0238,0.25172 0.0282,0.50469 0.0334,0.75731 0.003,0.22075 0.003,0.44152 0.003,0.66229 -0.003,0.21999 -0.002,0.43908 0.0146,0.65846 0.0196,0.24469 0.0616,0.48666 0.0827,0.73126 0.0183,0.21675 0.0217,0.43428 0.023,0.65167 -7.3e-4,0.21388 -0.002,0.42696 0.0154,0.64022 0.0212,0.23684 0.0304,0.47419 0.0552,0.7107 0.0256,0.20414 0.0386,0.40941 0.047,0.61488 -0.003,0.18125 0.0107,0.36073 0.0296,0.54074 0.018,0.16052 0.0294,0.32162 0.0333,0.48307 -0.004,0.16306 0.007,0.32421 0.0274,0.48581 0.0216,0.153 0.029,0.30738 0.0325,0.46168 0.0554,0.47546 0.021,0.28029 -0.63232,0.67576 -0.11153,6e-5 -0.21609,-0.0332 -0.3235,-0.0579 -0.11816,-0.0257 -0.2391,-0.0313 -0.35955,-0.0349 -0.1324,-0.0236 -0.26414,-0.0397 -0.39374,-0.0758 -0.12771,-0.0421 -0.20229,-0.14875 -0.28004,-0.25074 -0.0834,-0.12168 -0.16392,-0.24385 -0.22911,-0.37634 -0.0618,-0.13033 -0.0851,-0.27143 -0.0971,-0.41374 0,0 0.63314,-0.32847 0.63314,-0.32847 l 0,0 c 0.008,0.13394 0.0252,0.26756 0.082,0.39091 0.0628,0.12835 0.14299,0.24528 0.22356,0.363 0.071,0.0908 0.13722,0.18269 0.25591,0.21114 0.12584,0.0327 0.25541,0.0482 0.38443,0.0629 0.12344,0.006 0.24696,0.0164 0.36736,0.046 0.0942,0.0223 0.20392,0.0599 0.29612,0.0144 -0.19231,0.11795 -0.38374,0.23734 -0.57693,0.35386 -0.01,0.006 0.0197,-0.0121 0.0259,-0.0215 0.0437,-0.0667 -0.0124,-0.16374 -0.009,-0.23424 -0.004,-0.15221 -0.009,-0.30453 -0.0288,-0.45568 -0.0198,-0.16355 -0.0382,-0.32624 -0.0317,-0.49143 -0.004,-0.16006 -0.0102,-0.32014 -0.0278,-0.4794 -0.0197,-0.18143 -0.0387,-0.36201 -0.0329,-0.54492 -0.005,-0.20468 -0.0163,-0.40917 -0.0401,-0.61262 -0.0256,-0.23678 -0.0363,-0.47416 -0.0569,-0.7114 -0.0196,-0.21473 -0.0231,-0.42913 -0.0189,-0.64476 -0.002,-0.21599 -0.003,-0.43216 -0.0186,-0.64771 -0.0206,-0.24473 -0.0593,-0.48695 -0.083,-0.73123 -0.0199,-0.22074 -0.0235,-0.44124 -0.019,-0.66287 2e-5,-0.22074 10e-4,-0.44148 -7.2e-4,-0.66222 -0.002,-0.25126 -0.008,-0.50268 -0.0298,-0.75311 -0.0226,-0.23992 -0.0447,-0.47957 -0.0644,-0.71969 -0.0309,-0.22066 -0.0746,-0.43922 -0.13136,-0.65471 0,0 0.62779,-0.34221 0.62779,-0.34221 z"
           id="path4456"
           style="color:#000000;fill:#250000;fill-opacity:1;fill-rule:nonzero;stroke:none;stroke-width:0.9646073;marker:none;visibility:visible;display:inline;overflow:visible;enable-background:accumulate" />
        <path
           inkscape:connector-curvature="0"
           d="m 895.40891,185.42013 c 0.21811,0.0155 0.42636,0.0771 0.63623,0.13368 0.23241,0.0436 0.45325,0.12853 0.67829,0.19805 0.25132,0.0916 0.47565,0.24492 0.70983,0.37281 0.33371,0.18663 0.66744,0.37311 1.00044,0.56103 0.30735,0.17111 0.61558,0.34074 0.92065,0.51589 0.25702,0.15889 0.52843,0.28789 0.80475,0.4086 0.27209,0.12307 0.53186,0.2696 0.7906,0.41807 0.22027,0.13162 0.44811,0.25031 0.68342,0.35263 0.18865,0.0817 0.37217,0.17493 0.55543,0.26814 0.14299,0.0591 0.26996,0.14951 0.41257,0.20899 0.11925,0.0608 0.23793,0.12342 0.35468,0.18908 0.12906,0.0835 0.25006,0.1811 0.36373,0.28442 0.11972,0.0994 0.23673,0.20133 0.36063,0.2955 0.10356,0.0855 0.20356,0.17078 0.28387,0.27916 0.0308,0.0592 0.0727,0.17369 -0.006,0.22114 -0.63078,0.37841 -0.42209,0.339 -0.74324,0.38577 -0.18073,0.0183 -0.36349,0.0243 -0.54444,0.008 -0.21596,-0.036 -0.42826,-0.091 -0.63378,-0.16618 -0.20251,-0.0745 -0.39015,-0.18455 -0.58424,-0.27904 -0.25788,-0.12293 -0.51217,-0.2537 -0.76833,-0.38043 -0.23064,-0.1178 -0.46631,-0.22874 -0.70781,-0.32264 -0.25222,-0.0959 -0.48835,-0.22886 -0.73104,-0.34614 -0.27042,-0.13065 -0.54593,-0.25048 -0.82159,-0.36958 -0.2474,-0.0847 -0.48384,-0.19409 -0.71594,-0.31358 -0.18105,-0.10292 -0.36652,-0.19707 -0.55373,-0.28797 -0.1711,-0.0634 -0.33154,-0.15079 -0.50013,-0.22011 -0.17182,-0.084 -0.34557,-0.16345 -0.5195,-0.24298 -0.22563,-0.0965 -0.44984,-0.19641 -0.66951,-0.30582 -0.17612,-0.0924 -0.34553,-0.19659 -0.52332,-0.28595 -0.0895,-0.039 -0.1777,-0.0789 -0.27072,-0.10896 0,0 0.59022,-0.39928 0.59022,-0.39928 l 0,0 c 0.0933,0.0349 0.18412,0.0756 0.27378,0.11911 0.1747,0.0933 0.34415,0.1959 0.52,0.28692 0.21873,0.10992 0.44154,0.21089 0.66823,0.30334 0.17464,0.078 0.34764,0.15933 0.52114,0.23982 0.16777,0.073 0.33076,0.15633 0.50079,0.22416 0.18691,0.0912 0.37027,0.18909 0.55155,0.29112 0.23058,0.11739 0.46567,0.22397 0.709,0.31269 0.27657,0.11967 0.55299,0.24008 0.82438,0.37122 0.24201,0.11666 0.47853,0.24663 0.73077,0.34037 0.24093,0.0983 0.47811,0.20721 0.70784,0.32946 0.25659,0.12748 0.51204,0.25775 0.77264,0.37682 0.19256,0.0928 0.37826,0.20188 0.58061,0.27206 0.2024,0.0693 0.41059,0.125 0.6235,0.14988 0.17868,0.008 0.35978,0.006 0.53611,-0.027 0.28052,-0.0865 0.0339,-0.0163 -0.48802,0.30852 -0.0143,0.009 0.0335,-0.006 0.0488,-0.0137 0.0496,-0.0235 0.0251,-0.0696 0.009,-0.10681 -0.077,-0.10201 -0.17469,-0.18126 -0.27175,-0.26349 -0.12455,-0.0957 -0.24227,-0.19956 -0.36276,-0.30029 -0.11276,-0.0975 -0.22783,-0.19476 -0.35695,-0.27007 -0.11635,-0.063 -0.23198,-0.1278 -0.35186,-0.18382 -0.13929,-0.0664 -0.26836,-0.15242 -0.40981,-0.21475 -0.18271,-0.0914 -0.36403,-0.18601 -0.5518,-0.26664 -0.23414,-0.10787 -0.4622,-0.22776 -0.68263,-0.36163 -0.25675,-0.14805 -0.51649,-0.29118 -0.78797,-0.41082 -0.27678,-0.12292 -0.54605,-0.25916 -0.80466,-0.41739 -0.30507,-0.17361 -0.61082,-0.34601 -0.91694,-0.51776 -0.33369,-0.18731 -0.66649,-0.37616 -1.00329,-0.55785 -0.23287,-0.12539 -0.45887,-0.27115 -0.71037,-0.35635 -0.22289,-0.0719 -0.44362,-0.15135 -0.67395,-0.19735 -0.2117,-0.0568 -0.42349,-0.10707 -0.64319,-0.12041 0,0 0.58643,-0.41144 0.58643,-0.41144 z"
           id="path4458"
           style="color:#000000;fill:#250000;fill-opacity:1;fill-rule:nonzero;stroke:none;stroke-width:0.9646073;marker:none;visibility:visible;display:inline;overflow:visible;enable-background:accumulate" />
        <path
           inkscape:connector-curvature="0"
           d="m 895.99849,181.17053 c 0.0237,0.25212 0.0333,0.50512 0.0424,0.75809 0.007,0.22878 0.008,0.45767 0.0106,0.68652 0.0105,0.14298 0.0377,0.28379 0.0494,0.42668 0.0183,0.17637 -0.008,0.35239 -0.0245,0.52781 -0.0249,0.17048 -0.0556,0.33964 -0.0712,0.51134 -0.0196,0.13457 -0.0465,0.26766 -0.0605,0.40303 -0.01,0.12208 -0.008,0.24389 -0.0267,0.36505 -0.0177,0.1311 -0.0529,0.25858 -0.076,0.38866 -0.0212,0.12811 -0.0262,0.25799 -0.029,0.38757 -6.8e-4,0.10526 0.004,0.21009 -0.0204,0.3131 -0.21932,0.10239 -0.42942,0.22745 -0.65795,0.30718 -0.0231,0.008 -0.0215,-0.0442 -0.0294,-0.0674 -0.0502,-0.14832 -0.0612,-0.30926 -0.0777,-0.46374 -0.0164,-0.216 -0.0353,-0.43277 -0.0239,-0.6494 0.0146,-0.22626 0.0736,-0.44522 0.13332,-0.66277 0.0557,-0.21602 0.10761,-0.4324 0.13814,-0.65351 0.0183,-0.14235 0.0218,-0.28588 0.0231,-0.4292 0.009,-0.10626 0.0343,-0.20983 0.0466,-0.31575 0.0115,-0.12435 0.0126,-0.24938 0.0134,-0.37416 0.0108,-0.14742 -0.0141,-0.29227 -0.0342,-0.43756 -0.0115,-0.11229 -0.0487,-0.21919 -0.0676,-0.33033 -0.0241,-0.10452 -0.0581,-0.20828 -0.10045,-0.30693 -0.1197,0.21369 0.0442,-0.0845 0.60249,-0.29678 0.0283,-0.0108 -0.0197,0.0575 -0.0253,0.0873 -0.0301,0.16217 -0.0306,0.33164 -0.0379,0.49578 -0.0103,0.29148 -0.01,0.58315 -0.007,0.87475 0.001,0.15033 0.004,0.30066 0.003,0.451 -0.003,0.2048 -0.003,0.4096 -0.003,0.6144 -4.6e-4,0.18668 0.001,0.37336 0.003,0.56003 0.004,0.13934 -0.0266,0.27632 -0.0417,0.4143 -0.002,0.12883 0.0195,0.25659 0.0305,0.38475 -10e-4,0.11367 0.0471,0.21108 0.10667,0.30457 0.0832,0.10286 0.17049,0.20231 0.25123,0.30764 0.0615,0.0971 0.13268,0.18636 0.2059,0.2745 0.0678,0.06 0.16662,0.11429 0.1019,0.21492 -0.60928,0.35962 -0.52077,0.36649 -0.99074,0.37091 -0.11649,0.0138 -0.21255,-0.042 -0.31617,-0.0821 -0.0856,-0.064 -0.17498,-0.0524 -0.21567,-0.15935 0.20922,-0.13477 0.41252,-0.2792 0.62767,-0.4043 0.0155,-0.009 0.0354,0.006 0.0532,0.008 0.10788,0.0134 0.21335,0.0253 0.32072,0.0439 0.19423,0.0443 0.38848,0.0901 0.57111,0.17088 0.14295,0.0547 0.27939,0.12206 0.41195,0.19837 0.11428,0.0726 0.23303,0.13406 0.34654,0.20788 0.10552,0.0808 0.21917,0.15 0.31689,0.24051 0.0873,0.0742 0.18341,0.13683 0.27367,0.20743 0.0951,0.0708 0.1846,0.14381 0.28593,0.20599 0.10318,0.06 0.19733,0.13204 0.29336,0.20228 0.10107,0.0804 0.21038,0.15147 0.3222,0.21628 0.11342,0.0737 0.22585,0.1486 0.3385,0.22348 0.11669,0.0816 0.23594,0.15945 0.35482,0.23787 0.1322,0.0987 0.26214,0.19905 0.40334,0.28469 0.14622,0.0994 0.31234,0.16126 0.46673,0.24558 0.15686,0.0922 0.30675,0.19356 0.46939,0.27581 0.12,0.0534 0.23825,0.10984 0.36065,0.15788 0.13071,0.0451 0.26532,0.0788 0.39477,0.12792 0.17997,0.0799 0.35808,0.16372 0.54513,0.22597 0.14145,0.0506 0.28278,0.10353 0.42758,0.14384 0.10617,0.0325 0.21598,0.0583 0.32107,0.0948 0.10856,0.0437 0.22729,0.0697 0.32777,0.13103 0.21892,0.26385 -0.55875,0.39327 -0.62843,0.42237 -0.004,0.002 -0.27547,-0.0953 -0.28581,-0.0989 -0.23988,-0.0918 -0.48193,-0.17941 -0.71791,-0.28112 -0.18234,-0.0708 -0.34652,-0.17401 -0.51489,-0.27169 -0.19606,-0.10892 -0.39094,-0.22046 -0.57891,-0.34298 -0.16835,-0.11822 -0.31267,-0.26525 -0.47927,-0.38549 -0.1379,-0.0863 -0.26673,-0.18134 -0.38659,-0.29138 -0.0955,-0.0962 -0.18488,-0.1966 -0.27114,-0.30115 -0.10932,-0.13862 -0.25538,-0.23837 -0.39853,-0.3384 -0.14729,-0.0978 -0.28837,-0.20798 -0.44598,-0.28898 -0.1271,-0.0741 -0.27126,-0.1093 -0.40909,-0.15806 -0.17654,-0.0593 -0.35503,-0.11194 -0.53254,-0.16826 -0.19081,-0.058 -0.38162,-0.11131 -0.57907,-0.14103 -0.14664,-0.0194 -0.29477,-0.0198 -0.44241,-0.0203 -0.12831,2e-4 -0.25662,0.001 -0.38494,0.001 -0.0943,0.003 -0.1875,-0.0179 -0.28049,-0.0316 0,0 0.58222,-0.41028 0.58222,-0.41028 l 0,0 c 0.0913,0.0132 0.18285,0.0278 0.27549,0.0222 0.12807,-3.3e-4 0.25614,-0.001 0.38421,1.3e-4 0.14941,0.002 0.29946,0.005 0.44705,0.0307 0.19762,0.0366 0.38959,0.0935 0.5821,0.15056 0.17937,0.0545 0.35878,0.10886 0.5367,0.16796 0.14208,0.0473 0.28756,0.0891 0.41646,0.16747 0.15525,0.089 0.2988,0.19724 0.44638,0.29812 0.14868,0.10377 0.29915,0.20844 0.41343,0.35155 0.0847,0.10129 0.17212,0.19925 0.26498,0.29322 0.11876,0.10668 0.24698,0.19883 0.38018,0.28667 0.16336,0.12191 0.30542,0.26984 0.47557,0.38318 0.18726,0.122 0.38125,0.23297 0.57781,0.33925 0.16616,0.096 0.33055,0.19412 0.50958,0.26527 0.23353,0.10114 0.47082,0.19461 0.71123,0.27798 0.0569,0.0178 0.16067,0.0514 0.22202,0.0669 0.0226,0.006 0.0878,9.3e-4 0.0686,0.0141 -0.57301,0.39269 -0.74125,0.16684 -0.55129,0.38937 0.003,0.003 -0.005,-0.006 -0.008,-0.009 -0.0989,-0.0537 -0.2125,-0.0795 -0.31751,-0.11885 -0.10696,-0.03 -0.21184,-0.0658 -0.31904,-0.0948 -0.1434,-0.0453 -0.28514,-0.0962 -0.42592,-0.14903 -0.18531,-0.0679 -0.36349,-0.1525 -0.54676,-0.22543 -0.1327,-0.0443 -0.26825,-0.0795 -0.39953,-0.12841 -0.12222,-0.0513 -0.24185,-0.10734 -0.36072,-0.16595 -0.16046,-0.0863 -0.31125,-0.18747 -0.47016,-0.27624 -0.15658,-0.0823 -0.32125,-0.14963 -0.46828,-0.24944 -0.14115,-0.0873 -0.2715,-0.18935 -0.40691,-0.28502 -0.11935,-0.0779 -0.23756,-0.15753 -0.35537,-0.23771 -0.11229,-0.0734 -0.22315,-0.14898 -0.33622,-0.22125 -0.11248,-0.0693 -0.22591,-0.13802 -0.32915,-0.22073 -0.0925,-0.0713 -0.18769,-0.13819 -0.2885,-0.19749 -0.10281,-0.0633 -0.19174,-0.14228 -0.28999,-0.21195 -0.0932,-0.0694 -0.18926,-0.13539 -0.2757,-0.21319 -0.0971,-0.0857 -0.20832,-0.15338 -0.31209,-0.23062 -0.11097,-0.0741 -0.23058,-0.13189 -0.34241,-0.20472 -0.13129,-0.0726 -0.2657,-0.13759 -0.40502,-0.19349 -0.18031,-0.0738 -0.37021,-0.12009 -0.56124,-0.1571 -0.0849,-0.0133 -0.16846,-0.0268 -0.25463,-0.0273 -0.0206,-1.3e-4 -0.0415,-0.002 -0.0618,0.002 -0.0133,0.002 -0.0484,0.0237 -0.0372,0.0162 0.18966,-0.12696 0.38198,-0.2499 0.57298,-0.37485 -0.066,-0.0339 0.16123,0.0879 0.16958,0.0899 0.0965,0.0408 0.18988,0.0725 0.29731,0.0604 0.3989,-0.008 0.60656,-0.15434 -0.25563,0.3067 0.02,4.4e-4 0.0403,0.009 0.0599,0.005 0.0242,-0.005 -0.1013,-0.0976 -0.10428,-0.10962 -0.0738,-0.0888 -0.14371,-0.18015 -0.20591,-0.27767 -0.0822,-0.10662 -0.1706,-0.20772 -0.25448,-0.31268 -0.0659,-0.1017 -0.12441,-0.21074 -0.12368,-0.3352 -0.01,-0.13258 -0.0295,-0.26424 -0.0352,-0.39709 0.0135,-0.13637 0.0419,-0.27126 0.0456,-0.40797 10e-4,-0.18752 0.003,-0.37504 0.002,-0.56257 0,-0.2038 -10e-6,-0.40759 -0.003,-0.61137 -9.3e-4,-0.15131 4.7e-4,-0.30262 0.002,-0.45393 0.004,-0.29413 0.008,-0.58829 0.0165,-0.88232 0.006,-0.1661 0.0118,-0.33204 0.0221,-0.49793 0.002,-0.0349 -0.021,-0.0838 0.007,-0.10453 0.60341,-0.44585 0.47869,-0.55667 0.67769,-0.34588 0.0383,0.10621 0.0795,0.21151 0.10611,0.32133 0.017,0.11246 0.0551,0.21995 0.0664,0.3331 0.0191,0.14839 0.0476,0.29598 0.0385,0.44637 -4e-4,0.12643 10e-4,0.25302 -0.008,0.3792 -0.009,0.10488 -0.0267,0.20797 -0.0507,0.31047 -10e-4,0.1468 -0.005,0.29383 -0.0236,0.43963 -0.0309,0.22446 -0.0825,0.44389 -0.13781,0.66345 -0.0575,0.21341 -0.1207,0.4266 -0.13599,0.64843 -0.0174,0.21321 4.2e-4,0.42803 0.0138,0.64107 0.0121,0.11985 0.0236,0.23959 0.0524,0.35691 0.007,0.0275 0.0145,0.0548 0.0241,0.0815 0.005,0.0142 0.0326,0.0327 0.0199,0.0408 -0.19905,0.12719 -0.41348,0.22853 -0.62022,0.3428 0.009,7.4e-4 0.0194,0.008 0.0264,0.002 0.0444,-0.0337 0.0156,-0.21342 0.0237,-0.26511 0.002,-0.13283 0.006,-0.26594 0.0256,-0.39759 0.0207,-0.13055 0.055,-0.25748 0.0745,-0.38807 0.022,-0.11971 0.0244,-0.23893 0.0292,-0.36051 0.0121,-0.13599 0.0352,-0.27007 0.0631,-0.40368 0.0148,-0.17246 0.0411,-0.3428 0.0739,-0.51272 0.0145,-0.17134 0.0429,-0.3429 0.026,-0.51505 -0.0116,-0.14507 -0.0356,-0.28847 -0.0487,-0.43336 0.002,-0.22925 0.002,-0.45852 -0.004,-0.68773 -0.006,-0.24934 -0.0151,-0.49937 -0.0501,-0.74662 0,0 0.6322,-0.33209 0.6322,-0.33209 z"
           id="path4460"
           style="color:#000000;fill:#250000;fill-opacity:1;fill-rule:nonzero;stroke:none;stroke-width:0.9646073;marker:none;visibility:visible;display:inline;overflow:visible;enable-background:accumulate" />
      </g>
      <path
         sodipodi:nodetypes="ccsccc"
         inkscape:connector-curvature="0"
         id="path4540"
         d="m 859.08462,406.78078 0,-73.06812 c 0,0 -0.48259,-21.99394 -4.53064,-21.99394 -4.04798,0 -4.75263,21.54273 -4.75263,21.54273 l -0.69995,73.06812 z"
         style="fill:url(#linearGradient4548);fill-opacity:1;stroke:none" />
    </g>
    <image
       width="320"
       height="180"
       xlink:href="file:///home/jakub/Pictures/josef-lada-0056164612_3.jpeg"
       id="image4641"
       x="-492.78299"
       y="-753.56696" />
    <image
       width="726"
       height="480"
       xlink:href="file:///home/jakub/Pictures/josef-lada-0056164612_3.jpeg"
       id="image4647"
       x="260.09753"
       y="-1035.8127" />
    <path
       inkscape:connector-curvature="0"
       id="path4677"
       d="m 616.25197,-1022.3488 c 12.20827,0.1889 22.16773,2.4564 26.02301,4.7239 3.8552,2.2675 6.42536,1.8896 7.54981,5.4798 1.12445,3.5901 2.2489,18.32873 4.01595,25.50913 1.76697,7.1804 5.78284,19.6515 5.46158,31.5558 -0.32126,11.9043 -0.32126,15.8724 -0.32126,15.8724 l 11.72643,5.6687 -0.6426,4.9129 c 0,0 -1.28504,1.1338 -6.1041,1.3227 -4.81914,0.189 -7.3893,0.7559 -7.3893,0.7559 0,0 3.69461,2.8343 0.16067,8.1251 -3.53402,5.2908 -10.44131,10.7706 -16.54549,12.2822 -6.10418,1.5117 -4.97973,8.5031 -19.11565,8.1252 -14.13591,-0.3779 -14.13591,-3.0233 -22.81025,-4.724 -8.67434,-1.7006 -14.29659,-2.2674 -18.79439,-6.9914 -4.4978,-4.7239 -8.353,-10.2036 -8.03174,-24.7533 0.32126,-14.5497 2.08823,-29.2884 6.42544,-37.2246 4.33713,-7.9362 5.14032,-17.0061 7.87115,-23.8086 2.73075,-6.80243 1.76697,-8.50303 6.7467,-15.87233 4.97965,-7.3693 2.08823,-6.9914 8.9956,-8.692 6.90729,-1.7007 15.42095,-2.0786 15.42095,-2.0786 z"
       style="fill:#ffc445;fill-opacity:1;stroke:none;filter:url(#filter4890)" />
    <image
       y="-1035.8127"
       x="196.09753"
       id="image4673"
       xlink:href="file:///home/jakub/Pictures/josef-lada-0056164612_3.jpeg"
       height="480"
       width="854"
       clip-path="url(#clipPath4679)"
       transform="matrix(0.8501171,0,0,1,699.86491,-344.15151)"
       inkscape:export-filename="/home/jakub/Projects/KidPuzzle/qml/KidPuzzle/lada_3.png"
       inkscape:export-xdpi="90"
       inkscape:export-ydpi="90" />
    <path
       sodipodi:nodetypes="csssssssssssscsssssssssssssssc"
       inkscape:connector-curvature="0"
       id="path4687"
       d="m 538.55595,-865.21518 c 18.30098,0 19.29922,1.95705 21.96118,6.26257 2.66196,4.30552 8.31863,3.5227 10.3151,5.87117 1.99647,2.34846 1.66372,4.30552 1.66372,7.43681 0,3.13129 -2.32921,9.00245 -4.32568,12.13374 -1.99648,3.13129 -0.66549,11.74233 -0.33275,18.39632 0.33275,6.65399 0.66549,9.00245 -2.66196,14.0908 -3.32745,5.08834 -5.65667,2.34846 -5.98941,9.00245 -0.33275,6.65399 5.32392,5.47976 8.98412,12.52515 3.66019,7.0454 6.32216,7.82823 5.65667,22.70185 -0.6655,14.87361 0,28.96441 -0.99824,38.35828 -0.99824,9.39386 -3.32745,23.09325 -5.32392,28.96441 -1.99647,5.87117 2.99471,36.00982 1.66372,49.70921 -1.33098,13.69938 0,37.57546 0,37.57546 0,0 7.3204,-0.39141 9.98236,3.13129 2.66196,3.52269 4.65843,7.4368 4.32568,11.35091 -0.33274,3.91411 0.99824,4.30553 -6.98764,7.82823 -7.98589,3.5227 -25.62138,7.82822 -33.94001,8.61104 -8.31864,0.78282 -34.45284,0.76388 -37.26747,-2.34847 -8.49896,-9.39795 -8.72324,-12.44061 -8.65137,-19.96196 0.0863,-9.03586 4.32568,-27.00736 6.32215,-39.53252 1.99648,-12.52515 1.66373,-30.13865 0.6655,-39.92392 -0.99824,-9.78528 0,-8.21963 -7.32041,-21.52761 -7.32039,-13.30797 -15.63902,-24.65889 -14.64079,-39.53251 0.99824,-14.87362 2.32922,-25.05031 8.65138,-35.61841 7.98091,-13.34084 16.63727,-10.95951 19.29923,-21.91902 2.66196,-10.95951 8.98412,-14.87362 3.32745,-19.57055 -5.65667,-4.69693 -10.3151,-3.5227 -9.64961,-16.43926 0.66549,-12.91657 3.6602,-22.31043 10.3151,-27.39878 6.65491,-5.08834 24.9559,-10.17668 24.9559,-10.17668 z"
       style="fill:#ffc445;fill-opacity:1;stroke:none;filter:url(#filter4932)" />
    <image
       y="-1035.8127"
       x="196.09753"
       id="image4683"
       xlink:href="file:///home/jakub/Pictures/josef-lada-0056164612_3.jpeg"
       height="480"
       width="854"
       style="stroke:#000000;stroke-opacity:1"
       clip-path="url(#clipPath4689)"
       transform="matrix(0.8501171,0,0,1,-350.98991,524.7711)"
       inkscape:export-filename="/home/jakub/Projects/KidPuzzle/qml/KidPuzzle/lada_2.png"
       inkscape:export-xdpi="90"
       inkscape:export-ydpi="90" />
    <path
       inkscape:connector-curvature="0"
       id="path4697"
       d="m 456.45155,-848.4264 c 19.59755,-0.378 26.66551,11.3374 26.66551,11.3374 0,0 9.31687,0.7558 9.31687,3.4012 0,2.6454 0.96381,7.1804 0.96381,7.1804 l -2.57016,3.4012 c 0,0 4.4978,4.1571 4.17652,14.3607 -0.32127,10.2037 -6.10416,17.762 -6.74669,20.0295 -0.64255,2.2675 -2.89145,11.7153 -2.89145,11.7153 l -6.7467,1.8896 -5.46161,-10.9595 c 0,0 -1.28508,10.9595 -2.89143,10.5816 -1.60636,-0.3779 -6.7467,1.1337 -7.38924,-0.3779 -0.64255,-1.5117 -1.28509,-3.0234 -1.28509,-3.0234 l -7.06797,7.9362 -8.03178,-0.3779 -0.32127,7.1804 -4.81906,7.1804 -1.60636,26.454 20.56136,27.5877 12.52958,8.3141 3.85525,7.1804 -0.64254,12.4711 c 0,0 -6.10416,4.535 -19.59755,3.7792 -13.49339,-0.7559 -22.81026,-3.0233 -30.84204,-9.07 -8.03178,-6.0466 -26.66551,-24.5644 -26.66551,-24.5644 l -7.71052,2.6454 11.2445,25.6982 c 0,0 -3.21271,1.8895 -9.95941,13.6049 -6.7467,11.7153 -4.81907,17.0061 -5.14033,30.611 -0.32128,13.6049 0.32126,23.8086 3.85524,29.4773 3.53399,5.6687 5.78289,8.3141 5.78289,8.3141 l -21.52518,1.5117 -3.21271,5.6687 -18.31245,-0.3779 -1.28509,-20.7853 9.31686,-29.8552 -12.85084,0.7558 -21.20391,27.5878 1.28509,7.1803 17.02737,4.535 c 0,0 4.81907,1.1337 3.85526,7.5583 -0.96381,6.4245 -4.17653,10.2037 -4.17653,10.2037 l -58.15009,2.6454 0.32127,-18.5178 5.4616,-11.7154 4.81908,-16.2503 13.49339,-25.3202 7.71051,-2.2675 8.67432,-74.0712 -3.53398,-12.4711 5.14034,-7.1804 14.4572,-6.4246 59.11391,-47.995 7.71052,-0.378 8.67432,-13.227 7.06797,0 -0.64255,-10.9595 14.45721,-8.692 0.96381,-8.692 10.60196,-6.8025 z"
       style="fill:#ffc445;fill-opacity:1;stroke:none;filter:url(#filter4918)" />
    <image
       y="-1035.8127"
       x="196.09753"
       id="image4693"
       xlink:href="file:///home/jakub/Pictures/josef-lada-0056164612_3.jpeg"
       height="480"
       width="854"
       clip-path="url(#clipPath4699)"
       transform="matrix(0.8501171,0,0,1,-500.90623,-558.63648)"
       inkscape:export-filename="/home/jakub/Projects/KidPuzzle/qml/KidPuzzle/lada_1.png"
       inkscape:export-xdpi="90"
       inkscape:export-ydpi="90" />
    <path
       inkscape:connector-curvature="0"
       id="path4667"
       d="m 895.34853,-847.16309 c -11.27068,0.75758 -15.13489,1.51517 -19.64315,7.19707 -4.50825,5.68189 -8.05044,11.74258 -7.40639,21.21241 0.64397,9.46983 0.32194,12.87897 0.32194,12.87897 0,0 -4.18623,-1.51517 -3.8642,5.3031 0.32202,6.81828 4.83028,15.15173 4.83028,15.15173 0,0 -2.25409,1.13638 -6.44032,4.54552 -4.18632,3.40914 -7.08445,7.95465 -7.08445,7.95465 0,0 -6.76234,-1.13638 -14.81287,0 -8.05044,1.13638 -24.1514,5.6819 -29.3037,14.01535 -5.15222,8.33345 -10.94858,7.57586 -10.62655,24.62155 0.32202,17.0457 1.28801,19.69725 7.72841,28.78828 6.4404,9.09104 12.88072,14.77294 16.74501,15.15173 3.86421,0.37879 18.9991,0 18.9991,0 0,0 -10.30461,18.18207 -14.1689,31.43983 -3.86421,13.25776 -12.23667,37.50052 -12.23667,37.50052 0,0 9.66056,11.74259 14.16881,11.74259 4.50826,0 12.23676,3.03034 12.23676,3.03034 l 0.32194,18.56087 13.20283,9.84862 31.87981,0.75758 c 0,0 13.20275,-2.27275 19.64315,-4.92431 6.4404,-2.65155 9.66056,-4.54551 9.66056,-7.95465 0,-3.40914 0.32203,-9.84862 0.32203,-9.84862 l 9.66056,-0.75759 c 0,0 4.18623,-1.13638 7.08436,-4.16672 2.89822,-3.03035 6.76243,-6.81828 6.76243,-6.81828 0,0 0.64405,-13.63655 -2.89822,-23.86397 -3.54218,-10.22741 -13.52477,-43.94 -13.52477,-43.94 l 2.89822,-4.54552 -9.66056,-17.42449 12.23667,-0.75758 11.91473,-5.30311 0,-3.40913 -15.77894,-9.46983 -18.99909,-4.54552 c 0,0 9.01651,-3.40914 10.62663,-7.57586 1.61004,-4.16673 2.89813,-8.71225 2.89813,-8.71225 l 0.64405,-18.18207 -5.79635,-12.50017 -0.64405,-3.03035 c 0,0 8.05052,0.3788 10.30461,-2.27275 2.25417,-2.65156 7.72841,-8.33345 7.72841,-8.33345 0,0 -9.33853,-7.95466 -13.52476,-7.19707 -4.18624,0.75758 -4.50826,0.75758 -4.50826,0.75758 l -3.86421,-4.54551 c 0,0 7.08445,-3.03035 7.08445,-8.33345 0,-5.30311 2.57611,-15.90932 -0.32202,-21.59121 -2.89822,-5.6819 -3.86429,-14.01535 -9.0166,-15.90931 -5.15222,-1.89397 -15.77885,-4.54552 -15.77885,-4.54552 z"
       style="fill:#ffc445;fill-opacity:1;stroke:none;filter:url(#filter4946)" />
    <image
       y="-535.81268"
       x="-144.90244"
       id="image4558"
       xlink:href="file:///home/jakub/Pictures/josef-lada-0056164612_3.jpeg"
       height="480"
       width="854"
       clip-path="url(#clipPath4669)"
       transform="matrix(0.8501171,0,0,1,845.33908,-47.48561)"
       inkscape:export-filename="/home/jakub/Projects/KidPuzzle/qml/KidPuzzle/lada_4.png"
       inkscape:export-xdpi="90"
       inkscape:export-ydpi="90" />
    <path
       style="fill:#ff2925;fill-opacity:1;stroke:none"
       d="m 1533.0069,-392.25753 c -11.2707,0.75758 -15.1349,1.51517 -19.6431,7.19707 -4.5083,5.68189 -8.0505,11.74258 -7.4064,21.21241 0.644,9.46983 0.3219,12.87897 0.3219,12.87897 0,0 -4.1862,-1.51517 -3.8642,5.3031 0.322,6.81828 4.8303,15.15173 4.8303,15.15173 0,0 -2.2541,1.13638 -6.4403,4.54552 -4.1863,3.40914 -7.0845,7.95465 -7.0845,7.95465 0,0 -6.7623,-1.13638 -14.8128,0 -8.0505,1.13638 -24.1514,5.6819 -29.3037,14.01535 -5.1523,8.33345 -10.9486,7.57586 -10.6266,24.62155 0.322,17.0457 1.288,19.69725 7.7284,28.78828 6.4404,9.09104 12.8807,14.77294 16.745,15.15173 3.8642,0.37879 18.9991,0 18.9991,0 0,0 -10.3046,18.18207 -14.1689,31.43983 -3.8642,13.25776 -12.2366,37.50052 -12.2366,37.50052 0,0 9.6605,11.74259 14.1688,11.74259 4.5082,0 12.2367,3.03034 12.2367,3.03034 l 0.322,18.56087 13.2028,9.84862 31.8798,0.75758 c 0,0 13.2028,-2.27275 19.6432,-4.92431 6.4404,-2.65155 9.6605,-4.54551 9.6605,-7.95465 0,-3.40914 0.3221,-9.84862 0.3221,-9.84862 l 9.6605,-0.75759 c 0,0 4.1862,-1.13638 7.0844,-4.16672 2.8982,-3.03035 6.7624,-6.81828 6.7624,-6.81828 0,0 0.6441,-13.63655 -2.8982,-23.86397 -3.5422,-10.22741 -13.5248,-43.94 -13.5248,-43.94 l 2.8982,-4.54552 -9.6605,-17.42449 12.2366,-0.75758 11.9148,-5.30311 0,-3.40913 -15.779,-9.46983 -18.9991,-4.54552 c 0,0 9.0166,-3.40914 10.6267,-7.57586 1.61,-4.16673 2.8981,-8.71225 2.8981,-8.71225 l 0.6441,-18.18207 -5.7964,-12.50017 -0.644,-3.03035 c 0,0 8.0505,0.3788 10.3046,-2.27275 2.2541,-2.65156 7.7284,-8.33345 7.7284,-8.33345 0,0 -9.3386,-7.95466 -13.5248,-7.19707 -4.1862,0.75758 -4.5082,0.75758 -4.5082,0.75758 l -3.8643,-4.54551 c 0,0 7.0845,-3.03035 7.0845,-8.33345 0,-5.30311 2.5761,-15.90932 -0.322,-21.59121 -2.8982,-5.6819 -3.8643,-14.01535 -9.0166,-15.90931 -5.1522,-1.89397 -15.7789,-4.54552 -15.7789,-4.54552 z"
       id="path4882"
       inkscape:connector-curvature="0" />
    <path
       style="fill:#ff2925;fill-opacity:1;stroke:none"
       d="m 81.769664,-1407.1056 c 19.597546,-0.378 26.665506,11.3374 26.665506,11.3374 0,0 9.31687,0.7558 9.31687,3.4012 0,2.6454 0.96381,7.1804 0.96381,7.1804 l -2.57016,3.4012 c 0,0 4.4978,4.1571 4.17652,14.3607 -0.32127,10.2037 -6.10416,17.762 -6.74669,20.0295 -0.64255,2.2675 -2.89145,11.7153 -2.89145,11.7153 l -6.7467,1.8896 -5.461606,-10.9595 c 0,0 -1.28508,10.9595 -2.89143,10.5816 -1.60636,-0.3779 -6.7467,1.1337 -7.38924,-0.3779 -0.64255,-1.5117 -1.28509,-3.0234 -1.28509,-3.0234 l -7.06797,7.9362 -8.03178,-0.3779 -0.32127,7.1804 -4.81906,7.1804 -1.60636,26.454 20.56136,27.5877 12.52958,8.3141 3.855246,7.1804 -0.64254,12.4711 c 0,0 -6.104156,4.535 -19.597546,3.7792 -13.49339,-0.7559 -22.81026,-3.0233 -30.84204,-9.07 -8.03178,-6.0466 -26.66551,-24.5644 -26.66551,-24.5644 l -7.71052,2.6454 11.2445,25.6982 c 0,0 -3.21271,1.8895 -9.95941,13.6049 -6.7467,11.7153 -4.81907,17.0061 -5.14033,30.611 -0.32128,13.6049 0.32126,23.8086 3.85524,29.4773 3.53399,5.6687 5.78289,8.3141 5.78289,8.3141 l -21.52517961,1.5117 -3.21270999,5.6687 -18.3124504,-0.3779 -1.28509,-20.7853 9.31686,-29.8552 -12.85084,0.7558 -21.20391,27.5878 1.28509,7.1803 17.02737,4.535 c 0,0 4.81907,1.1337 3.85526,7.5583 -0.96381,6.4245 -4.17653,10.2037 -4.17653,10.2037 l -58.15009,2.6454 0.32127,-18.5178 5.4616,-11.7154 4.81908,-16.2503 13.49339,-25.3202 7.71051,-2.2675 8.67432,-74.0712 -3.53398,-12.4711 5.14034,-7.1804 14.4572,-6.4246 59.11391,-47.995 7.71052,-0.378 8.67432,-13.227 7.06797,0 -0.64255,-10.9595 14.45721,-8.692 0.96381,-8.692 10.60196,-6.8025 z"
       id="path4884"
       inkscape:connector-curvature="0" />
    <path
       style="fill:#ff2925;fill-opacity:1;stroke:none"
       d="m 204.10181,-336.7624 c 18.30098,0 19.29922,1.95705 21.96118,6.26257 2.66196,4.30552 8.31863,3.5227 10.3151,5.87117 1.99647,2.34846 1.66372,4.30552 1.66372,7.43681 0,3.13129 -2.32921,9.00245 -4.32568,12.13374 -1.99648,3.13129 -0.66549,11.74233 -0.33275,18.39632 0.33275,6.65399 0.66549,9.00245 -2.66196,14.0908 -3.32745,5.08834 -5.65667,2.34846 -5.98941,9.00245 -0.33275,6.65399 5.32392,5.47976 8.98412,12.52515 3.66019,7.0454 6.32216,7.82823 5.65667,22.70185 -0.6655,14.87361 0,28.96441 -0.99824,38.35828 -0.99824,9.39386 -3.32745,23.09325 -5.32392,28.96441 -1.99647,5.87117 2.99471,36.00982 1.66372,49.70921 -1.33098,13.699379 0,37.575459 0,37.575459 0,0 7.3204,-0.39141 9.98236,3.13129 2.66196,3.52269 4.65843,7.4368 4.32568,11.35091 -0.33274,3.91411 0.99824,4.30553 -6.98764,7.82823 -7.98589,3.5227 -25.62138,7.82822 -33.94001,8.61104 -8.31864,0.78282 -34.45284,0.76388 -37.26747,-2.34847 -8.49896,-9.39795 -8.72324,-12.44061 -8.65137,-19.96196 0.0863,-9.03586 4.32568,-27.00736 6.32215,-39.532519 1.99648,-12.52515 1.66373,-30.13865 0.6655,-39.92392 -0.99824,-9.78528 0,-8.21963 -7.32041,-21.52761 -7.32039,-13.30797 -15.63902,-24.65889 -14.64079,-39.53251 0.99824,-14.87362 2.32922,-25.05031 8.65138,-35.61841 7.98091,-13.34084 16.63727,-10.95951 19.29923,-21.91902 2.66196,-10.95951 8.98412,-14.87362 3.32745,-19.57055 -5.65667,-4.69693 -10.3151,-3.5227 -9.64961,-16.43926 0.66549,-12.91657 3.6602,-22.31043 10.3151,-27.39878 6.65491,-5.08834 24.9559,-10.17668 24.9559,-10.17668 z"
       id="path4886"
       inkscape:connector-curvature="0"
       sodipodi:nodetypes="csssssssssssscsssssssssssssssc" />
    <path
       style="fill:#ff2925;fill-opacity:1;stroke:none"
       d="m 1353.8354,-1366.1224 c 12.2082,0.1889 22.1677,2.4564 26.023,4.7239 3.8552,2.2675 6.4253,1.8896 7.5498,5.4798 1.1244,3.5901 2.2489,18.3287 4.0159,25.5091 1.767,7.1804 5.7829,19.6515 5.4616,31.5558 -0.3212,11.9043 -0.3212,15.8724 -0.3212,15.8724 l 11.7264,5.6687 -0.6426,4.9129 c 0,0 -1.2851,1.1338 -6.1041,1.3227 -4.8192,0.189 -7.3893,0.7559 -7.3893,0.7559 0,0 3.6946,2.8343 0.1607,8.1251 -3.5341,5.2908 -10.4414,10.7706 -16.5455,12.2822 -6.1042,1.5117 -4.9798,8.5031 -19.1157,8.1252 -14.1359,-0.3779 -14.1359,-3.0233 -22.8102,-4.724 -8.6744,-1.7006 -14.2966,-2.2674 -18.7944,-6.9914 -4.4978,-4.7239 -8.353,-10.2036 -8.0318,-24.7533 0.3213,-14.5497 2.0883,-29.2884 6.4255,-37.2246 4.3371,-7.9362 5.1403,-17.0061 7.8711,-23.8086 2.7308,-6.8024 1.767,-8.503 6.7467,-15.8723 4.9797,-7.3693 2.0883,-6.9914 8.9956,-8.692 6.9073,-1.7007 15.421,-2.0786 15.421,-2.0786 z"
       id="path4888"
       inkscape:connector-curvature="0" />
  </g>
</svg>
