<?xml version="1.0" encoding="UTF-8" standalone="no"?>
<!-- Created with Inkscape (http://www.inkscape.org/) -->

<svg
   xmlns:dc="http://purl.org/dc/elements/1.1/"
   xmlns:cc="http://creativecommons.org/ns#"
   xmlns:rdf="http://www.w3.org/1999/02/22-rdf-syntax-ns#"
   xmlns:svg="http://www.w3.org/2000/svg"
   xmlns="http://www.w3.org/2000/svg"
   xmlns:xlink="http://www.w3.org/1999/xlink"
   xmlns:sodipodi="http://sodipodi.sourceforge.net/DTD/sodipodi-0.dtd"
   xmlns:inkscape="http://www.inkscape.org/namespaces/inkscape"
   width="854"
   height="480"
   id="svg5003"
   version="1.1"
   inkscape:version="0.48.2 r9819"
   sodipodi:docname="lada_board.svg"
   inkscape:export-filename="/home/jakub/Projects/KidPuzzle/qml/KidPuzzle/lada_board.png"
   inkscape:export-xdpi="90"
   inkscape:export-ydpi="90">
  <defs
     id="defs5005">
    <filter
       id="filter4946"
       inkscape:label="Inner Shadow"
       inkscape:menu="Shadows and Glows"
       inkscape:menu-tooltip="Adds a colorizable drop shadow inside"
       color-interpolation-filters="sRGB">
      <feGaussianBlur
         id="feGaussianBlur4948"
         stdDeviation="4"
         result="result8" />
      <feOffset
         id="feOffset4950"
         dx="4"
         dy="4"
         result="result11" />
      <feComposite
         id="feComposite4952"
         in2="result11"
         result="result6"
         in="SourceGraphic"
         operator="in" />
      <feFlood
         id="feFlood4954"
         result="result10"
         in="result6"
         flood-opacity="1"
         flood-color="rgb(0,0,0)" />
      <feBlend
         id="feBlend4956"
         in2="result10"
         mode="normal"
         in="result6"
         result="result12" />
      <feComposite
         id="feComposite4958"
         in2="SourceGraphic"
         result="result2"
         operator="in" />
    </filter>
    <filter
       id="filter4918"
       inkscape:label="Inner Shadow"
       inkscape:menu="Shadows and Glows"
       inkscape:menu-tooltip="Adds a colorizable drop shadow inside"
       color-interpolation-filters="sRGB">
      <feGaussianBlur
         id="feGaussianBlur4920"
         stdDeviation="4"
         result="result8" />
      <feOffset
         id="feOffset4922"
         dx="4"
         dy="4"
         result="result11" />
      <feComposite
         id="feComposite4924"
         in2="result11"
         result="result6"
         in="SourceGraphic"
         operator="in" />
      <feFlood
         id="feFlood4926"
         result="result10"
         in="result6"
         flood-opacity="1"
         flood-color="rgb(0,0,0)" />
      <feBlend
         id="feBlend4928"
         in2="result10"
         mode="normal"
         in="result6"
         result="result12" />
      <feComposite
         id="feComposite4930"
         in2="SourceGraphic"
         result="result2"
         operator="in" />
    </filter>
    <filter
       id="filter4932"
       inkscape:label="Inner Shadow"
       inkscape:menu="Shadows and Glows"
       inkscape:menu-tooltip="Adds a colorizable drop shadow inside"
       color-interpolation-filters="sRGB">
      <feGaussianBlur
         id="feGaussianBlur4934"
         stdDeviation="4"
         result="result8" />
      <feOffset
         id="feOffset4936"
         dx="4"
         dy="4"
         result="result11" />
      <feComposite
         id="feComposite4938"
         in2="result11"
         result="result6"
         in="SourceGraphic"
         operator="in" />
      <feFlood
         id="feFlood4940"
         result="result10"
         in="result6"
         flood-opacity="1"
         flood-color="rgb(0,0,0)" />
      <feBlend
         id="feBlend4942"
         in2="result10"
         mode="normal"
         in="result6"
         result="result12" />
      <feComposite
         id="feComposite4944"
         in2="SourceGraphic"
         result="result2"
         operator="in" />
    </filter>
    <filter
       id="filter4890"
       inkscape:label="Inner Shadow"
       inkscape:menu="Shadows and Glows"
       inkscape:menu-tooltip="Adds a colorizable drop shadow inside"
       color-interpolation-filters="sRGB">
      <feGaussianBlur
         id="feGaussianBlur4892"
         stdDeviation="4"
         result="result8" />
      <feOffset
         id="feOffset4894"
         dx="4"
         dy="4"
         result="result11" />
      <feComposite
         id="feComposite4896"
         in2="result11"
         result="result6"
         in="SourceGraphic"
         operator="in" />
      <feFlood
         id="feFlood4898"
         result="result10"
         in="result6"
         flood-opacity="1"
         flood-color="rgb(0,0,0)" />
      <feBlend
         id="feBlend4900"
         in2="result10"
         mode="normal"
         in="result6"
         result="result12" />
      <feComposite
         id="feComposite4902"
         in2="SourceGraphic"
         result="result2"
         operator="in" />
    </filter>
    <filter
       id="filter5116"
       inkscape:label="Inner Shadow"
       inkscape:menu="Shadows and Glows"
       inkscape:menu-tooltip="Adds a colorizable drop shadow inside"
       color-interpolation-filters="sRGB">
      <feGaussianBlur
         id="feGaussianBlur5118"
         stdDeviation="4"
         result="result8" />
      <feOffset
         id="feOffset5120"
         dx="4"
         dy="4"
         result="result11" />
      <feComposite
         id="feComposite5122"
         in2="result11"
         result="result6"
         in="SourceGraphic"
         operator="in" />
      <feFlood
         id="feFlood5124"
         result="result10"
         in="result6"
         flood-opacity="1"
         flood-color="rgb(0,0,0)" />
      <feBlend
         id="feBlend5126"
         in2="result10"
         mode="normal"
         in="result6"
         result="result12" />
      <feComposite
         id="feComposite5128"
         in2="SourceGraphic"
         result="result2"
         operator="in" />
    </filter>
  </defs>
  <sodipodi:namedview
     id="base"
     pagecolor="#ffffff"
     bordercolor="#666666"
     borderopacity="1.0"
     inkscape:pageopacity="0.0"
     inkscape:pageshadow="2"
     inkscape:zoom="1"
     inkscape:cx="439.1866"
     inkscape:cy="74"
     inkscape:document-units="px"
     inkscape:current-layer="layer1"
     showgrid="false"
     inkscape:window-width="1465"
     inkscape:window-height="870"
     inkscape:window-x="275"
     inkscape:window-y="45"
     inkscape:window-maximized="0" />
  <metadata
     id="metadata5008">
    <rdf:RDF>
      <cc:Work
         rdf:about="">
        <dc:format>image/svg+xml</dc:format>
        <dc:type
           rdf:resource="http://purl.org/dc/dcmitype/StillImage" />
        <dc:title></dc:title>
      </cc:Work>
    </rdf:RDF>
  </metadata>
  <g
     inkscape:label="Layer 1"
     inkscape:groupmode="layer"
     id="layer1"
     transform="translate(0,-572.36218)">
    <image
       width="726"
       height="480"
       xlink:href="file:///home/jakub/Pictures/josef-lada-0056164612_3.jpeg"
       id="image4647"
       x="129.16354"
       y="573.46918" />
    <path
       inkscape:connector-curvature="0"
       id="path4677"
       d="m 485.31798,586.93309 c 12.20827,0.1889 22.16773,2.4564 26.02301,4.7239 3.8552,2.2675 6.42536,1.8896 7.54981,5.4798 1.12445,3.5901 2.2489,18.32873 4.01595,25.50913 1.76697,7.1804 5.78284,19.6515 5.46158,31.5558 -0.32126,11.9043 -0.32126,15.8724 -0.32126,15.8724 l 11.72643,5.6687 -0.6426,4.9129 c 0,0 -1.28504,1.1338 -6.1041,1.3227 -4.81914,0.189 -7.3893,0.7559 -7.3893,0.7559 0,0 3.69461,2.8343 0.16067,8.1251 -3.53402,5.2908 -10.44131,10.7706 -16.54549,12.2822 -6.10418,1.5117 -4.97973,8.5031 -19.11565,8.1252 -14.13591,-0.3779 -14.13591,-3.0233 -22.81025,-4.724 -8.67434,-1.7006 -14.29659,-2.2674 -18.79439,-6.9914 -4.4978,-4.7239 -8.353,-10.2036 -8.03174,-24.7533 0.32126,-14.5497 2.08823,-29.2884 6.42544,-37.2246 4.33713,-7.9362 5.14032,-17.0061 7.87115,-23.8086 2.73075,-6.80243 1.76697,-8.50303 6.7467,-15.87233 4.97965,-7.3693 2.08823,-6.9914 8.9956,-8.692 6.90729,-1.7007 15.42095,-2.0786 15.42095,-2.0786 z"
       style="fill:#ffc445;fill-opacity:1;stroke:none;filter:url(#filter4890)" />
    <path
       sodipodi:nodetypes="csssssssssssscsssssssssssssssc"
       inkscape:connector-curvature="0"
       id="path4687"
       d="m 407.62196,744.06671 c 18.30098,0 19.29922,1.95705 21.96118,6.26257 2.66196,4.30552 8.31863,3.5227 10.3151,5.87117 1.99647,2.34846 1.66372,4.30552 1.66372,7.43681 0,3.13129 -2.32921,9.00245 -4.32568,12.13374 -1.99648,3.13129 -0.66549,11.74233 -0.33275,18.39632 0.33275,6.65399 0.66549,9.00245 -2.66196,14.0908 -3.32745,5.08834 -5.65667,2.34846 -5.98941,9.00245 -0.33275,6.65399 5.32392,5.47976 8.98412,12.52515 3.66019,7.0454 6.32216,7.82823 5.65667,22.70185 -0.6655,14.87361 0,28.96441 -0.99824,38.35828 -0.99824,9.39386 -3.32745,23.09325 -5.32392,28.96441 -1.99647,5.87117 2.99471,36.00982 1.66372,49.70921 -1.33098,13.69938 0,37.57543 0,37.57543 0,0 7.3204,-0.3915 9.98236,3.1312 2.66196,3.5227 4.65843,7.4369 4.32568,11.351 -0.33274,3.9141 0.99824,4.3055 -6.98764,7.8282 -7.98589,3.5227 -25.62138,7.8282 -33.94001,8.611 -8.31864,0.7829 -34.45284,0.7639 -37.26747,-2.3484 -8.49896,-9.398 -8.72324,-12.4406 -8.65137,-19.962 0.0863,-9.0359 4.32568,-27.00729 6.32215,-39.53245 1.99648,-12.52515 1.66373,-30.13865 0.6655,-39.92392 -0.99824,-9.78528 0,-8.21963 -7.32041,-21.52761 -7.32039,-13.30797 -15.63902,-24.65889 -14.64079,-39.53251 0.99824,-14.87362 2.32922,-25.05031 8.65138,-35.61841 7.98091,-13.34084 16.63727,-10.95951 19.29923,-21.91902 2.66196,-10.95951 8.98412,-14.87362 3.32745,-19.57055 -5.65667,-4.69693 -10.3151,-3.5227 -9.64961,-16.43926 0.66549,-12.91657 3.6602,-22.31043 10.3151,-27.39878 6.65491,-5.08834 24.9559,-10.17668 24.9559,-10.17668 z"
       style="fill:#ffc445;fill-opacity:1;stroke:none;filter:url(#filter4932)" />
    <path
       inkscape:connector-curvature="0"
       id="path4697"
       d="m 325.51756,760.85549 c 19.59755,-0.378 26.66551,11.3374 26.66551,11.3374 0,0 9.31687,0.7558 9.31687,3.4012 0,2.6454 0.96381,7.1804 0.96381,7.1804 l -2.57016,3.4012 c 0,0 4.4978,4.1571 4.17652,14.3607 -0.32127,10.2037 -6.10416,17.762 -6.74669,20.0295 -0.64255,2.2675 -2.89145,11.7153 -2.89145,11.7153 l -6.7467,1.8896 -5.46161,-10.9595 c 0,0 -1.28508,10.9595 -2.89143,10.5816 -1.60636,-0.3779 -6.7467,1.1337 -7.38924,-0.3779 -0.64255,-1.5117 -1.28509,-3.0234 -1.28509,-3.0234 l -7.06797,7.9362 -8.03178,-0.3779 -0.32127,7.1804 -4.81906,7.1804 -1.60636,26.454 20.56136,27.5877 12.52958,8.3141 3.85525,7.1804 -0.64254,12.4711 c 0,0 -6.10416,4.535 -19.59755,3.7792 -13.49339,-0.7559 -22.81026,-3.0233 -30.84204,-9.07 -8.03178,-6.0466 -26.66551,-24.5644 -26.66551,-24.5644 l -7.71052,2.6454 11.2445,25.6982 c 0,0 -3.21271,1.8895 -9.95941,13.6049 -6.7467,11.7153 -4.81907,17.0061 -5.14033,30.611 -0.32128,13.6049 0.32126,23.80861 3.85524,29.47721 3.53399,5.6687 5.78289,8.3141 5.78289,8.3141 l -21.52518,1.5117 -3.21271,5.6687 -18.31245,-0.3779 -1.28509,-20.7852 9.31686,-29.85521 -12.85084,0.7558 -21.20391,27.5878 1.28509,7.18021 17.02737,4.535 c 0,0 4.81907,1.1337 3.85526,7.5583 -0.96381,6.4245 -4.17653,10.2037 -4.17653,10.2037 l -58.15009,2.6454 0.32127,-18.5178 5.4616,-11.7153 4.81908,-16.25031 13.49339,-25.3202 7.71051,-2.2675 8.67432,-74.0712 -3.53398,-12.4711 5.14034,-7.1804 14.4572,-6.4246 59.11391,-47.995 7.71052,-0.378 8.67432,-13.227 7.06797,0 -0.64255,-10.9595 14.45721,-8.692 0.96381,-8.692 10.60196,-6.8025 z"
       style="fill:#ffc445;fill-opacity:1;stroke:none;filter:url(#filter4918)" />
    <path
       inkscape:connector-curvature="0"
       id="path4667"
       d="m 764.41454,762.1188 c -11.27068,0.75758 -15.13489,1.51517 -19.64315,7.19707 -4.50825,5.68189 -8.05044,11.74258 -7.40639,21.21241 0.64397,9.46983 0.32194,12.87897 0.32194,12.87897 0,0 -4.18623,-1.51517 -3.8642,5.3031 0.32202,6.81828 4.83028,15.15173 4.83028,15.15173 0,0 -2.25409,1.13638 -6.44032,4.54552 -4.18632,3.40914 -7.08445,7.95465 -7.08445,7.95465 0,0 -6.76234,-1.13638 -14.81287,0 -8.05044,1.13638 -24.1514,5.6819 -29.3037,14.01535 -5.15222,8.33345 -10.94858,7.57586 -10.62655,24.62155 0.32202,17.0457 1.28801,19.69725 7.72841,28.78828 6.4404,9.09104 12.88072,14.77294 16.74501,15.15173 3.86421,0.37879 18.9991,0 18.9991,0 0,0 -10.30461,18.18207 -14.1689,31.43983 -3.86421,13.25776 -12.23667,37.50052 -12.23667,37.50052 0,0 9.66056,11.74259 14.16881,11.74259 4.50826,0 12.23676,3.0303 12.23676,3.0303 l 0.32194,18.5608 13.20283,9.8487 31.87981,0.7575 c 0,0 13.20275,-2.2727 19.64315,-4.9243 6.4404,-2.6515 9.66056,-4.5455 9.66056,-7.9546 0,-3.4092 0.32203,-9.8486 0.32203,-9.8486 l 9.66056,-0.7576 c 0,0 4.18623,-1.1364 7.08436,-4.1667 2.89822,-3.0303 6.76243,-6.81826 6.76243,-6.81826 0,0 0.64405,-13.63655 -2.89822,-23.86397 -3.54218,-10.22741 -13.52477,-43.94 -13.52477,-43.94 l 2.89822,-4.54552 -9.66056,-17.42449 12.23667,-0.75758 11.91473,-5.30311 0,-3.40913 -15.77894,-9.46983 -18.99909,-4.54552 c 0,0 9.01651,-3.40914 10.62663,-7.57586 1.61004,-4.16673 2.89813,-8.71225 2.89813,-8.71225 l 0.64405,-18.18207 -5.79635,-12.50017 -0.64405,-3.03035 c 0,0 8.05052,0.3788 10.30461,-2.27275 2.25417,-2.65156 7.72841,-8.33345 7.72841,-8.33345 0,0 -9.33853,-7.95466 -13.52476,-7.19707 -4.18624,0.75758 -4.50826,0.75758 -4.50826,0.75758 l -3.86421,-4.54551 c 0,0 7.08445,-3.03035 7.08445,-8.33345 0,-5.30311 2.57611,-15.90932 -0.32202,-21.59121 -2.89822,-5.6819 -3.86429,-14.01535 -9.0166,-15.90931 -5.15222,-1.89397 -15.77885,-4.54552 -15.77885,-4.54552 z"
       style="fill:#ffc445;fill-opacity:1;stroke:none;filter:url(#filter4946)" />
    <rect
       style="color:#000000;fill:#ffc445;fill-opacity:1;fill-rule:nonzero;stroke:none;stroke-width:0.9646073;marker:none;visibility:visible;display:inline;overflow:visible;filter:url(#filter5116);enable-background:accumulate"
       id="rect5114"
       width="75"
       height="482"
       x="54"
       y="572.36218"
       transform="matrix(1.7088889,0,0,1,-91.446667,0)" />
    <path
       style="fill:#ff2925;fill-opacity:1;stroke:none"
       d="m 289.04921,1079.2579 c 19.59755,-0.378 26.66551,11.3374 26.66551,11.3374 0,0 9.31687,0.7558 9.31687,3.4012 0,2.6454 0.96381,7.1804 0.96381,7.1804 l -2.57016,3.4012 c 0,0 4.4978,4.1571 4.17652,14.3607 -0.32127,10.2037 -6.10416,17.762 -6.74669,20.0295 -0.64255,2.2675 -2.89145,11.7153 -2.89145,11.7153 l -6.7467,1.8896 -5.46161,-10.9595 c 0,0 -1.28508,10.9595 -2.89143,10.5816 -1.60636,-0.3779 -6.7467,1.1337 -7.38924,-0.3779 -0.64255,-1.5117 -1.28509,-3.0234 -1.28509,-3.0234 l -7.06797,7.9362 -8.03178,-0.3779 -0.32127,7.1804 -4.81906,7.1804 -1.60636,26.454 20.56136,27.5877 12.52958,8.3141 3.85525,7.1804 -0.64254,12.4711 c 0,0 -6.10416,4.535 -19.59755,3.7792 -13.49339,-0.7559 -22.81026,-3.0233 -30.84204,-9.07 -8.03178,-6.0466 -26.66551,-24.5644 -26.66551,-24.5644 l -7.71052,2.6454 11.2445,25.6982 c 0,0 -3.21271,1.8895 -9.95941,13.6049 -6.7467,11.7153 -4.81907,17.0061 -5.14033,30.611 -0.32128,13.6049 0.32126,23.8086 3.85524,29.4773 3.53399,5.6687 5.78289,8.3141 5.78289,8.3141 l -21.52518,1.5117 -3.21271,5.6687 -18.31245,-0.3779 -1.28509,-20.7853 9.31686,-29.8552 -12.85084,0.7558 -21.20391,27.5878 1.28509,7.1803 17.02737,4.535 c 0,0 4.81907,1.1337 3.85526,7.5583 -0.96381,6.4245 -4.17653,10.2037 -4.17653,10.2037 l -58.15009,2.6454 0.32127,-18.5178 5.4616,-11.7154 4.81908,-16.2503 13.49339,-25.3202 7.71051,-2.2675 8.67432,-74.0712 -3.53398,-12.4711 5.14034,-7.1804 14.4572,-6.4246 59.11391,-47.995 7.71052,-0.378 8.67432,-13.227 7.06797,0 -0.64255,-10.9595 14.45721,-8.692 0.96381,-8.692 10.60196,-6.8025 z"
       id="path4884"
       inkscape:connector-curvature="0" />
    <path
       style="fill:#ff2925;fill-opacity:1;stroke:none"
       d="m 426.01222,1078.172 c 18.30098,0 19.29922,1.957 21.96118,6.2626 2.66196,4.3055 8.31863,3.5227 10.3151,5.8711 1.99647,2.3485 1.66372,4.3055 1.66372,7.4368 0,3.1313 -2.32921,9.0025 -4.32568,12.1338 -1.99648,3.1313 -0.66549,11.7423 -0.33275,18.3963 0.33275,6.654 0.66549,9.0024 -2.66196,14.0908 -3.32745,5.0883 -5.65667,2.3485 -5.98941,9.0024 -0.33275,6.654 5.32392,5.4798 8.98412,12.5252 3.66019,7.0454 6.32216,7.8282 5.65667,22.7018 -0.6655,14.8737 0,28.9645 -0.99824,38.3583 -0.99824,9.3939 -3.32745,23.0933 -5.32392,28.9644 -1.99647,5.8712 2.99471,36.0099 1.66372,49.7092 -1.33098,13.6994 0,37.5755 0,37.5755 0,0 7.3204,-0.3914 9.98236,3.1313 2.66197,3.5227 4.65844,7.4368 4.32569,11.3509 -0.33274,3.9141 0.99824,4.3055 -6.98765,7.8282 -7.98589,3.5227 -25.62138,7.8283 -33.94001,8.6111 -8.31864,0.7828 -34.45284,0.7639 -37.26747,-2.3485 -8.49896,-9.3979 -8.72324,-12.4406 -8.65137,-19.962 0.0863,-9.0358 4.32568,-27.0073 6.32215,-39.5325 1.99648,-12.5251 1.66373,-30.1386 0.6655,-39.9239 -0.99824,-9.7853 0,-8.2196 -7.32041,-21.5276 -7.32039,-13.308 -15.63902,-24.6589 -14.64079,-39.5325 0.99824,-14.8736 2.32922,-25.0503 8.65138,-35.6184 7.98091,-13.3409 16.63727,-10.9595 19.29923,-21.919 2.66196,-10.9596 8.98412,-14.8737 3.32745,-19.5706 -5.65667,-4.6969 -10.3151,-3.5227 -9.64961,-16.4393 0.66549,-12.9165 3.6602,-22.3104 10.3151,-27.3987 6.65491,-5.0884 24.9559,-10.1767 24.9559,-10.1767 z"
       id="path4886"
       inkscape:connector-curvature="0"
       sodipodi:nodetypes="csssssssssssscsssssssssssssssc" />
    <path
       style="fill:#ff2925;fill-opacity:1;stroke:none"
       d="m 575.19032,1076.188 c 12.2082,0.1889 22.1677,2.4564 26.023,4.7239 3.8552,2.2675 6.4253,1.8896 7.5498,5.4798 1.1244,3.5901 2.2489,18.3287 4.0159,25.5091 1.767,7.1804 5.7829,19.6515 5.4616,31.5558 -0.3212,11.9043 -0.3212,15.8724 -0.3212,15.8724 l 11.7264,5.6687 -0.6426,4.9129 c 0,0 -1.2851,1.1338 -6.1041,1.3227 -4.8192,0.189 -7.3893,0.7559 -7.3893,0.7559 0,0 3.6946,2.8343 0.1607,8.1251 -3.5341,5.2908 -10.4414,10.7706 -16.5455,12.2822 -6.1042,1.5117 -4.9798,8.5031 -19.1157,8.1252 -14.1359,-0.3779 -14.1359,-3.0233 -22.8102,-4.724 -8.6744,-1.7006 -14.2966,-2.2674 -18.7944,-6.9914 -4.4978,-4.7239 -8.353,-10.2036 -8.0318,-24.7533 0.3213,-14.5497 2.0883,-29.2884 6.4255,-37.2246 4.3371,-7.9362 5.1403,-17.0061 7.8711,-23.8086 2.7308,-6.8024 1.767,-8.503 6.7467,-15.8723 4.9797,-7.3693 2.0883,-6.9914 8.9956,-8.692 6.9073,-1.7007 15.421,-2.0786 15.421,-2.0786 z"
       id="path4888"
       inkscape:connector-curvature="0" />
    <path
       style="fill:#ff2925;fill-opacity:1;stroke:none"
       d="m 777.54767,1064.5118 c -11.2707,0.7576 -15.1349,1.5152 -19.6431,7.1971 -4.5083,5.6819 -8.0505,11.7426 -7.4064,21.2124 0.644,9.4698 0.3219,12.879 0.3219,12.879 0,0 -4.1862,-1.5152 -3.8642,5.3031 0.322,6.8183 4.8303,15.1517 4.8303,15.1517 0,0 -2.2541,1.1364 -6.4403,4.5455 -4.1863,3.4092 -7.0845,7.9547 -7.0845,7.9547 0,0 -6.7623,-1.1364 -14.8128,0 -8.0505,1.1364 -24.1514,5.6819 -29.3037,14.0153 -5.1523,8.3335 -10.9486,7.5759 -10.6266,24.6216 0.322,17.0457 1.288,19.6972 7.7284,28.7883 6.4404,9.091 12.8807,14.7729 16.745,15.1517 3.8642,0.3788 18.9991,0 18.9991,0 0,0 -10.3046,18.1821 -14.1689,31.4398 -3.8642,13.2578 -12.2366,37.5005 -12.2366,37.5005 0,0 9.6605,11.7426 14.1688,11.7426 4.5082,0 12.2367,3.0304 12.2367,3.0304 l 0.322,18.5608 13.2028,9.8487 31.8798,0.7575 c 0,0 13.2028,-2.2727 19.6432,-4.9243 6.4404,-2.6515 9.6605,-4.5455 9.6605,-7.9546 0,-3.4092 0.3221,-9.8486 0.3221,-9.8486 l 9.6605,-0.7576 c 0,0 4.1862,-1.1364 7.0844,-4.1668 2.8982,-3.0303 6.7624,-6.8182 6.7624,-6.8182 0,0 0.6441,-13.6366 -2.8982,-23.864 -3.5422,-10.2274 -13.5248,-43.94 -13.5248,-43.94 l 2.8982,-4.5455 -9.6605,-17.4245 12.2366,-0.7576 11.9148,-5.3031 0,-3.4091 -15.779,-9.4699 -18.9991,-4.5455 c 0,0 9.0166,-3.4091 10.6267,-7.5758 1.61,-4.1668 2.8981,-8.7123 2.8981,-8.7123 l 0.6441,-18.1821 -5.7964,-12.5001 -0.644,-3.0304 c 0,0 8.0505,0.3788 10.3046,-2.2727 2.2541,-2.6516 7.7284,-8.3335 7.7284,-8.3335 0,0 -9.3386,-7.9546 -13.5248,-7.1971 -4.1862,0.7576 -4.5082,0.7576 -4.5082,0.7576 l -3.8643,-4.5455 c 0,0 7.0845,-3.0303 7.0845,-8.3334 0,-5.3031 2.5761,-15.9094 -0.322,-21.5912 -2.8982,-5.6819 -3.8643,-14.0154 -9.0166,-15.9093 -5.1522,-1.894 -15.7789,-4.5456 -15.7789,-4.5456 z"
       id="path4882"
       inkscape:connector-curvature="0" />
  </g>
</svg>
